<svg width="1915" height="1003" viewBox="0 0 1915 1003" fill="none" xmlns="http://www.w3.org/2000/svg">
<path d="M630 694.8H146.4C104.8 694.8 70.8 660.8 70.8 619.2V135.6C70.8 94 104.8 60 146.4 60H630C671.6 60 705.6 94 705.6 135.6V619.2C705.6 660.8 671.6 694.8 630 694.8Z" fill="#51B848"/>
<path d="M373.8 334.7C367.9 341.3 361.3 347 354 351.8C346.7 356.6 338.4 360.2 329.2 362.8C320 365.3 309.5 366.6 297.7 366.6C284.9 366.6 272.3 364.7 259.9 361C247.5 357.2 236.5 351.5 226.9 343.6C217.3 335.8 209.5 325.7 203.6 313.4C197.7 301.1 194.8 286.4 194.8 269.4C194.8 252.8 197.8 238.3 203.8 226.2C209.8 214 217.7 203.9 227.4 195.9C237.1 187.9 248.2 181.9 260.4 178.1C272.7 174.2 285.1 172.3 297.7 172.3C307.6 172.3 316.7 173.2 324.8 175C332.9 176.8 340.5 179.6 347.5 183.4C354.5 187.2 361.1 192 367.4 198C373.7 204 380 211.1 386.3 219.5L359.2 235.3C354.9 229.4 350.7 224.4 346.6 220.2C342.4 216 338 212.6 333.2 210C328.4 207.4 323.2 205.4 317.5 204.2C311.8 203 305.2 202.4 297.7 202.4C288.4 202.4 279.4 203.8 270.7 206.5C262.1 209.2 254.4 213.4 247.7 219C241 224.6 235.7 231.6 231.7 240C227.7 248.4 225.8 258.2 225.8 269.4C225.8 281.2 227.8 291.3 231.7 299.7C235.7 308.1 240.9 315.1 247.5 320.6C254.1 326.1 261.7 330.1 270.3 332.6C278.9 335.1 288 336.4 297.6 336.4C305.9 336.4 313.3 335.6 319.7 334C326.1 332.4 331.8 329.9 336.8 326.7C341.8 323.5 346.3 319.4 350.5 314.7C354.7 309.9 358.7 304.5 362.5 298.4L390.5 312.4C385.3 320.7 379.7 328.1 373.8 334.7Z" fill="white"/>
<path d="M557.8 227.4C554.6 224.1 552 221.3 550 219.3C547.9 217.2 546.2 215.6 544.7 214.4C543.2 213.2 542 212.3 541.2 211.7C540.3 211.1 539.5 210.6 538.7 210.2C536.5 209.2 534.1 208.4 531.3 207.8C528.5 207.2 525.1 206.9 521 206.9C516.7 206.9 512 207.3 507 208.2C502 209.1 497.2 210.7 490.4 213.3C485.1 215.4 481.9 216.4 476.7 218.6C472.2 220.5 467.7 222.3 462.8 225.6V362.7H432.7V181.2H462.8V196.3C465.4 194.7 467.9 193.2 470.5 191.7C473.1 190.2 475.7 188.9 478.5 187.7C484.8 184.7 491.5 182.3 498.5 180.5C505.5 178.6 513 177.7 521.1 177.7C526 177.7 531.1 178.1 536.2 178.9C541.3 179.7 546.4 181.3 551.6 183.6C555.3 185.2 559 187.4 562.7 190.2C566.3 193.1 571.7 197.5 578.8 203.7L557.8 227.4Z" fill="white"/>
<path d="M340.5 584.1V461.5C340.5 456.2 340 451.6 339 447.8C338 444 336.1 440.7 333.4 437.9C331 435.5 327.6 433.4 323.1 431.4C318.6 429.4 312 428.4 303.3 428.4C293.3 428.4 281.7 430.8 268.7 435.5C266.1 436.5 263.3 437.7 260.1 439.2C256.9 440.7 253.8 442.4 250.6 444.2C247.4 446.1 244.3 448 241.3 450C238.2 452 235.4 453.9 232.9 455.9V584.2H202.8V402.6H233.2C233.2 402.8 233.1 403.9 233.1 405.9C233 407.9 232.9 410.3 232.8 413.3C232.7 416.3 232.7 418.9 232.7 421.3C237.2 418.6 241.6 416.1 245.9 413.9C250.2 411.7 254.5 409.8 259.1 408C267 404.8 274.6 402.6 282 401.2C289.4 399.8 296.7 399.1 304 399.1C314.6 399.1 324.3 400.6 333 403.5C341.7 406.5 349 411.1 354.9 417.4C360.4 423.1 364.5 429.5 367 436.5C369.6 443.5 370.8 451.7 370.8 461.2V584.2H340.5V584.1Z" fill="white"/>
<path d="M544.7 584.1V461.5C544.7 456.2 544.2 451.6 543.2 447.8C542.2 444 540.3 440.7 537.6 437.9C535.2 435.5 531.8 433.4 527.3 431.4C522.8 429.4 516.2 428.4 507.5 428.4C497.5 428.4 485.9 430.8 472.9 435.5C470.3 436.5 467.5 437.7 464.3 439.2C461.1 440.7 458 442.4 454.8 444.2C451.6 446.1 448.5 448 445.5 450C442.4 452 439.6 453.9 437.1 455.9V584.2H407V402.6H437.4C437.4 402.8 437.3 403.9 437.3 405.9C437.2 407.9 437.1 410.3 437 413.3C436.9 416.3 436.9 418.9 436.9 421.3C441.4 418.6 445.8 416.1 450.1 413.9C454.4 411.7 458.7 409.8 463.3 408C471.2 404.8 478.8 402.6 486.2 401.2C493.6 399.8 500.9 399.1 508.2 399.1C518.8 399.1 528.5 400.6 537.2 403.5C545.9 406.5 553.2 411.1 559.1 417.4C564.6 423.1 568.7 429.5 571.2 436.5C573.8 443.5 575 451.7 575 461.2V584.2H544.7V584.1Z" fill="white"/>
<path d="M955.5 554C949.9 560.2 943.7 565.6 936.8 570.1C929.9 574.6 922.1 578.1 913.3 580.5C904.6 582.9 894.6 584.1 883.5 584.1C871.4 584.1 859.5 582.3 847.8 578.8C836.1 575.2 825.7 569.8 816.6 562.4C807.5 555 800.1 545.5 794.6 533.9C789 522.3 786.2 508.4 786.2 492.3C786.2 476.6 789 462.9 794.7 451.4C800.4 439.9 807.8 430.3 817 422.8C826.2 415.2 836.6 409.6 848.2 406C859.8 402.4 871.6 400.5 883.5 400.5C892.9 400.5 901.4 401.4 909.1 403.1C916.8 404.8 923.9 407.5 930.6 411C937.2 414.6 943.5 419.2 949.5 424.8C955.4 430.5 961.4 437.2 967.4 445.1L941.8 460.1C937.8 454.5 933.8 449.8 929.9 445.9C926 442 921.7 438.7 917.2 436.3C912.7 433.8 907.7 432 902.4 430.8C897 429.7 890.8 429.1 883.7 429.1C874.9 429.1 866.4 430.4 858.2 433C850 435.6 842.8 439.5 836.5 444.8C830.2 450.1 825.1 456.7 821.4 464.7C817.7 472.7 815.8 481.9 815.8 492.5C815.8 503.6 817.7 513.2 821.4 521.1C825.1 529.1 830.1 535.6 836.4 540.8C842.6 546 849.8 549.8 858 552.2C866.2 554.6 874.7 555.8 883.8 555.8C891.7 555.8 898.6 555 904.7 553.5C910.7 552 916.1 549.7 920.8 546.6C925.5 543.5 929.8 539.7 933.8 535.2C937.7 530.7 941.5 525.6 945.2 519.8L971.7 533C966.4 540.7 961.1 547.8 955.5 554Z" fill="#575654"/>
<path d="M1125.1 450.8C1122 447.5 1119.5 444.9 1117.5 442.9C1115.5 440.9 1113.8 439.3 1112.3 438.1C1110.9 436.9 1109.7 436.1 1108.9 435.5C1108 434.9 1107.2 434.5 1106.5 434.1C1104.4 433.1 1102 432.4 1099.3 431.8C1096.6 431.2 1093.2 430.9 1089.2 430.9C1085 430.9 1080.4 431.3 1075.5 432.2C1070.6 433.1 1064.9 434.8 1058.8 437.2C1052.7 439.4 1050.8 440.2 1046 442.2C1041.6 444 1037.4 445.7 1032.5 449V582.6H1003V405.9H1032.4V420.6C1034.9 419.1 1037.4 417.6 1039.9 416.1C1042.4 414.7 1045 413.4 1047.7 412.2C1053.8 409.3 1060.3 407 1067.1 405.1C1073.9 403.3 1081.3 402.4 1089.1 402.4C1093.9 402.4 1098.8 402.8 1103.8 403.5C1108.8 404.3 1113.8 405.8 1118.8 408.1C1122.4 409.6 1126 411.8 1129.6 414.6C1133.2 417.4 1138.4 421.7 1145.3 427.7L1125.1 450.8Z" fill="#575654"/>
<path d="M1330.2 526.2C1326.3 537.1 1320.3 546.9 1312.2 555.6C1304.1 564.2 1294 571.1 1281.7 576.3C1269.4 581.5 1254.9 584.1 1238.2 584.1C1221.9 584.1 1207.6 581.6 1195.3 576.6C1183 571.6 1172.8 564.9 1164.6 556.5C1156.4 548.1 1150.3 538.3 1146.2 527.3C1142.1 516.3 1140 504.6 1140 492.3C1140 477.7 1142.6 464.7 1147.9 453.3C1153.2 441.9 1160.3 432.3 1169.2 424.5C1178.1 416.7 1188.5 410.8 1200.4 406.6C1212.3 402.5 1224.9 400.4 1238.1 400.4C1251.3 400.4 1263.9 402.5 1275.8 406.6C1287.7 410.7 1298.1 416.7 1307 424.6C1315.9 432.5 1323 442.1 1328.2 453.5C1333.4 464.9 1336 477.9 1336 492.5C1336.1 504.1 1334.2 515.3 1330.2 526.2ZM1301.7 466.1C1298.3 458.2 1293.6 451.6 1287.6 446.1C1281.6 440.6 1274.3 436.5 1265.9 433.6C1257.5 430.7 1248.2 429.3 1238.3 429.3C1228.1 429.3 1218.9 430.7 1210.5 433.6C1202.2 436.5 1194.9 440.7 1188.8 446.1C1182.7 451.6 1177.9 458.2 1174.6 466.1C1171.2 474 1169.6 482.8 1169.6 492.6C1169.6 500.9 1170.9 508.8 1173.6 516.5C1176.3 524.2 1180.5 530.9 1186.1 536.8C1191.7 542.7 1199 547.3 1207.7 550.8C1216.4 554.2 1226.7 556 1238.7 556C1250.4 556 1260.5 554.3 1269.1 550.8C1277.6 547.3 1284.7 542.7 1290.4 536.8C1296.1 530.9 1300.2 524.2 1302.9 516.5C1305.6 508.8 1306.9 500.9 1306.9 492.6C1306.8 482.8 1305.1 473.9 1301.7 466.1Z" fill="#575654"/>
<path d="M1510 582.6V463.2C1510 458 1509.5 453.6 1508.6 449.8C1507.6 446.1 1505.8 442.8 1503.1 440.2C1500.8 437.9 1497.4 435.8 1493 433.9C1488.6 432 1482.1 431 1473.7 431C1463.9 431 1452.7 433.3 1440 437.9C1437.5 438.9 1434.7 440.1 1431.6 441.5C1428.5 442.9 1425.5 444.6 1422.4 446.4C1419.3 448.2 1416.3 450.1 1413.3 452C1410.3 453.9 1407.6 455.8 1405.1 457.8V582.7H1375.7V405.9H1405.4C1405.4 406.1 1405.3 407.1 1405.2 409.1C1405.1 411 1405 413.4 1404.9 416.3C1404.8 419.2 1404.8 421.8 1404.8 424.1C1409.2 421.4 1413.5 419 1417.6 416.9C1421.7 414.8 1426 412.9 1430.4 411.1C1438.1 408 1445.5 405.8 1452.7 404.5C1459.9 403.2 1467 402.5 1474.2 402.5C1484.6 402.5 1494 403.9 1502.4 406.8C1510.8 409.7 1518 414.2 1523.7 420.3C1529.1 425.9 1533 432.1 1535.5 438.9C1538 445.7 1539.2 453.7 1539.2 462.9V582.7H1510V582.6Z" fill="#575654"/>
<path d="M1726.2 582.6V463.2C1726.2 458 1725.7 453.6 1724.8 449.8C1723.8 446.1 1722 442.8 1719.3 440.2C1717 437.9 1713.6 435.8 1709.2 433.9C1704.8 432 1698.3 431 1689.9 431C1680.1 431 1668.9 433.3 1656.2 437.9C1653.7 438.9 1650.9 440.1 1647.8 441.5C1644.7 442.9 1641.7 444.6 1638.6 446.4C1635.5 448.2 1632.5 450.1 1629.5 452C1626.5 453.9 1623.8 455.8 1621.3 457.8V582.7H1591.9V405.9H1621.6C1621.6 406.1 1621.5 407.1 1621.4 409.1C1621.3 411 1621.2 413.4 1621.1 416.3C1621 419.2 1621 421.8 1621 424.1C1625.4 421.4 1629.7 419 1633.8 416.9C1637.9 414.8 1642.2 412.9 1646.6 411.1C1654.3 408 1661.7 405.8 1668.9 404.5C1676.1 403.2 1683.2 402.5 1690.4 402.5C1700.8 402.5 1710.2 403.9 1718.6 406.8C1727 409.7 1734.2 414.2 1739.9 420.3C1745.3 425.9 1749.2 432.1 1751.7 438.9C1754.2 445.7 1755.4 453.7 1755.4 462.9V582.7H1726.2V582.6Z" fill="#575654"/>
<path d="M150.3 926.2L135.2 877.9C134.2 874.9 132.5 868.2 129.9 857.8H129.3C127.3 866.6 125.5 873.3 124 878.1L108.4 926.3H94L71.5 844H84.6C89.9 864.7 94 880.4 96.7 891.3C99.5 902.1 101.1 909.4 101.5 913.2H102.1C102.7 910.3 103.5 906.7 104.8 902.1C106 897.6 107.1 894 108 891.3L123.1 844H136.6L151.3 891.3C154.1 899.9 156 907.2 157 913H157.6C157.8 911.2 158.3 908.4 159.2 904.7C160.1 900.9 165.3 880.7 174.9 844.1H187.8L165 926.4H150.3V926.2Z" fill="#575654"/>
<path d="M201.6 821.5C201.6 818.6 202.3 816.6 203.7 815.2C205.1 813.9 206.9 813.2 209 813.2C211 813.2 212.7 813.9 214.2 815.2C215.7 816.6 216.4 818.6 216.4 821.4C216.4 824.2 215.7 826.3 214.2 827.7C212.7 829.1 211 829.8 209 829.8C206.9 829.8 205.1 829.1 203.7 827.7C202.4 826.4 201.6 824.3 201.6 821.5ZM215.2 926.2H202.7V843.9H215.2V926.2Z" fill="#575654"/>
<path d="M279.2 842.3C282.9 842.3 286.1 842.6 289 843.2L287.3 854.8C283.9 854 280.9 853.7 278.3 853.7C271.6 853.7 265.9 856.4 261.2 861.8C256.5 867.2 254.1 873.9 254.1 882V926.2H241.6V843.9H251.9L253.3 859.1H253.9C257 853.7 260.6 849.6 264.9 846.7C269.3 843.8 274 842.3 279.2 842.3Z" fill="#575654"/>
<path d="M379.2 927.7C367 927.7 357.4 924 350.4 916.6C343.4 909.2 339.8 898.9 339.8 885.7C339.8 872.4 343.1 861.9 349.6 854.1C356.1 846.3 364.9 842.4 375.9 842.4C386.2 842.4 394.4 845.8 400.4 852.6C406.4 859.4 409.4 868.3 409.4 879.5V887.4H352.7C352.9 897.1 355.4 904.4 360 909.4C364.6 914.4 371.2 916.9 379.6 916.9C388.5 916.9 397.2 915 405.9 911.3V922.4C401.5 924.3 397.3 925.7 393.4 926.5C389.5 927.3 384.7 927.7 379.2 927.7ZM375.8 852.8C369.2 852.8 363.9 855 360 859.3C356.1 863.6 353.8 869.6 353.1 877.2H396.1C396.1 869.3 394.3 863.3 390.8 859.1C387.3 854.9 382.3 852.8 375.8 852.8Z" fill="#575654"/>
<path d="M487 926.2V872.9C487 866.2 485.5 861.2 482.4 857.9C479.3 854.6 474.6 852.9 468.1 852.9C459.5 852.9 453.2 855.2 449.2 859.9C445.2 864.6 443.2 872.2 443.2 883V926.2H430.7V843.9H440.8L442.8 855.2H443.4C446 851.1 449.5 848 454.1 845.8C458.7 843.6 463.8 842.5 469.5 842.5C479.4 842.5 486.9 844.9 491.9 849.7C496.9 854.5 499.4 862.1 499.4 872.6V926.3H487V926.2Z" fill="#575654"/>
<path d="M551.7 917.4C553.9 917.4 556 917.2 558.1 916.9C560.2 916.6 561.8 916.2 563 915.9V925.4C561.6 926.1 559.7 926.6 557 927C554.4 927.4 552 927.6 549.9 927.6C534 927.6 526 919.2 526 902.4V853.4H514.2V847.4L526 842.2L531.3 824.6H538.5V843.7H562.4V853.4H538.5V902C538.5 907 539.7 910.8 542 913.4C544.4 916.1 547.6 917.4 551.7 917.4Z" fill="#575654"/>
<path d="M646.7 926.2L631.6 877.9C630.6 874.9 628.9 868.2 626.3 857.8H625.7C623.7 866.6 621.9 873.3 620.4 878.1L604.8 926.3H590.4L567.9 844H581C586.3 864.7 590.4 880.4 593.1 891.3C595.9 902.1 597.5 909.4 597.9 913.2H598.5C599.1 910.3 599.9 906.7 601.2 902.1C602.4 897.6 603.5 894 604.4 891.3L619.5 844H633L647.7 891.3C650.5 899.9 652.4 907.2 653.4 913H654C654.2 911.2 654.7 908.4 655.6 904.7C656.5 900.9 661.7 880.7 671.3 844.1H684.2L661.4 926.4H646.7V926.2Z" fill="#575654"/>
<path d="M698.1 821.5C698.1 818.6 698.8 816.6 700.2 815.2C701.6 813.9 703.4 813.2 705.5 813.2C707.5 813.2 709.2 813.9 710.7 815.2C712.2 816.6 712.9 818.6 712.9 821.4C712.9 824.2 712.2 826.3 710.7 827.7C709.2 829.1 707.5 829.8 705.5 829.8C703.4 829.8 701.6 829.1 700.2 827.7C698.8 826.4 698.1 824.3 698.1 821.5ZM711.6 926.2H699.1V843.9H711.6V926.2Z" fill="#575654"/>
<path d="M770.9 927.7C759 927.7 749.8 924 743.2 916.7C736.7 909.4 733.4 899 733.4 885.6C733.4 871.8 736.7 861.2 743.4 853.7C750 846.2 759.5 842.4 771.8 842.4C775.8 842.4 779.7 842.8 783.7 843.7C787.7 844.6 790.8 845.6 793 846.7L789.2 857.3C786.4 856.2 783.4 855.3 780.2 854.6C776.9 853.9 774.1 853.5 771.6 853.5C754.9 853.5 746.5 864.2 746.5 885.5C746.5 895.6 748.5 903.4 752.6 908.8C756.7 914.2 762.7 916.9 770.7 916.9C777.6 916.9 784.6 915.4 791.8 912.5V923.5C786.2 926.2 779.3 927.7 770.9 927.7Z" fill="#575654"/>
<path d="M823.6 884C825.8 880.9 829 876.9 833.4 872L860 843.8H874.8L841.4 878.9L877.1 926.2H862L833 887.3L823.6 895.4V926.2H811.3V809.3H823.6V871.3C823.6 874.1 823.4 878.3 823 884.1H823.6V884Z" fill="#575654"/>
<path d="M926.8 927.7C914.6 927.7 905 924 898 916.6C891 909.2 887.4 898.9 887.4 885.7C887.4 872.4 890.7 861.9 897.2 854.1C903.7 846.3 912.5 842.4 923.5 842.4C933.8 842.4 942 845.8 948 852.6C954 859.4 957 868.3 957 879.5V887.4H900.3C900.5 897.1 903 904.4 907.6 909.4C912.2 914.4 918.8 916.9 927.2 916.9C936.1 916.9 944.8 915 953.5 911.3V922.4C949.1 924.3 944.9 925.7 941 926.5C937.1 927.3 932.4 927.7 926.8 927.7ZM923.4 852.8C916.8 852.8 911.5 855 907.6 859.3C903.7 863.6 901.4 869.6 900.7 877.2H943.7C943.7 869.3 941.9 863.3 938.4 859.1C934.9 854.9 929.9 852.8 923.4 852.8Z" fill="#575654"/>
<path d="M990.8 926.2H978.3V809.3H990.8V926.2Z" fill="#575654"/>
<path d="M1073.6 926.2V872.9C1073.6 866.2 1072.1 861.2 1069 857.9C1065.9 854.6 1061.2 852.9 1054.7 852.9C1046.1 852.9 1039.8 855.2 1035.8 859.9C1031.8 864.6 1029.8 872.2 1029.8 883V926.2H1017.3V843.9H1027.4L1029.4 855.2H1030C1032.6 851.1 1036.1 848 1040.7 845.8C1045.3 843.6 1050.4 842.5 1056.1 842.5C1066 842.5 1073.5 844.9 1078.5 849.7C1083.5 854.5 1086 862.1 1086 872.6V926.3H1073.6V926.2Z" fill="#575654"/>
<path d="M1204.7 903.7C1204.7 911.4 1201.8 917.3 1196.1 921.4C1190.4 925.6 1182.4 927.6 1172.1 927.6C1161.2 927.6 1152.7 925.9 1146.6 922.4V910.8C1150.6 912.8 1154.8 914.4 1159.3 915.5C1163.8 916.7 1168.2 917.2 1172.4 917.2C1178.9 917.2 1183.9 916.2 1187.4 914.1C1190.9 912 1192.7 908.9 1192.7 904.6C1192.7 901.4 1191.3 898.7 1188.5 896.4C1185.7 894.1 1180.3 891.4 1172.2 888.3C1164.5 885.4 1159.1 883 1155.9 880.8C1152.7 878.7 1150.3 876.3 1148.7 873.6C1147.1 870.9 1146.3 867.7 1146.3 863.9C1146.3 857.2 1149 851.9 1154.5 848C1160 844.1 1167.4 842.2 1177 842.2C1185.9 842.2 1194.5 844 1203 847.6L1198.6 857.7C1190.3 854.3 1182.8 852.6 1176.1 852.6C1170.2 852.6 1165.7 853.5 1162.7 855.4C1159.7 857.3 1158.2 859.8 1158.2 863.1C1158.2 865.3 1158.8 867.2 1159.9 868.7C1161 870.3 1162.8 871.7 1165.3 873.1C1167.8 874.5 1172.6 876.5 1179.7 879.2C1189.5 882.8 1196.1 886.3 1199.5 889.9C1203 893.7 1204.7 898.3 1204.7 903.7Z" fill="#575654"/>
<path d="M1296.1 884.9C1296.1 898.3 1292.7 908.8 1286 916.3C1279.2 923.8 1269.9 927.6 1258 927.6C1250.6 927.6 1244.1 925.9 1238.4 922.4C1232.7 918.9 1228.3 914 1225.2 907.5C1222.1 901 1220.5 893.5 1220.5 884.8C1220.5 871.4 1223.9 860.9 1230.6 853.4C1237.3 845.9 1246.6 842.2 1258.5 842.2C1270 842.2 1279.2 846 1286 853.7C1292.7 861.5 1296.1 871.9 1296.1 884.9ZM1233.4 884.9C1233.4 895.4 1235.5 903.4 1239.7 908.9C1243.9 914.4 1250.1 917.2 1258.3 917.2C1266.5 917.2 1272.7 914.5 1276.9 909C1281.1 903.5 1283.2 895.5 1283.2 884.9C1283.2 874.4 1281.1 866.5 1276.9 861C1272.7 855.6 1266.4 852.8 1258.2 852.8C1250 852.8 1243.9 855.5 1239.7 860.8C1235.4 866.3 1233.4 874.3 1233.4 884.9Z" fill="#575654"/>
<path d="M1355.1 853.5H1334.1V926.1H1321.6V853.5H1306.9V847.9L1321.6 843.4V838.8C1321.6 818.6 1330.4 808.5 1348.1 808.5C1352.5 808.5 1357.6 809.4 1363.4 811.1L1360.2 821.1C1355.4 819.5 1351.3 818.8 1347.9 818.8C1343.2 818.8 1339.7 820.4 1337.5 823.5C1335.2 826.6 1334.1 831.7 1334.1 838.6V843.9H1355.1V853.5V853.5Z" fill="#575654"/>
<path d="M1396.7 917.4C1398.9 917.4 1401 917.2 1403.1 916.9C1405.2 916.6 1406.8 916.2 1408 915.9V925.4C1406.6 926.1 1404.7 926.6 1402 927C1399.4 927.4 1397 927.6 1394.9 927.6C1379 927.6 1371 919.2 1371 902.4V853.4H1359.2V847.4L1371 842.2L1376.3 824.6H1383.5V843.7H1407.4V853.4H1383.5V902C1383.5 907 1384.7 910.8 1387 913.4C1389.3 916.1 1392.6 917.4 1396.7 917.4Z" fill="#575654"/>
<path d="M1491.6 926.2L1476.5 877.9C1475.5 874.9 1473.8 868.2 1471.2 857.8H1470.6C1468.6 866.6 1466.8 873.3 1465.3 878.1L1449.8 926.3H1435.4L1412.9 844H1426C1431.3 864.7 1435.4 880.4 1438.1 891.3C1440.9 902.1 1442.5 909.4 1442.9 913.2H1443.5C1444.1 910.3 1444.9 906.7 1446.2 902.1C1447.4 897.6 1448.5 894 1449.4 891.3L1464.5 844H1478L1492.7 891.3C1495.5 899.9 1497.4 907.2 1498.4 913H1499C1499.2 911.2 1499.7 908.4 1500.6 904.7C1501.5 900.9 1506.7 880.7 1516.3 844.1H1529.2L1506.4 926.4H1491.6V926.2Z" fill="#575654"/>
<path d="M1594.7 926.2L1592.2 914.5H1591.6C1587.5 919.7 1583.4 923.2 1579.3 925C1575.2 926.8 1570.1 927.7 1564 927.7C1555.8 927.7 1549.4 925.6 1544.8 921.4C1540.2 917.2 1537.9 911.2 1537.9 903.4C1537.9 886.8 1551.2 878.1 1577.8 877.3L1591.8 876.8V871.7C1591.8 865.2 1590.4 860.5 1587.6 857.4C1584.8 854.3 1580.4 852.8 1574.3 852.8C1567.4 852.8 1559.7 854.9 1551 859.1L1547.2 849.6C1551.3 847.4 1555.7 845.7 1560.5 844.4C1565.3 843.1 1570.2 842.5 1575 842.5C1584.8 842.5 1592.1 844.7 1596.8 849C1601.5 853.4 1603.9 860.3 1603.9 870V926.2H1594.7ZM1566.5 917.4C1574.3 917.4 1580.4 915.3 1584.8 911C1589.2 906.7 1591.4 900.8 1591.4 893.1V885.7L1578.9 886.2C1569 886.6 1561.8 888.1 1557.5 890.8C1553.1 893.5 1550.9 897.8 1550.9 903.5C1550.9 908 1552.3 911.4 1555 913.8C1557.8 916.2 1561.6 917.4 1566.5 917.4Z" fill="#575654"/>
<path d="M1667.2 842.3C1670.9 842.3 1674.1 842.6 1677 843.2L1675.3 854.8C1671.9 854 1668.9 853.7 1666.3 853.7C1659.6 853.7 1653.9 856.4 1649.2 861.8C1644.5 867.2 1642.1 873.9 1642.1 882V926.2H1629.6V843.9H1639.9L1641.3 859.1H1641.9C1645 853.7 1648.6 849.6 1652.9 846.7C1657.3 843.8 1662 842.3 1667.2 842.3Z" fill="#575654"/>
<path d="M1727.2 927.7C1715 927.7 1705.4 924 1698.4 916.6C1691.4 909.2 1687.8 898.9 1687.8 885.7C1687.8 872.4 1691.1 861.9 1697.6 854.1C1704.1 846.3 1712.9 842.4 1723.9 842.4C1734.2 842.4 1742.4 845.8 1748.4 852.6C1754.4 859.4 1757.4 868.3 1757.4 879.5V887.4H1700.7C1700.9 897.1 1703.4 904.4 1708 909.4C1712.6 914.4 1719.2 916.9 1727.6 916.9C1736.5 916.9 1745.2 915 1753.9 911.3V922.4C1749.5 924.3 1745.3 925.7 1741.4 926.5C1737.5 927.3 1732.8 927.7 1727.2 927.7ZM1723.8 852.8C1717.2 852.8 1711.9 855 1708 859.3C1704.1 863.6 1701.8 869.6 1701.1 877.2H1744.1C1744.1 869.3 1742.3 863.3 1738.8 859.1C1735.4 854.9 1730.3 852.8 1723.8 852.8Z" fill="#575654"/>
<path d="M1834.8 949.8H1765.2V940H1834.8V949.8Z" fill="#575654"/>
</svg>
