<svg width="208" height="51" viewBox="0 0 208 51" fill="none" xmlns="http://www.w3.org/2000/svg">
<path d="M33.5 27.03C33.54 27.7 33.24 28.32 32.64 28.79C31.09 30.01 29.04 29.13 28.68 27.07C28.56 26.39 28.31 25.88 27.54 26C26.81 26.11 26.6 26.68 26.72 27.35C27 29.02 27.72 30.4 29.45 31.01C30.01 31.2 30.25 31.45 30.18 32.04C30.11 32.7 30.39 33.16 31.12 33.14C31.77 33.12 32.08 32.69 32 32.09C31.92 31.45 32.21 31.21 32.79 30.99C34.64 30.27 35.67 28.54 35.42 26.52C35.2 24.79 34.2 23.22 32.16 22.85C31.68 22.76 31.19 22.73 30.71 22.62C29.67 22.39 28.91 21.83 28.71 20.74C28.52 19.71 28.92 18.92 29.8 18.35C31.25 17.42 33.14 18.3 33.46 20.07C33.58 20.76 33.82 21.38 34.64 21.26C35.46 21.14 35.56 20.46 35.43 19.78C35.15 18.24 34.49 16.93 32.88 16.37C32.2 16.13 31.9 15.83 31.99 15.11C32.07 14.49 31.69 14.08 31.06 14.09C30.44 14.1 30.06 14.5 30.16 15.13C30.28 15.89 29.86 16.12 29.23 16.38C27.54 17.06 26.45 19.05 26.71 20.81C27.05 23.11 28.47 24.4 30.9 24.64C32.57 24.79 33.48 25.6 33.5 27.03Z" fill="#2585C7"/>
<path d="M4.87002 40.05C2.22002 37.75 0.460023 34.97 0.170023 31.44C-0.00997745 29.28 0.430022 27.22 1.48002 25.31C3.79002 21.11 7.38002 18.83 12.29 18.64C13.91 18.58 13.93 18.6 13.73 17.05C13.09 12.05 14.88 7.90004 18.52 4.51004C23.65 -0.25996 31.33 -1.04996 37.41 2.49004C40.77 4.45004 43.05 7.31004 44.32 10.91C44.64 11.82 44.91 12.2 46.03 11.98C49.17 11.36 52.24 11.79 55.16 13.08C55.68 13.31 56 13.18 56.41 12.96C58.97 11.55 61.71 10.75 64.67 10.7C65.26 10.69 65.77 10.68 65.82 11.41C65.87 12.18 65.29 12.22 64.75 12.23C62.48 12.3 60.32 12.78 58.27 13.77C51.98 16.81 48.57 23 49.47 29.82C49.66 31.27 49.53 31.48 48.04 31.48C45.47 31.48 43.08 31.99 40.89 33.37C35.44 36.78 33.67 43.63 36.93 49.09C37.32 49.74 37.41 50.22 36.84 50.75H36.16C34.45 48.65 33.9 46.18 33.87 43.59C33.86 42.66 33.57 42.49 32.71 42.5C30.05 42.54 27.4 42.51 24.74 42.5L24.5 42.51L7.38002 42.22L5.05002 40.21L4.87002 40.05Z" fill="#2986C8"/>
<path d="M33.5 27.03C33.47 25.61 32.57 24.79 30.94 24.64C28.52 24.41 27.1 23.11 26.75 20.81C26.49 19.04 27.57 17.06 29.27 16.38C29.9 16.13 30.32 15.89 30.2 15.13C30.1 14.5 30.48 14.1 31.1 14.09C31.72 14.08 32.1 14.49 32.03 15.11C31.94 15.83 32.24 16.13 32.92 16.37C34.53 16.93 35.18 18.24 35.47 19.78C35.6 20.46 35.5 21.14 34.68 21.26C33.85 21.38 33.62 20.76 33.5 20.07C33.18 18.29 31.29 17.42 29.84 18.35C28.96 18.91 28.57 19.71 28.75 20.74C28.95 21.83 29.71 22.38 30.75 22.62C31.23 22.73 31.72 22.76 32.2 22.85C34.24 23.22 35.24 24.79 35.46 26.52C35.71 28.54 34.69 30.26 32.83 30.99C32.25 31.22 31.95 31.45 32.04 32.09C32.12 32.7 31.81 33.13 31.16 33.14C30.43 33.16 30.14 32.7 30.22 32.04C30.29 31.45 30.04 31.21 29.49 31.01C27.75 30.41 27.03 29.03 26.76 27.35C26.65 26.67 26.85 26.11 27.58 26C28.34 25.88 28.6 26.39 28.72 27.07C29.08 29.13 31.12 30.01 32.68 28.79C33.24 28.31 33.54 27.69 33.5 27.03Z" fill="#FCFDFE"/>
<path d="M68.82 21.0601V41.6301H64.25V21.0601H68.82Z" fill="#2C445F"/>
<path d="M72.13 30.0801C72.13 28.7701 72.13 27.3301 72.1 26.1901H76.64C76.73 26.5901 76.8 27.6601 76.82 28.1601C77.4 27.1901 78.77 25.8301 81.73 25.8301C85.13 25.8301 87.34 27.9301 87.34 31.8101V41.6301H82.65V32.2801C82.65 30.5401 82.02 29.2901 79.95 29.2901C77.96 29.2901 76.82 30.3001 76.82 33.0301V41.6401H72.13V30.0801V30.0801Z" fill="#2C445F"/>
<path d="M105.33 36.6401C104.76 39.2101 102.83 41.9901 97.92 41.9901C92.79 41.9901 90.15 38.6601 90.15 34.0201C90.15 29.4601 93.12 25.8301 98.14 25.8301C103.7 25.8301 105.24 29.5701 105.33 31.3101H100.87C100.59 30.0501 99.83 29.1701 98.04 29.1701C95.95 29.1701 94.77 30.8801 94.77 33.8801C94.77 37.1701 96.02 38.6701 98.02 38.6701C99.59 38.6701 100.43 37.8001 100.84 36.6401H105.33Z" fill="#2C445F"/>
<path d="M107.86 30.3698C107.86 28.8398 107.86 27.4698 107.83 26.1798H112.14C112.2 26.5298 112.26 28.0598 112.26 28.8898C112.96 27.1298 114.65 25.8398 117.35 25.8198V29.8998C114.16 29.8198 112.26 30.6498 112.26 34.8898V41.6198H107.87V30.3698H107.86Z" fill="#2C445F"/>
<path d="M122.82 35.0898C122.82 37.0198 123.88 38.6398 126.2 38.6398C128.14 38.6398 128.7 37.9198 129.14 36.9898H133.81C133.21 38.8798 131.37 41.9898 126.08 41.9898C120.53 41.9898 118.13 38.1798 118.13 34.1298C118.13 29.2798 120.84 25.8198 126.25 25.8198C132.03 25.8198 134 29.6598 134 33.5198C134 34.0398 134 34.6598 133.94 35.0998H122.82V35.0898ZM129.32 32.1798C129.29 30.3798 128.64 29.0998 126.37 29.0998C124.14 29.0998 123.1 30.2798 122.92 32.1798H129.32Z" fill="#2C445F"/>
<path d="M161.24 35.0898C161.24 37.0198 162.3 38.6398 164.62 38.6398C166.56 38.6398 167.12 37.9198 167.56 36.9898H172.23C171.63 38.8798 169.79 41.9898 164.5 41.9898C158.95 41.9898 156.55 38.1798 156.55 34.1298C156.55 29.2798 159.26 25.8198 164.67 25.8198C170.45 25.8198 172.42 29.6598 172.42 33.5198C172.42 34.0398 172.42 34.6598 172.36 35.0998H161.24V35.0898ZM167.74 32.1798C167.71 30.3798 167.06 29.0998 164.79 29.0998C162.56 29.0998 161.52 30.2798 161.34 32.1798H167.74Z" fill="#2986C8"/>
<path d="M137.53 21.96H145.57C151.48 21.96 155.34 25.8 155.34 31.72C155.34 37.56 151.59 41.98 145.39 41.98H137.54V21.96H137.53ZM141.92 38.48H145.21C149.1 38.48 150.82 35.63 150.82 31.73C150.82 28.46 149.21 25.46 145.24 25.46H141.93V38.48H141.92Z" fill="#2986C8"/>
<path d="M178.56 26.1899C180.16 31.4199 181.5 35.9899 181.83 37.8499H181.86C182.33 35.2999 183.98 30.6499 185.45 26.1899H190.09L184.14 41.6299H179.24L173.54 26.1899H178.56Z" fill="#2986C8"/>
<path d="M207.35 33.8801C207.35 38.5501 204.36 41.9901 199.13 41.9901C194.01 41.9901 191.02 38.5701 191.02 33.9601C191.02 29.1901 194.1 25.8301 199.35 25.8301C204.2 25.8301 207.35 29.0401 207.35 33.8801ZM195.65 33.9101C195.65 36.8801 197.02 38.6401 199.22 38.6401C201.46 38.6401 202.7 36.8801 202.7 33.9301C202.7 30.7001 201.43 29.1701 199.15 29.1701C197.04 29.1701 195.65 30.6401 195.65 33.9101Z" fill="#2986C8"/>
<path d="M18.42 37.26C18.51 37.25 18.59 37.23 18.68 37.22C18.7 37.22 18.72 37.22 18.74 37.22C19.49 37.2 20.16 37.25 20.75 37.37C20.77 37.37 20.79 37.38 20.81 37.38C21.99 37.7 23.01 38.4 23.72 39.34L23.73 39.35C24.19 40.08 24.51 41.01 24.71 42.16C24.72 42.2 24.72 42.24 24.72 42.28C24.61 45.58 22.35 47.73 18.83 47.77C18.52 47.77 18.21 47.78 17.9 47.78C14.8 47.81 11.69 47.81 8.58001 47.78C8.17001 47.78 7.76001 47.77 7.35001 47.77C5.78001 47.76 4.60001 47.18 3.84001 46.33C3.24001 45.59 2.88 44.65 2.88 43.63C2.88 42.37 3.43 41.24 4.3 40.44C4.51 40.25 4.75001 40.07 5.00001 39.92C5.15001 39.83 5.31001 39.75 5.48001 39.67C5.91001 39.47 6.38001 39.35 6.87001 39.3C7.14001 39.27 7.34001 39.05 7.32001 38.78C7.32001 38.78 7.32001 38.78 7.32001 38.77C7.27001 37.67 7.54001 36.65 8.08001 35.78C8.66001 34.84 9.55001 34.08 10.7 33.59C12.56 32.79 15.16 33.35 16.7 34.85C17.19 35.33 17.49 35.9 17.68 36.54C17.69 36.56 17.69 36.58 17.7 36.6L17.88 36.98C17.97 37.19 18.19 37.3 18.42 37.26Z" fill="#CFDCE8"/>
</svg>
