<?xml version="1.0" encoding="UTF-8" standalone="no"?>
<!-- Created with Inkscape (http://www.inkscape.org/) -->

<svg
   version="1.1"
   id="svg2"
   xml:space="preserve"
   width="1464.3199"
   height="190.09332"
   viewBox="0 0 1464.3199 190.09332"
   sodipodi:docname="inspeerity_Logo_eps.eps"
   xmlns:inkscape="http://www.inkscape.org/namespaces/inkscape"
   xmlns:sodipodi="http://sodipodi.sourceforge.net/DTD/sodipodi-0.dtd"
   xmlns="http://www.w3.org/2000/svg"
   xmlns:svg="http://www.w3.org/2000/svg"><defs
     id="defs6" /><sodipodi:namedview
     id="namedview4"
     pagecolor="#ffffff"
     bordercolor="#666666"
     borderopacity="1.0"
     inkscape:pageshadow="2"
     inkscape:pageopacity="0.0"
     inkscape:pagecheckerboard="0" /><g
     id="g8"
     inkscape:groupmode="layer"
     inkscape:label="ink_ext_XXXXXX"
     transform="matrix(1.3333333,0,0,-1.3333333,0,190.09333)"><g
       id="g10"
       transform="scale(0.1)"><path
         d="M 19.8555,998.586 H 329.848 V 17.9688 H 19.8555 V 998.586"
         style="fill:#231f20;fill-opacity:1;fill-rule:nonzero;stroke:none"
         id="path12" /><path
         d="M 9650.34,1288.76 H 8556.25 v -270.43 h 385.81 V 18 h 320.88 v 1000.33 h 387.4 v 270.43"
         style="fill:#231f20;fill-opacity:1;fill-rule:nonzero;stroke:none"
         id="path14" /><path
         d="m 10618.3,1288.76 -277.5,-499.28 -279.4,499.28 h -364.1 l 481.2,-841.791 V 18 h 320.9 v 428.969 l 483,841.791 h -364.1"
         style="fill:#231f20;fill-opacity:1;fill-rule:nonzero;stroke:none"
         id="path16" /><path
         d="m 0,1250.91 c 0,95.51 79.2969,174.79 173.051,174.79 95.492,0 171.148,-79.28 171.148,-174.79 0,-84.02 -56.363,-153.34 -133.16,-170.69 H 135.496 C 59.1328,1097.57 0,1166.89 0,1250.91 v 0"
         style="fill:#72c82c;fill-opacity:1;fill-rule:nonzero;stroke:none"
         id="path18" /><path
         d="M 1411.36,1288.76 V 592.949 L 708.434,1288.76 H 556.992 V 18 H 875.953 V 713.828 L 1578.92,18 h 153.33 v 1270.76 h -320.89"
         style="fill:#231f20;fill-opacity:1;fill-rule:nonzero;stroke:none"
         id="path20" /><path
         d="m 2490.96,796.707 c -178.42,39.551 -239.72,72.016 -239.72,136.945 0,57.7 52.32,99.138 151.45,99.138 115.37,0 266.82,-37.813 380.31,-82.888 l 129.71,250.438 c -129.71,52.33 -293.78,104.63 -501.03,104.63 -299.12,0 -483.08,-165.8 -483.08,-398.4 0,-263.074 210.9,-333.328 475.85,-394.672 174.93,-39.675 230.7,-75.8 230.7,-135.187 0,-68.59 -61.29,-104.531 -169.41,-104.531 -149.57,0 -279.27,16.269 -439.74,91.922 L 1910.65,122.469 C 2112.56,21.5898 2231.4,0 2455.02,0 c 302.76,0 502.77,151.309 502.77,405.52 0,237.976 -182.06,329.902 -466.83,391.187 v 0"
         style="fill:#231f20;fill-opacity:1;fill-rule:nonzero;stroke:none"
         id="path22" /><path
         d="m 3458.98,571.355 v 446.975 h 162.18 c 174.79,0 234.34,-111.76 234.34,-227.111 0,-117.137 -73.92,-219.864 -264.96,-219.864 z M 3139.82,1288.76 V 18 h 319.16 v 292.039 h 163.92 c 333.47,0 567.83,144.176 567.83,504.621 0,247.01 -131.62,474.1 -515.51,474.1 h -535.4"
         style="fill:#231f20;fill-opacity:1;fill-rule:nonzero;stroke:none"
         id="path24" /><path
         d="M 5317.27,520.887 V 784.082 H 4437.68 V 520.887 Z m 108.16,767.873 H 4329.56 V 1018.33 H 5425.43 Z M 4320.42,288.449 V 18 H 5434.4 V 288.449 H 4320.42"
         style="fill:#231f20;fill-opacity:1;fill-rule:nonzero;stroke:none"
         id="path26" /><path
         d="M 5928.33,288.449 V 502.77 h 547.99 v 263.214 h -547.99 v 252.346 h 659.73 v 270.43 H 5618.32 V 18 h 1007.57 v 270.449 h -697.56"
         style="fill:#231f20;fill-opacity:1;fill-rule:nonzero;stroke:none"
         id="path28" /><path
         d="m 7132.28,1018.33 h 211.03 c 174.78,0 234.21,-111.76 234.21,-227.111 0,-117.137 -73.92,-221.602 -264.94,-221.602 h -180.3 z M 7570.42,18 h 382.04 l -282.91,355.051 c 162.18,79.316 243.34,228.851 243.34,441.609 0,247.01 -131.6,474.1 -515.52,474.1 H 6813.29 V 18 h 318.99 v 292.039 h 192.91 c 8.98,0 19.85,0 27.1,1.742 L 7570.42,18"
         style="fill:#231f20;fill-opacity:1;fill-rule:nonzero;stroke:none"
         id="path30" /><path
         d="m 8087.68,1425.7 h 309.98 V 445.23 h -309.98 v 980.47"
         style="fill:#231f20;fill-opacity:1;fill-rule:nonzero;stroke:none"
         id="path32" /><path
         d="M 8067.82,192.789 C 8067.82,97.25 8147.1,18 8240.87,18 c 95.51,0 171.17,79.25 171.17,174.789 0,84.031 -56.38,153.301 -133.2,170.699 h -75.5 C 8126.96,346.09 8067.82,276.82 8067.82,192.789 v 0"
         style="fill:#72c82c;fill-opacity:1;fill-rule:nonzero;stroke:none"
         id="path34" /></g></g></svg>
