<svg xmlns="http://www.w3.org/2000/svg" xmlns:xlink="http://www.w3.org/1999/xlink" width="3981" height="1121" viewBox="0 0 3981 1121"><defs><style>.a{clip-path:url(#a);}.b{fill:#eb0055;}.c{clip-path:url(#e);}.d{clip-path:url(#f);}</style><clipPath id="a"><rect width="3981" height="1121"/></clipPath><clipPath id="e"><rect width="3981" height="1121" transform="translate(-3547 -383.5)"/></clipPath><clipPath id="f"><rect width="3981" height="1121" transform="translate(-3819.2 -383.5)"/></clipPath></defs><g id="l" class="a"><g class="a"><path class="b" d="M1727.5,1108H1575.6L1338.5,505.3h170.4l142,405.1h1.2s79.1-230.7,105-299.3c13-34.3,31.8-70.6,101.9-70.6h90.8Z"/></g><g class="a"><path class="b" d="M1173.6,806.7c0-98.8-66.7-166.7-156.9-166.7-93.9,0-156.9,71.6-156.9,166.7,0,93.9,65.5,166.7,156.9,166.7C1104.5,973.4,1173.6,904.2,1173.6,806.7Zm-476.7,0c0-180.3,128.4-311.2,319.9-311.2,187.7,0,321.1,126,321.1,311.2,0,185.3-133.4,311.2-321.1,311.2C825.3,1117.9,696.9,987,696.9,806.7Z"/></g><g class="a"><path class="b" d="M2249.4,806.7c0-185.3,130.9-311.2,317.4-311.2,96.3,0,195.1,38.3,255.7,114.8l-108.7,93.9c-32.1-37.1-79.1-64.2-140.8-64.2-96.4,0-160.6,67.9-160.6,165.5,0,98.8,66.7,168,161.8,168,64.3,0,112.4-29.6,140.8-61.7l109.9,97.6c-51.9,60.5-144.5,108.7-265.6,108.7C2380.3,1117.9,2249.4,991.9,2249.4,806.7Z"/></g><g class="a"><path class="b" d="M3026.9,742.4h265.6c-16-63-59.3-105-129.7-105C3097.3,637.5,3045.4,673.3,3026.9,742.4Zm422.4,116.2H3025.7c19.8,71.6,76.6,116.1,154.4,116.1,64.2,1.2,111.2-27.2,144.5-67.9l105,97.6C3377.7,1069.9,3290,1118,3169,1118c-176.6,0-310-123.5-310-312.5,0-182.8,127.2-310,298.9-310,176.6,0,295.2,128.4,295.2,305.1C3453,820.3,3453,848.6,3449.3,858.6Z"/></g><g class="c" transform="translate(3547 383.5)"><rect class="b" width="161.8" height="724.6"/></g><g class="d" transform="translate(3819.2 383.5)"><rect class="b" width="161.8" height="724.6"/></g><g class="a"><path class="b" d="M613.5,383.5v724.8H437L172.5,708.4v399.9H0V383.5H172.5L440.1,812.8V383.5Z"/></g><g class="a"><path class="b" d="M1981.3,718.1V1108h161.8V721.9c-3.1,1.7-35.7,20.4-78.1,20.4C2028.5,742.3,1993.1,726.2,1981.3,718.1Z"/></g><g class="a"><path class="b" d="M2098.5,340.1C2174.4,461.9,2062.9,513,2038,524c-23.9,10.5-36.8,35.1-36.8,57.8a63.632,63.632,0,0,0,63.6,63.6c59.2,0,112.4-88.2,112.4-155.7C2177.1,399.7,2098.5,340.1,2098.5,340.1Z"/></g><g class="a"><path class="b" d="M2317.2,334.3C2317.2,176.1,2179.8,4,2066.3,4c-66.4,0-120.4,53.7-120.4,120.1A120.14,120.14,0,0,0,2038.1,241c47.4,11.6,249.4,46.1,206.2,328.5C2244.3,569.5,2317.2,474.7,2317.2,334.3Z"/></g><g class="a"><path class="b" d="M1649.3,607.5c-22.4-256.4,167.3-330.4,277.2-330.4,81.4,0,118.2,50.5,118.2,101.5,0,70.2-72.6,118.5-135.2,92.1C1832.6,438.1,1691.3,421.8,1649.3,607.5Z"/></g></g></svg>