<svg width="194" height="39" viewBox="0 0 194 39" fill="none" xmlns="http://www.w3.org/2000/svg">
    <g clip-path="url(#clip0_1_122)">
    <path d="M15.2844 0.590206C14.0984 0.730389 13.3151 1.05503 12.7183 1.65266C11.9575 2.43473 11.7113 3.22419 11.6591 5.14252L11.6218 6.49269H13.7105H15.7991L15.8439 6.24921C15.9184 5.86557 16.1497 5.56305 16.5152 5.38598C17.0597 5.12776 18.8127 5.07611 24.9891 5.113C30.8299 5.1499 30.8 5.1499 31.4042 5.54834C31.9189 5.89506 31.9562 6.04264 32.0083 7.89459C32.0383 8.80945 32.0905 9.66534 32.1354 9.79814C32.3741 10.5212 33.0676 11.2516 33.7615 11.5025C34.1045 11.6353 34.3434 11.6574 35.2085 11.6574H36.2528V8.61024C36.2528 3.71116 36.0663 2.6118 35.0669 1.67479C34.3881 1.04027 33.6346 0.745147 32.2622 0.590206C31.4713 0.50167 16.0453 0.50167 15.2844 0.590206Z" fill="url(#paint0_linear_1_122)"/>
    <path d="M8.35457 7.60689C7.04175 7.74704 6.24355 8.05694 5.60954 8.68406C5.19925 9.08248 4.87104 9.69487 4.71438 10.3294C4.55774 10.9565 4.47568 12.2846 4.49061 13.834C4.51298 15.5826 4.45331 15.9958 4.08031 16.6082C3.77448 17.1172 3.23741 17.4124 2.50637 17.464L2.01406 17.5083V19.6627V21.8097L2.58844 21.8983C3.52834 22.0459 3.98335 22.4074 4.29665 23.2411C4.39361 23.5068 4.43091 24.0159 4.47568 25.7866C4.55774 28.7009 4.70691 29.4831 5.35588 30.4052C6.06455 31.416 7.05663 31.7775 9.3094 31.8513L10.5924 31.8957L10.5775 29.8077L10.5551 27.727L10.2642 27.6311C9.8763 27.4982 9.59286 27.2104 9.39146 26.7531C9.2497 26.421 9.21989 26.1922 9.16769 24.6798C9.10055 22.9239 9.00354 22.1713 8.735 21.463C8.45158 20.7104 7.89956 20.135 7.22078 19.8619C6.90748 19.7365 6.86271 19.6553 7.08651 19.589C7.45199 19.4783 8.13079 18.9323 8.37694 18.5708C8.95133 17.7075 9.07816 17.0583 9.17513 14.6087C9.2497 12.7125 9.30195 12.4248 9.67488 12.0559C10.0106 11.7239 10.4209 11.6575 12.1589 11.6575C13.4792 11.6575 13.6881 11.6427 14.0611 11.5025C14.6354 11.2885 15.2173 10.75 15.4858 10.1671C15.6872 9.73179 15.7021 9.62848 15.7245 8.61029L15.7544 7.5257L12.3678 7.53305C10.5104 7.54048 8.70519 7.57733 8.35457 7.60689Z" fill="url(#paint1_linear_1_122)"/>
    <path d="M37.26 7.60689C37.2375 7.66588 37.23 8.6103 37.2375 9.70225L37.26 11.687L37.5805 11.7534C37.9685 11.8272 38.3415 12.1739 38.4758 12.5871C38.5355 12.7568 38.6026 13.5758 38.6398 14.6087C38.737 17.0583 38.8638 17.7075 39.438 18.5708C39.6842 18.9323 40.363 19.4783 40.7285 19.589C40.945 19.6554 40.915 19.7291 40.6391 19.8324C40.2736 19.9652 39.7141 20.4006 39.4605 20.7399C38.9234 21.4777 38.7295 22.4295 38.6473 24.6798C38.5951 26.1925 38.5727 26.4138 38.4236 26.7456C38.334 26.945 38.185 27.1884 38.0953 27.2844C37.7298 27.6754 37.603 27.6975 35.768 27.7418C34.112 27.7787 34.0373 27.7861 33.6271 27.9778C33.0826 28.2286 32.5678 28.7377 32.3142 29.2765C32.1352 29.6601 32.1129 29.8003 32.0905 30.7816L32.0608 31.8736H35.589C39.3486 31.8736 39.9528 31.8293 40.9747 31.4972C42.1458 31.1211 42.8768 30.1398 43.1677 28.5904C43.2349 28.2214 43.2945 27.1589 43.332 25.7866C43.3841 24.0084 43.4214 23.5068 43.5185 23.2411C43.8318 22.4 44.2867 22.0459 45.2266 21.8983L45.8009 21.8098V19.6627V17.5083L45.3085 17.4641C44.5775 17.4124 44.0405 17.1173 43.7347 16.6082C43.3692 16.0032 43.3245 15.6638 43.302 13.3544C43.2796 11.141 43.2199 10.5729 42.8993 9.73915C42.5785 8.92019 41.9296 8.27829 41.1015 7.96104C40.4898 7.73229 39.7066 7.60689 38.4386 7.55522C37.4911 7.51094 37.2972 7.51837 37.26 7.60689Z" fill="url(#paint2_linear_1_122)"/>
    <path d="M11.6665 31.6559C11.6889 35.057 11.7113 35.6622 11.8158 36.0606C12.2111 37.5216 13.0689 38.3404 14.5907 38.702C15.0606 38.8201 15.8886 38.8347 23.2063 38.857C28.5548 38.879 31.5759 38.8642 32.1204 38.8126C33.5974 38.6725 34.3656 38.3848 35.0742 37.7206C35.8351 37.005 36.1038 36.149 36.1634 34.1718L36.2081 32.9027L34.0972 32.9176L31.9936 32.9396L31.8965 33.2199C31.7624 33.6037 31.546 33.8177 31.0908 34.0168C30.7628 34.1571 30.5091 34.1938 29.5095 34.2381C27.846 34.3119 19.5437 34.3119 18.0743 34.2381C16.5749 34.1571 16.2691 34.0465 15.9707 33.4561C15.7917 33.0946 15.7842 33.0429 15.7842 31.4271V29.7671L15.5455 29.28C15.2546 28.6971 14.7846 28.2472 14.1953 27.9741C13.8149 27.797 13.6657 27.775 12.7035 27.7527L11.6367 27.7233L11.6665 31.6559Z" fill="url(#paint3_linear_1_122)"/>
    <path d="M51.472 16.496H51.52C51.616 16.192 51.776 15.856 52 15.488C52.224 15.12 52.52 14.784 52.888 14.48C53.256 14.16 53.696 13.896 54.208 13.688C54.736 13.48 55.336 13.376 56.008 13.376C56.952 13.376 57.768 13.552 58.456 13.904C59.16 14.256 59.736 14.728 60.184 15.32C60.648 15.912 60.992 16.6 61.216 17.384C61.44 18.168 61.552 18.992 61.552 19.856C61.552 20.8 61.44 21.664 61.216 22.448C60.992 23.232 60.648 23.912 60.184 24.488C59.736 25.048 59.16 25.488 58.456 25.808C57.768 26.128 56.952 26.288 56.008 26.288C54.984 26.288 54.072 26.064 53.272 25.616C52.472 25.168 51.888 24.44 51.52 23.432H51.472V30.416H50.56V13.664H51.472V16.496ZM56.008 25.496C56.808 25.496 57.496 25.344 58.072 25.04C58.664 24.736 59.144 24.328 59.512 23.816C59.896 23.304 60.176 22.712 60.352 22.04C60.544 21.352 60.64 20.624 60.64 19.856C60.64 19.152 60.552 18.464 60.376 17.792C60.2 17.104 59.928 16.496 59.56 15.968C59.192 15.424 58.712 14.992 58.12 14.672C57.544 14.336 56.84 14.168 56.008 14.168C55.192 14.168 54.496 14.328 53.92 14.648C53.344 14.968 52.872 15.392 52.504 15.92C52.152 16.448 51.896 17.056 51.736 17.744C51.576 18.416 51.496 19.12 51.496 19.856C51.496 20.592 51.568 21.304 51.712 21.992C51.856 22.664 52.096 23.264 52.432 23.792C52.784 24.304 53.248 24.72 53.824 25.04C54.416 25.344 55.144 25.496 56.008 25.496ZM65.0719 16.4H65.1439C65.2559 16 65.4559 15.624 65.7439 15.272C66.0479 14.92 66.4079 14.616 66.8239 14.36C67.2559 14.104 67.7279 13.912 68.2399 13.784C68.7679 13.64 69.3119 13.576 69.8719 13.592V14.504C69.3919 14.44 68.8399 14.488 68.2159 14.648C67.6079 14.808 67.0239 15.16 66.4639 15.704C66.2399 15.944 66.0399 16.176 65.8639 16.4C65.7039 16.624 65.5679 16.872 65.4559 17.144C65.3439 17.416 65.2559 17.72 65.1919 18.056C65.1279 18.392 65.0879 18.792 65.0719 19.256V26H64.1599V13.664H65.0719V16.4ZM70.4624 19.832C70.4624 18.952 70.5824 18.128 70.8224 17.36C71.0784 16.576 71.4464 15.888 71.9264 15.296C72.4064 14.704 72.9984 14.24 73.7024 13.904C74.4064 13.552 75.2144 13.376 76.1264 13.376C77.0384 13.376 77.8464 13.552 78.5504 13.904C79.2544 14.24 79.8464 14.704 80.3264 15.296C80.8064 15.888 81.1664 16.576 81.4064 17.36C81.6624 18.128 81.7904 18.952 81.7904 19.832C81.7904 20.712 81.6624 21.544 81.4064 22.328C81.1664 23.112 80.8064 23.8 80.3264 24.392C79.8464 24.968 79.2544 25.432 78.5504 25.784C77.8464 26.12 77.0384 26.288 76.1264 26.288C75.2144 26.288 74.4064 26.12 73.7024 25.784C72.9984 25.432 72.4064 24.968 71.9264 24.392C71.4464 23.8 71.0784 23.112 70.8224 22.328C70.5824 21.544 70.4624 20.712 70.4624 19.832ZM71.3744 19.832C71.3744 20.568 71.4784 21.28 71.6864 21.968C71.8944 22.64 72.1984 23.24 72.5984 23.768C72.9984 24.296 73.4944 24.72 74.0864 25.04C74.6784 25.344 75.3584 25.496 76.1264 25.496C76.8944 25.496 77.5744 25.344 78.1664 25.04C78.7584 24.72 79.2544 24.296 79.6544 23.768C80.0544 23.24 80.3584 22.64 80.5664 21.968C80.7744 21.28 80.8784 20.568 80.8784 19.832C80.8784 19.096 80.7744 18.392 80.5664 17.72C80.3584 17.032 80.0544 16.424 79.6544 15.896C79.2544 15.368 78.7584 14.952 78.1664 14.648C77.5744 14.328 76.8944 14.168 76.1264 14.168C75.3584 14.168 74.6784 14.328 74.0864 14.648C73.4944 14.952 72.9984 15.368 72.5984 15.896C72.1984 16.424 71.8944 17.032 71.6864 17.72C71.4784 18.392 71.3744 19.096 71.3744 19.832ZM94.609 13.664V25.352C94.609 26.04 94.529 26.704 94.369 27.344C94.209 28 93.929 28.576 93.529 29.072C93.145 29.568 92.609 29.96 91.921 30.248C91.233 30.552 90.361 30.704 89.305 30.704C88.649 30.704 88.033 30.632 87.457 30.488C86.881 30.36 86.377 30.144 85.945 29.84C85.513 29.552 85.161 29.16 84.889 28.664C84.633 28.184 84.489 27.584 84.457 26.864H85.369C85.417 27.408 85.553 27.872 85.777 28.256C86.001 28.64 86.289 28.952 86.641 29.192C87.009 29.448 87.417 29.632 87.865 29.744C88.313 29.856 88.793 29.912 89.305 29.912C90.153 29.912 90.857 29.784 91.417 29.528C91.993 29.272 92.449 28.936 92.785 28.52C93.121 28.12 93.353 27.656 93.481 27.128C93.625 26.616 93.697 26.096 93.697 25.568V22.736H93.649C93.217 23.648 92.625 24.344 91.873 24.824C91.137 25.304 90.241 25.544 89.185 25.544C88.273 25.544 87.481 25.392 86.809 25.088C86.153 24.768 85.601 24.336 85.153 23.792C84.721 23.232 84.393 22.584 84.169 21.848C83.961 21.112 83.857 20.312 83.857 19.448C83.857 18.632 83.969 17.856 84.193 17.12C84.433 16.384 84.777 15.744 85.225 15.2C85.673 14.64 86.225 14.2 86.881 13.88C87.553 13.544 88.321 13.376 89.185 13.376C90.161 13.376 91.057 13.624 91.873 14.12C92.705 14.616 93.297 15.32 93.649 16.232H93.697V13.664H94.609ZM89.185 14.168C88.433 14.168 87.777 14.32 87.217 14.624C86.673 14.928 86.217 15.328 85.849 15.824C85.497 16.32 85.225 16.888 85.033 17.528C84.857 18.152 84.769 18.792 84.769 19.448C84.769 20.168 84.857 20.856 85.033 21.512C85.225 22.152 85.505 22.712 85.873 23.192C86.257 23.672 86.721 24.056 87.265 24.344C87.825 24.616 88.465 24.752 89.185 24.752C89.937 24.752 90.593 24.608 91.153 24.32C91.713 24.032 92.177 23.64 92.545 23.144C92.929 22.648 93.209 22.088 93.385 21.464C93.577 20.824 93.673 20.152 93.673 19.448C93.673 18.76 93.577 18.096 93.385 17.456C93.209 16.816 92.929 16.256 92.545 15.776C92.177 15.28 91.713 14.888 91.153 14.6C90.593 14.312 89.937 14.168 89.185 14.168ZM98.6916 16.4H98.7636C98.8756 16 99.0756 15.624 99.3636 15.272C99.6676 14.92 100.028 14.616 100.444 14.36C100.876 14.104 101.348 13.912 101.86 13.784C102.388 13.64 102.932 13.576 103.492 13.592V14.504C103.012 14.44 102.46 14.488 101.836 14.648C101.228 14.808 100.644 15.16 100.084 15.704C99.8596 15.944 99.6596 16.176 99.4836 16.4C99.3236 16.624 99.1876 16.872 99.0756 17.144C98.9636 17.416 98.8756 17.72 98.8116 18.056C98.7476 18.392 98.7076 18.792 98.6916 19.256V26H97.7796V13.664H98.6916V16.4ZM112.655 23.552H112.607C112.463 23.92 112.255 24.272 111.983 24.608C111.711 24.928 111.375 25.216 110.975 25.472C110.591 25.728 110.151 25.928 109.655 26.072C109.159 26.216 108.615 26.288 108.023 26.288C106.711 26.288 105.695 26.008 104.975 25.448C104.255 24.872 103.895 23.992 103.895 22.808C103.895 22.088 104.039 21.504 104.327 21.056C104.615 20.592 104.975 20.232 105.407 19.976C105.855 19.704 106.343 19.512 106.871 19.4C107.415 19.288 107.935 19.208 108.431 19.16L109.847 19.04C110.503 18.992 111.015 18.92 111.383 18.824C111.767 18.712 112.055 18.568 112.247 18.392C112.439 18.2 112.559 17.96 112.607 17.672C112.655 17.384 112.679 17.024 112.679 16.592C112.679 16.256 112.615 15.944 112.487 15.656C112.359 15.368 112.159 15.112 111.887 14.888C111.615 14.664 111.263 14.488 110.831 14.36C110.399 14.232 109.871 14.168 109.247 14.168C108.143 14.168 107.247 14.44 106.559 14.984C105.887 15.528 105.519 16.352 105.455 17.456H104.543C104.607 16.096 105.039 15.08 105.839 14.408C106.655 13.72 107.807 13.376 109.295 13.376C110.783 13.376 111.863 13.672 112.535 14.264C113.223 14.84 113.567 15.6 113.567 16.544V23.72C113.567 23.896 113.567 24.072 113.567 24.248C113.583 24.424 113.615 24.584 113.663 24.728C113.711 24.872 113.791 24.992 113.903 25.088C114.015 25.168 114.175 25.208 114.383 25.208C114.543 25.208 114.767 25.184 115.055 25.136V25.904C114.815 25.968 114.567 26 114.311 26C113.943 26 113.647 25.952 113.423 25.856C113.215 25.76 113.055 25.632 112.943 25.472C112.831 25.312 112.751 25.128 112.703 24.92C112.671 24.696 112.655 24.456 112.655 24.2V23.552ZM112.655 18.992C112.431 19.264 112.087 19.448 111.623 19.544C111.175 19.64 110.671 19.712 110.111 19.76L108.575 19.904C108.127 19.952 107.679 20.024 107.231 20.12C106.783 20.2 106.375 20.344 106.007 20.552C105.655 20.76 105.367 21.048 105.143 21.416C104.919 21.768 104.807 22.232 104.807 22.808C104.807 23.72 105.095 24.4 105.671 24.848C106.247 25.28 107.039 25.496 108.047 25.496C109.087 25.496 109.911 25.312 110.519 24.944C111.127 24.56 111.591 24.128 111.911 23.648C112.231 23.152 112.431 22.68 112.511 22.232C112.607 21.768 112.655 21.456 112.655 21.296V18.992ZM116.975 13.664H117.887V16.184H117.935C118.031 15.8 118.199 15.44 118.439 15.104C118.679 14.752 118.967 14.448 119.303 14.192C119.655 13.936 120.039 13.736 120.455 13.592C120.887 13.448 121.335 13.376 121.799 13.376C122.391 13.376 122.903 13.456 123.335 13.616C123.767 13.76 124.135 13.96 124.439 14.216C124.743 14.456 124.983 14.736 125.159 15.056C125.335 15.36 125.455 15.672 125.519 15.992H125.567C125.935 15.128 126.423 14.48 127.031 14.048C127.655 13.6 128.471 13.376 129.479 13.376C130.039 13.376 130.551 13.464 131.015 13.64C131.495 13.8 131.903 14.056 132.239 14.408C132.591 14.744 132.863 15.176 133.055 15.704C133.247 16.232 133.343 16.856 133.343 17.576V26H132.431V17.552C132.431 16.768 132.311 16.152 132.071 15.704C131.831 15.256 131.543 14.92 131.207 14.696C130.887 14.456 130.559 14.312 130.223 14.264C129.903 14.2 129.655 14.168 129.479 14.168C128.919 14.168 128.399 14.264 127.919 14.456C127.455 14.648 127.047 14.936 126.695 15.32C126.359 15.704 126.095 16.184 125.903 16.76C125.711 17.32 125.615 17.968 125.615 18.704V26H124.703V17.552C124.703 16.784 124.583 16.176 124.343 15.728C124.119 15.264 123.847 14.92 123.527 14.696C123.223 14.472 122.903 14.328 122.567 14.264C122.247 14.2 121.991 14.168 121.799 14.168C121.367 14.168 120.919 14.256 120.455 14.432C119.991 14.608 119.567 14.88 119.183 15.248C118.799 15.616 118.487 16.088 118.247 16.664C118.007 17.24 117.887 17.92 117.887 18.704V26H116.975V13.664ZM136.748 11.336V8.864H137.66V11.336H136.748ZM136.748 26V13.664H137.66V26H136.748ZM141.475 21.896C141.507 22.472 141.635 22.984 141.859 23.432C142.083 23.864 142.371 24.24 142.723 24.56C143.091 24.864 143.515 25.096 143.995 25.256C144.475 25.416 144.995 25.496 145.555 25.496C145.955 25.496 146.379 25.464 146.827 25.4C147.291 25.32 147.715 25.184 148.099 24.992C148.499 24.8 148.827 24.536 149.083 24.2C149.339 23.848 149.467 23.408 149.467 22.88C149.467 22.192 149.259 21.672 148.843 21.32C148.427 20.968 147.899 20.696 147.259 20.504C146.635 20.312 145.955 20.16 145.219 20.048C144.499 19.92 143.819 19.736 143.179 19.496C142.555 19.256 142.035 18.92 141.619 18.488C141.203 18.04 140.995 17.392 140.995 16.544C140.995 15.936 141.131 15.432 141.403 15.032C141.675 14.616 142.019 14.288 142.435 14.048C142.867 13.808 143.347 13.64 143.875 13.544C144.403 13.432 144.931 13.376 145.459 13.376C146.099 13.376 146.699 13.448 147.259 13.592C147.819 13.736 148.299 13.968 148.699 14.288C149.115 14.608 149.435 15.016 149.659 15.512C149.899 16.008 150.019 16.608 150.019 17.312H149.107C149.107 16.752 149.011 16.272 148.819 15.872C148.643 15.472 148.387 15.152 148.051 14.912C147.731 14.656 147.347 14.472 146.899 14.36C146.451 14.232 145.971 14.168 145.459 14.168C145.043 14.168 144.619 14.208 144.187 14.288C143.771 14.368 143.395 14.504 143.059 14.696C142.723 14.888 142.443 15.136 142.219 15.44C142.011 15.744 141.907 16.112 141.907 16.544C141.907 17.04 142.027 17.44 142.267 17.744C142.507 18.048 142.819 18.296 143.203 18.488C143.603 18.664 144.043 18.808 144.523 18.92C145.019 19.032 145.515 19.144 146.011 19.256C146.619 19.368 147.187 19.504 147.715 19.664C148.259 19.808 148.723 20.016 149.107 20.288C149.507 20.544 149.819 20.88 150.043 21.296C150.267 21.712 150.379 22.24 150.379 22.88C150.379 23.552 150.227 24.104 149.923 24.536C149.619 24.968 149.235 25.32 148.771 25.592C148.307 25.848 147.787 26.024 147.211 26.12C146.651 26.232 146.099 26.288 145.555 26.288C144.851 26.288 144.195 26.192 143.587 26C142.995 25.824 142.475 25.552 142.027 25.184C141.579 24.8 141.227 24.336 140.971 23.792C140.715 23.248 140.579 22.616 140.563 21.896H141.475ZM157.614 14.456H154.926V23.072C154.926 23.568 154.982 23.96 155.094 24.248C155.206 24.536 155.374 24.76 155.598 24.92C155.838 25.064 156.118 25.152 156.438 25.184C156.774 25.216 157.158 25.224 157.59 25.208V26C157.126 26.032 156.67 26.032 156.222 26C155.79 25.952 155.406 25.832 155.07 25.64C154.734 25.432 154.462 25.128 154.254 24.728C154.062 24.328 153.982 23.776 154.014 23.072V14.456H151.734V13.664H154.014V9.824H154.926V13.664H157.614V14.456ZM158.865 19.832C158.865 18.952 158.985 18.128 159.225 17.36C159.481 16.576 159.849 15.888 160.329 15.296C160.809 14.704 161.401 14.24 162.105 13.904C162.809 13.552 163.617 13.376 164.529 13.376C165.441 13.376 166.249 13.552 166.953 13.904C167.657 14.24 168.249 14.704 168.729 15.296C169.209 15.888 169.569 16.576 169.809 17.36C170.065 18.128 170.193 18.952 170.193 19.832C170.193 20.712 170.065 21.544 169.809 22.328C169.569 23.112 169.209 23.8 168.729 24.392C168.249 24.968 167.657 25.432 166.953 25.784C166.249 26.12 165.441 26.288 164.529 26.288C163.617 26.288 162.809 26.12 162.105 25.784C161.401 25.432 160.809 24.968 160.329 24.392C159.849 23.8 159.481 23.112 159.225 22.328C158.985 21.544 158.865 20.712 158.865 19.832ZM159.777 19.832C159.777 20.568 159.881 21.28 160.089 21.968C160.297 22.64 160.601 23.24 161.001 23.768C161.401 24.296 161.897 24.72 162.489 25.04C163.081 25.344 163.761 25.496 164.529 25.496C165.297 25.496 165.977 25.344 166.569 25.04C167.161 24.72 167.657 24.296 168.057 23.768C168.457 23.24 168.761 22.64 168.969 21.968C169.177 21.28 169.281 20.568 169.281 19.832C169.281 19.096 169.177 18.392 168.969 17.72C168.761 17.032 168.457 16.424 168.057 15.896C167.657 15.368 167.161 14.952 166.569 14.648C165.977 14.328 165.297 14.168 164.529 14.168C163.761 14.168 163.081 14.328 162.489 14.648C161.897 14.952 161.401 15.368 161.001 15.896C160.601 16.424 160.297 17.032 160.089 17.72C159.881 18.392 159.777 19.096 159.777 19.832ZM172.859 8.864H173.771V20.216L181.379 13.664H182.699L177.299 18.272L183.083 26H181.835L176.579 18.968L173.771 21.344V26H172.859V8.864Z" fill="black"/>
    </g>
    <defs>
    <linearGradient id="paint0_linear_1_122" x1="14.2102" y1="2.04738" x2="36.2528" y2="2.04738" gradientUnits="userSpaceOnUse">
    <stop stop-color="#DC1948"/>
    <stop offset="1" stop-color="#DC1944"/>
    </linearGradient>
    <linearGradient id="paint1_linear_1_122" x1="8.8842" y1="31.8957" x2="8.8842" y2="7.5257" gradientUnits="userSpaceOnUse">
    <stop stop-color="#3D7AAA"/>
    <stop offset="1" stop-color="#0098DA"/>
    </linearGradient>
    <linearGradient id="paint2_linear_1_122" x1="41.7916" y1="7.52572" x2="41.7916" y2="31.8736" gradientUnits="userSpaceOnUse">
    <stop stop-color="#4E4E50"/>
    <stop offset="1" stop-color="#231F20"/>
    </linearGradient>
    <linearGradient id="paint3_linear_1_122" x1="11.0493" y1="35.1382" x2="36.1969" y2="35.1382" gradientUnits="userSpaceOnUse">
    <stop offset="0.0592328" stop-color="#F3D848"/>
    <stop offset="1" stop-color="#FFCC29"/>
    </linearGradient>
    <clipPath id="clip0_1_122">
    <rect width="194" height="39" fill="white"/>
    </clipPath>
    </defs>
    </svg>
