<svg width="953" height="181" viewBox="0 0 953 181" fill="none" xmlns="http://www.w3.org/2000/svg">
<path d="M65.3186 2.54349C60.2499 3.14761 56.9027 4.54665 54.3524 7.12214C51.1008 10.4925 50.0488 13.8947 49.8257 22.1618L49.6663 27.9804H58.5923H67.5182L67.7094 26.9311C68.0281 25.2778 69.0165 23.9741 70.5785 23.211C72.9055 22.0982 80.397 21.8756 106.792 22.0346C131.753 22.1936 131.625 22.1936 134.207 23.9107C136.407 25.4049 136.566 26.0409 136.789 34.0219C136.917 37.9645 137.14 41.653 137.332 42.2253C138.352 45.3412 141.316 48.489 144.281 49.5702C145.747 50.1425 146.768 50.2379 150.465 50.2379H154.928V37.106C154.928 15.9933 154.131 11.2556 149.86 7.21753C146.959 4.48305 143.739 3.21121 137.874 2.54349C134.494 2.16194 68.5701 2.16194 65.3186 2.54349Z" fill="url(#paint0_linear_7_66)"/>
<path d="M35.7036 32.782C30.0932 33.386 26.6821 34.7215 23.9726 37.4241C22.2192 39.1411 20.8166 41.7802 20.1471 44.5148C19.4777 47.2174 19.127 52.9407 19.1908 59.6179C19.2864 67.1536 19.0314 68.9343 17.4374 71.5732C16.1304 73.7671 13.8352 75.0392 10.7111 75.2616L8.60718 75.4524V84.7368V93.9895L11.0618 94.3711C15.0785 95.0071 17.023 96.565 18.3619 100.158C18.7763 101.303 18.9357 103.497 19.127 111.128C19.4777 123.687 20.1152 127.058 22.8886 131.032C25.9171 135.388 30.1568 136.946 39.7841 137.264L45.2671 137.455L45.2035 128.457L45.1078 119.49L43.8646 119.077C42.2068 118.504 40.9955 117.264 40.1348 115.293C39.529 113.862 39.4016 112.876 39.1785 106.358C38.8916 98.7909 38.477 95.5477 37.3294 92.4953C36.1182 89.2521 33.7591 86.772 30.8583 85.5953C29.5194 85.055 29.3281 84.7051 30.2845 84.419C31.8464 83.942 34.7473 81.589 35.7992 80.0311C38.2539 76.3109 38.7959 73.5129 39.2103 62.9565C39.529 54.7848 39.7523 53.5447 41.346 51.9551C42.7806 50.5243 44.534 50.2381 51.9615 50.2381C57.6039 50.2381 58.4967 50.1744 60.0905 49.5704C62.5452 48.6482 65.0317 46.3272 66.1793 43.8151C67.04 41.9393 67.1038 41.4941 67.1995 37.1062L67.3269 32.4321L52.8543 32.4638C44.9166 32.4958 37.202 32.6546 35.7036 32.782Z" fill="url(#paint1_linear_7_66)"/>
<path d="M159.232 32.7821C159.136 33.0363 159.104 37.1063 159.136 41.8121L159.232 50.3653L160.602 50.6515C162.26 50.9694 163.854 52.4639 164.428 54.2446C164.683 54.9757 164.97 58.5051 165.129 62.9566C165.544 73.5131 166.086 76.3111 168.54 80.0312C169.592 81.5892 172.493 83.9421 174.055 84.4191C174.98 84.7053 174.852 85.0231 173.673 85.4684C172.111 86.0407 169.72 87.9168 168.636 89.3793C166.341 92.5588 165.512 96.6606 165.161 106.358C164.938 112.877 164.842 113.831 164.205 115.261C163.822 116.12 163.185 117.169 162.802 117.583C161.24 119.268 160.698 119.363 152.856 119.554C145.779 119.713 145.46 119.745 143.707 120.571C141.38 121.652 139.18 123.846 138.096 126.168C137.331 127.821 137.236 128.425 137.14 132.654L137.013 137.36H152.091C168.158 137.36 170.74 137.169 175.107 135.738C180.112 134.117 183.236 129.888 184.479 123.211C184.766 121.621 185.021 117.042 185.181 111.128C185.404 103.465 185.563 101.303 185.978 100.158C187.317 96.5335 189.261 95.0072 193.278 94.3712L195.732 93.9897V84.737V75.4526L193.628 75.2618C190.504 75.0393 188.209 73.7673 186.902 71.5733C185.34 68.9661 185.149 67.5036 185.053 57.5512C184.957 48.0123 184.702 45.5642 183.332 41.9711C181.961 38.4418 179.188 35.6755 175.649 34.3083C173.035 33.3225 169.688 32.7821 164.269 32.5594C160.22 32.3686 159.391 32.4006 159.232 32.7821Z" fill="url(#paint2_linear_7_66)"/>
<path d="M49.8575 136.422C49.9532 151.079 50.0488 153.687 50.4952 155.404C52.1848 161.7 55.8507 165.229 62.3539 166.787C64.3622 167.296 67.9007 167.359 99.1733 167.455C122.03 167.55 134.941 167.486 137.268 167.264C143.58 166.66 146.863 165.42 149.891 162.558C153.143 159.474 154.291 155.785 154.546 147.264L154.737 141.795L145.716 141.859L136.726 141.954L136.311 143.162C135.738 144.816 134.813 145.738 132.868 146.596C131.466 147.201 130.382 147.359 126.11 147.55C119.001 147.868 83.521 147.868 77.2411 147.55C70.8336 147.201 69.5265 146.724 68.2514 144.18C67.4864 142.622 67.4543 142.399 67.4543 135.436V128.282L66.4344 126.183C65.1911 123.671 63.1828 121.732 60.6643 120.555C59.0385 119.792 58.4011 119.697 54.2888 119.601L49.7301 119.474L49.8575 136.422Z" fill="url(#paint3_linear_7_66)"/>
<path d="M220.223 68.9345H220.446C220.893 67.5239 221.637 65.9648 222.679 64.2571C223.722 62.5494 225.099 60.9903 226.811 59.5797C228.523 58.0948 230.57 56.8697 232.952 55.9046C235.408 54.9395 238.199 54.4569 241.325 54.4569C245.717 54.4569 249.513 55.2736 252.715 56.9069C255.99 58.5402 258.668 60.7306 260.753 63.4775C262.912 66.2245 264.511 69.4172 265.554 73.055C266.596 76.6929 267.117 80.5166 267.117 84.5258C267.117 88.9063 266.596 92.9154 265.554 96.5533C264.511 100.191 262.912 103.347 260.753 106.019C258.668 108.618 255.99 110.66 252.715 112.145C249.513 113.63 245.717 114.372 241.325 114.372C236.562 114.372 232.319 113.332 228.597 111.254C224.875 109.175 222.158 105.797 220.446 101.119H220.223V133.527H215.98V55.7933H220.223V68.9345ZM241.325 110.697C245.047 110.697 248.249 109.991 250.929 108.581C253.683 107.17 255.916 105.277 257.628 102.901C259.414 100.525 260.717 97.7784 261.535 94.6601C262.429 91.4677 262.876 88.0895 262.876 84.5258C262.876 81.2589 262.465 78.0665 261.647 74.9483C260.827 71.7559 259.562 68.9345 257.85 66.4844C256.138 63.9602 253.905 61.9556 251.151 60.4707C248.471 58.9115 245.195 58.132 241.325 58.132C237.529 58.132 234.291 58.8743 231.612 60.3593C228.932 61.8443 226.736 63.8116 225.024 66.2617C223.387 68.7118 222.196 71.5331 221.451 74.7255C220.707 77.8438 220.335 81.1106 220.335 84.5258C220.335 87.9409 220.67 91.2449 221.34 94.4374C222.01 97.5556 223.126 100.34 224.689 102.79C226.327 105.166 228.485 107.096 231.165 108.581C233.919 109.991 237.306 110.697 241.325 110.697ZM281.259 68.489H281.594C282.115 66.633 283.048 64.8881 284.387 63.2548C285.8 61.6215 287.476 60.2107 289.41 59.0229C291.42 57.8351 293.615 56.9441 295.999 56.3501C298.454 55.6819 300.986 55.385 303.59 55.4592V59.6911C301.357 59.3942 298.789 59.6169 295.887 60.3593C293.058 61.1017 290.342 62.7352 287.736 65.2594C286.694 66.3731 285.764 67.4495 284.944 68.489C284.2 69.5285 283.566 70.6792 283.048 71.9414C282.526 73.2036 282.115 74.6142 281.819 76.1733C281.52 77.7324 281.333 79.5885 281.259 81.7416V113.036H277.018V55.7933H281.259V68.489ZM304.104 84.4144C304.104 80.3311 304.663 76.5074 305.78 72.9437C306.971 69.3058 308.683 66.1131 310.916 63.3662C313.149 60.6192 315.903 58.4661 319.178 56.9069C322.454 55.2736 326.212 54.4569 330.454 54.4569C334.698 54.4569 338.456 55.2736 341.732 56.9069C345.007 58.4661 347.761 60.6192 349.994 63.3662C352.227 66.1131 353.901 69.3058 355.018 72.9437C356.211 76.5074 356.806 80.3311 356.806 84.4144C356.806 88.4978 356.211 92.3586 355.018 95.9965C353.901 99.6344 352.227 102.827 349.994 105.574C347.761 108.247 345.007 110.4 341.732 112.033C338.456 113.592 334.698 114.372 330.454 114.372C326.212 114.372 322.454 113.592 319.178 112.033C315.903 110.4 313.149 108.247 310.916 105.574C308.683 102.827 306.971 99.6344 305.78 95.9965C304.663 92.3586 304.104 88.4978 304.104 84.4144ZM308.348 84.4144C308.348 87.8296 308.831 91.1336 309.799 94.326C310.767 97.4443 312.18 100.228 314.043 102.678C315.903 105.129 318.21 107.096 320.964 108.581C323.719 109.991 326.882 110.697 330.454 110.697C334.028 110.697 337.191 109.991 339.946 108.581C342.7 107.096 345.007 105.129 346.867 102.678C348.73 100.228 350.143 97.4443 351.111 94.326C352.079 91.1336 352.562 87.8296 352.562 84.4144C352.562 80.9993 352.079 77.7324 351.111 74.6142C350.143 71.4218 348.73 68.6004 346.867 66.1503C345.007 63.7003 342.7 61.7699 339.946 60.3593C337.191 58.8743 334.028 58.132 330.454 58.132C326.882 58.132 323.719 58.8743 320.964 60.3593C318.21 61.7699 315.903 63.7003 314.043 66.1503C312.18 68.6004 310.767 71.4218 309.799 74.6142C308.831 77.7324 308.348 80.9993 308.348 84.4144ZM414.208 55.7933V110.029C414.208 113.221 413.835 116.302 413.092 119.272C412.346 122.316 411.043 124.989 409.183 127.29C407.397 129.592 404.903 131.411 401.702 132.747C398.5 134.158 394.445 134.863 389.532 134.863C386.479 134.863 383.615 134.529 380.935 133.861C378.254 133.267 375.909 132.265 373.901 130.854C371.89 129.518 370.252 127.699 368.987 125.397C367.797 123.17 367.127 120.386 366.977 117.045H371.221C371.443 119.569 372.076 121.722 373.119 123.504C374.161 125.286 375.5 126.734 377.138 127.847C378.85 129.035 380.748 129.889 382.833 130.409C384.918 130.928 387.151 131.188 389.532 131.188C393.477 131.188 396.753 130.594 399.356 129.406C402.036 128.219 404.159 126.659 405.721 124.729C407.284 122.873 408.365 120.72 408.96 118.27C409.63 115.894 409.965 113.481 409.965 111.031V97.8897H409.742C407.731 102.122 404.977 105.351 401.479 107.579C398.056 109.806 393.886 110.92 388.973 110.92C384.731 110.92 381.047 110.214 377.92 108.804C374.869 107.319 372.299 105.314 370.216 102.79C368.206 100.191 366.68 97.1843 365.638 93.7692C364.67 90.354 364.187 86.6417 364.187 82.6325C364.187 78.8461 364.708 75.2452 365.75 71.83C366.867 68.4149 368.466 65.4449 370.551 62.9207C372.636 60.3221 375.204 58.2805 378.254 56.7956C381.382 55.2364 384.954 54.4569 388.973 54.4569C393.513 54.4569 397.683 55.6077 401.479 57.9092C405.35 60.2107 408.104 63.4775 409.742 67.7095H409.965V55.7933H414.208ZM388.973 58.132C385.475 58.132 382.424 58.8374 379.818 60.2479C377.286 61.6585 375.165 63.5147 373.454 65.8162C371.816 68.1177 370.551 70.7536 369.657 73.7232C368.839 76.6188 368.43 79.5885 368.43 82.6325C368.43 85.9735 368.839 89.166 369.657 92.21C370.551 95.1797 371.854 97.7784 373.566 100.006C375.352 102.233 377.511 104.015 380.04 105.351C382.646 106.614 385.623 107.244 388.973 107.244C392.473 107.244 395.524 106.576 398.13 105.24C400.733 103.903 402.892 102.084 404.604 99.7829C406.393 97.4815 407.693 94.8828 408.513 91.9873C409.405 89.0176 409.852 85.8994 409.852 82.6325C409.852 79.4401 409.405 76.3588 408.513 73.3891C407.693 70.4195 406.393 67.8208 404.604 65.5935C402.892 63.292 400.733 61.473 398.13 60.1366C395.524 58.8002 392.473 58.132 388.973 58.132ZM430.968 68.489H431.303C431.824 66.633 432.754 64.8881 434.093 63.2548C435.509 61.6215 437.182 60.2107 439.119 59.0229C441.127 57.8351 443.324 56.9441 445.706 56.3501C448.161 55.6819 450.693 55.385 453.299 55.4592V59.6911C451.066 59.3942 448.498 59.6169 445.593 60.3593C442.765 61.1017 440.049 62.7352 437.443 65.2594C436.4 66.3731 435.47 67.4495 434.653 68.489C433.907 69.5285 433.275 70.6792 432.754 71.9414C432.233 73.2036 431.824 74.6142 431.525 76.1733C431.229 77.7324 431.042 79.5885 430.968 81.7416V113.036H426.725V55.7933H430.968V68.489ZM493.693 101.676H493.47C492.801 103.384 491.833 105.017 490.568 106.576C489.301 108.061 487.739 109.398 485.877 110.585C484.091 111.773 482.044 112.701 479.737 113.37C477.43 114.038 474.898 114.372 472.144 114.372C466.04 114.372 461.313 113.073 457.964 110.474C454.614 107.801 452.94 103.718 452.94 98.2238C452.94 94.8828 453.61 92.1728 454.949 90.0941C456.29 87.9409 457.964 86.2704 459.974 85.0826C462.059 83.8204 464.328 82.9294 466.783 82.4098C469.315 81.8902 471.735 81.5189 474.042 81.2962L480.629 80.7393C483.682 80.5166 486.063 80.1825 487.775 79.737C489.561 79.2174 490.903 78.5492 491.794 77.7324C492.689 76.8415 493.246 75.7278 493.47 74.3914C493.693 73.055 493.805 71.3846 493.805 69.38C493.805 67.8208 493.506 66.3731 492.911 65.0367C492.316 63.7003 491.386 62.5125 490.121 61.473C488.856 60.4335 487.218 59.6169 485.208 59.0229C483.197 58.4289 480.741 58.132 477.839 58.132C472.703 58.132 468.534 59.3942 465.332 61.9184C462.207 64.4426 460.496 68.2663 460.197 73.3891H455.955C456.252 67.0785 458.262 62.3639 461.983 59.2456C465.779 56.0532 471.14 54.4569 478.061 54.4569C484.985 54.4569 490.008 55.8305 493.136 58.5774C496.335 61.2502 497.936 64.7767 497.936 69.1572V102.456C497.936 103.273 497.936 104.089 497.936 104.906C498.011 105.723 498.159 106.465 498.384 107.133C498.606 107.801 498.979 108.358 499.5 108.804C500.021 109.175 500.765 109.36 501.733 109.36C502.477 109.36 503.519 109.249 504.858 109.026V112.59C503.742 112.887 502.589 113.036 501.396 113.036C499.684 113.036 498.307 112.813 497.267 112.367C496.299 111.922 495.555 111.328 495.034 110.585C494.513 109.843 494.14 108.989 493.917 108.024C493.767 106.985 493.693 105.871 493.693 104.683V101.676ZM493.693 80.5166C492.65 81.7788 491.051 82.6325 488.892 83.078C486.807 83.5235 484.464 83.8576 481.858 84.0803L474.712 84.7485C472.627 84.9712 470.544 85.3053 468.459 85.7508C466.375 86.1221 464.476 86.7903 462.764 87.7554C461.127 88.7205 459.788 90.0569 458.745 91.7646C457.703 93.3979 457.182 95.551 457.182 98.2238C457.182 102.456 458.523 105.611 461.201 107.69C463.881 109.695 467.565 110.697 472.256 110.697C477.093 110.697 480.928 109.843 483.756 108.135C486.585 106.354 488.744 104.349 490.231 102.122C491.72 99.8202 492.65 97.6298 493.023 95.551C493.47 93.3979 493.693 91.9501 493.693 91.2077V80.5166ZM511.557 55.7933H515.801V67.4867H516.023C516.471 65.7049 517.252 64.0344 518.369 62.4752C519.485 60.842 520.824 59.4312 522.388 58.2433C524.026 57.0555 525.812 56.1274 527.748 55.4592C529.757 54.791 531.841 54.4569 534 54.4569C536.755 54.4569 539.136 54.8282 541.147 55.5705C543.155 56.2387 544.867 57.1669 546.282 58.3547C547.695 59.4684 548.812 60.7676 549.632 62.2525C550.45 63.6631 551.009 65.1108 551.305 66.5958H551.53C553.242 62.5866 555.511 59.5797 558.339 57.5751C561.244 55.4964 565.039 54.4569 569.729 54.4569C572.336 54.4569 574.717 54.8651 576.876 55.6819C579.109 56.4243 581.007 57.6123 582.568 59.2456C584.206 60.8048 585.473 62.8094 586.365 65.2594C587.259 67.7095 587.706 70.605 587.706 73.946V113.036H583.463V73.8346C583.463 70.1967 582.903 67.3382 581.787 65.2594C580.67 63.1807 579.331 61.6215 577.768 60.582C576.28 59.4684 574.753 58.8002 573.191 58.5774C571.702 58.2805 570.547 58.132 569.729 58.132C567.123 58.132 564.704 58.5774 562.471 59.4684C560.314 60.3593 558.416 61.6957 556.778 63.4775C555.215 65.2594 553.986 67.4867 553.094 70.1595C552.2 72.7581 551.753 75.765 551.753 79.1802V113.036H547.511V73.8346C547.511 70.2709 546.952 67.4495 545.835 65.3708C544.793 63.2176 543.528 61.6215 542.038 60.582C540.625 59.5425 539.136 58.8743 537.572 58.5774C536.085 58.2805 534.892 58.132 534 58.132C531.99 58.132 529.907 58.5402 527.748 59.357C525.589 60.1738 523.617 61.4358 521.831 63.1434C520.043 64.8511 518.591 67.0413 517.475 69.7141C516.358 72.3869 515.801 75.5423 515.801 79.1802V113.036H511.557V55.7933ZM601.985 84.9712V85.6394C601.985 88.9804 602.432 92.1728 603.326 95.2169C604.218 98.261 605.521 100.934 607.233 103.235C609.021 105.537 611.216 107.356 613.822 108.692C616.5 110.029 619.589 110.697 623.089 110.697C628.82 110.697 633.36 109.212 636.71 106.242C640.059 103.198 642.366 99.0034 643.634 93.6578H647.875C646.61 100.34 643.856 105.463 639.612 109.026C635.445 112.59 629.898 114.372 622.977 114.372C618.733 114.372 615.013 113.63 611.811 112.145C608.684 110.585 606.042 108.507 603.883 105.908C601.801 103.235 600.237 100.117 599.195 96.5533C598.152 92.9154 597.631 89.0176 597.631 84.8599C597.631 80.8507 598.152 77.027 599.195 73.3891C600.311 69.6769 601.949 66.4472 604.108 63.7003C606.267 60.8789 608.945 58.6516 612.146 57.0183C615.421 55.3106 619.254 54.4569 623.646 54.4569C627.665 54.4569 631.201 55.1992 634.254 56.6842C637.379 58.1692 639.985 60.2107 642.07 62.8093C644.152 65.3336 645.716 68.3035 646.759 71.7187C647.875 75.0596 648.434 78.6606 648.434 82.5212C648.434 82.8925 648.396 83.3379 648.322 83.8576C648.322 84.303 648.322 84.6743 648.322 84.9712H601.985ZM644.078 81.2962C643.93 78.1779 643.409 75.2452 642.517 72.4982C641.623 69.6769 640.284 67.2268 638.496 65.148C636.784 62.9949 634.663 61.2874 632.131 60.0252C629.676 58.763 626.847 58.132 623.646 58.132C620.222 58.132 617.207 58.8002 614.604 60.1366C611.998 61.3988 609.8 63.1062 608.014 65.2594C606.229 67.3382 604.851 69.7882 603.883 72.6096C602.917 75.4309 602.322 78.3265 602.097 81.2962H644.078ZM659.884 84.9712V85.6394C659.884 88.9804 660.331 92.1728 661.223 95.2169C662.117 98.261 663.42 100.934 665.132 103.235C666.918 105.537 669.113 107.356 671.719 108.692C674.399 110.029 677.488 110.697 680.986 110.697C686.717 110.697 691.26 109.212 694.609 106.242C697.959 103.198 700.266 99.0034 701.531 93.6578H705.775C704.508 100.34 701.753 105.463 697.512 109.026C693.342 112.59 687.798 114.372 680.876 114.372C676.632 114.372 672.91 113.63 669.711 112.145C666.584 110.585 663.942 108.507 661.783 105.908C659.698 103.235 658.134 100.117 657.092 96.5533C656.052 92.9154 655.531 89.0176 655.531 84.8599C655.531 80.8507 656.052 77.027 657.092 73.3891C658.208 69.6769 659.846 66.4472 662.005 63.7003C664.164 60.8789 666.844 58.6516 670.046 57.0183C673.319 55.3106 677.154 54.4569 681.546 54.4569C685.565 54.4569 689.101 55.1992 692.152 56.6842C695.279 58.1692 697.882 60.2107 699.967 62.8093C702.052 65.3336 703.616 68.3035 704.658 71.7187C705.775 75.0596 706.332 78.6606 706.332 82.5212C706.332 82.8925 706.296 83.3379 706.219 83.8576C706.219 84.303 706.219 84.6743 706.219 84.9712H659.884ZM701.978 81.2962C701.83 78.1779 701.309 75.2452 700.414 72.4982C699.52 69.6769 698.181 67.2268 696.395 65.148C694.683 62.9949 692.56 61.2874 690.031 60.0252C687.575 58.763 684.745 58.132 681.546 58.132C678.122 58.132 675.107 58.8002 672.501 60.1366C669.895 61.3988 667.7 63.1062 665.914 65.2594C664.128 67.3382 662.751 69.7882 661.783 72.6096C660.814 75.4309 660.219 78.3265 659.997 81.2962H701.978ZM737.21 59.4684H724.706V99.4488C724.706 101.75 724.966 103.569 725.487 104.906C726.009 106.242 726.79 107.282 727.83 108.024C728.947 108.692 730.25 109.101 731.74 109.249C733.303 109.398 735.089 109.435 737.1 109.36V113.036C734.941 113.184 732.818 113.184 730.735 113.036C728.725 112.813 726.939 112.256 725.375 111.365C723.811 110.4 722.547 108.989 721.578 107.133C720.687 105.277 720.314 102.716 720.462 99.4488V59.4684H709.856V55.7933H720.462V37.9747H724.706V55.7933H737.21V59.4684ZM747.012 93.9919C747.161 96.6647 747.756 99.0406 748.798 101.119C749.841 103.124 751.18 104.869 752.817 106.354C754.529 107.764 756.502 108.841 758.735 109.583C760.968 110.326 763.387 110.697 765.994 110.697C767.854 110.697 769.826 110.548 771.911 110.251C774.07 109.88 776.042 109.249 777.828 108.358C779.691 107.467 781.216 106.242 782.407 104.683C783.597 103.05 784.193 101.008 784.193 98.5579C784.193 95.3655 783.224 92.9524 781.29 91.3191C779.354 89.6858 776.898 88.4236 773.922 87.5327C771.017 86.6417 767.854 85.9363 764.43 85.4167C761.08 84.8227 757.917 83.9689 754.941 82.8553C752.036 81.7416 749.618 80.1825 747.682 78.1779C745.748 76.0991 744.779 73.0923 744.779 69.1572C744.779 66.3359 745.413 63.9972 746.678 62.1412C747.942 60.2107 749.544 58.6888 751.479 57.5751C753.489 56.4615 755.722 55.6819 758.178 55.2364C760.633 54.7168 763.091 54.4569 765.546 54.4569C768.525 54.4569 771.316 54.791 773.922 55.4592C776.525 56.1274 778.758 57.2038 780.621 58.6888C782.555 60.1738 784.045 62.067 785.087 64.3685C786.203 66.67 786.761 69.4541 786.761 72.721H782.519C782.519 70.1223 782.072 67.895 781.178 66.039C780.36 64.1829 779.17 62.698 777.606 61.5843C776.116 60.3965 774.33 59.5425 772.246 59.0229C770.161 58.4289 767.928 58.132 765.546 58.132C763.612 58.132 761.64 58.3175 759.629 58.6888C757.695 59.0601 755.945 59.6911 754.381 60.582C752.817 61.473 751.517 62.6238 750.474 64.0344C749.506 65.4449 749.023 67.1526 749.023 69.1572C749.023 71.4587 749.58 73.315 750.697 74.7255C751.813 76.1361 753.265 77.287 755.05 78.1779C756.913 78.9947 758.96 79.6629 761.193 80.1825C763.5 80.7021 765.807 81.222 768.114 81.7416C770.943 82.2612 773.587 82.8925 776.042 83.6348C778.574 84.303 780.731 85.2681 782.519 86.5304C784.379 87.7182 785.83 89.2773 786.873 91.2077C787.915 93.1382 788.437 95.5882 788.437 98.5579C788.437 101.676 787.729 104.238 786.313 106.242C784.9 108.247 783.114 109.88 780.956 111.142C778.797 112.33 776.377 113.147 773.697 113.592C771.093 114.112 768.525 114.372 765.994 114.372C762.718 114.372 759.667 113.926 756.839 113.036C754.085 112.219 751.665 110.957 749.58 109.249C747.495 107.467 745.858 105.314 744.667 102.79C743.476 100.266 742.845 97.3329 742.769 93.9919H747.012ZM819.86 59.4684H807.356V99.4488C807.356 101.75 807.616 103.569 808.137 104.906C808.659 106.242 809.44 107.282 810.48 108.024C811.597 108.692 812.9 109.101 814.389 109.249C815.953 109.398 817.739 109.435 819.747 109.36V113.036C817.591 113.184 815.468 113.184 813.385 113.036C811.375 112.813 809.589 112.256 808.025 111.365C806.461 110.4 805.197 108.989 804.228 107.133C803.336 105.277 802.963 102.716 803.112 99.4488V59.4684H792.506V55.7933H803.112V37.9747H807.356V55.7933H819.86V59.4684ZM823.446 84.4144C823.446 80.3311 824.005 76.5074 825.122 72.9437C826.313 69.3058 828.025 66.1131 830.258 63.3662C832.491 60.6192 835.245 58.4661 838.52 56.9069C841.794 55.2736 845.554 54.4569 849.796 54.4569C854.04 54.4569 857.798 55.2736 861.074 56.9069C864.349 58.4661 867.103 60.6192 869.336 63.3662C871.569 66.1131 873.243 69.3058 874.36 72.9437C875.55 76.5074 876.146 80.3311 876.146 84.4144C876.146 88.4978 875.55 92.3586 874.36 95.9965C873.243 99.6344 871.569 102.827 869.336 105.574C867.103 108.247 864.349 110.4 861.074 112.033C857.798 113.592 854.04 114.372 849.796 114.372C845.554 114.372 841.794 113.592 838.52 112.033C835.245 110.4 832.491 108.247 830.258 105.574C828.025 102.827 826.313 99.6344 825.122 95.9965C824.005 92.3586 823.446 88.4978 823.446 84.4144ZM827.69 84.4144C827.69 87.8296 828.173 91.1336 829.141 94.326C830.107 97.4443 831.522 100.228 833.382 102.678C835.245 105.129 837.552 107.096 840.306 108.581C843.061 109.991 846.224 110.697 849.796 110.697C853.37 110.697 856.533 109.991 859.288 108.581C862.042 107.096 864.349 105.129 866.209 102.678C868.069 100.228 869.485 97.4443 870.453 94.326C871.419 91.1336 871.904 87.8296 871.904 84.4144C871.904 80.9993 871.419 77.7324 870.453 74.6142C869.485 71.4218 868.069 68.6004 866.209 66.1503C864.349 63.7003 862.042 61.7699 859.288 60.3593C856.533 58.8743 853.37 58.132 849.796 58.132C846.224 58.132 843.061 58.8743 840.306 60.3593C837.552 61.7699 835.245 63.7003 833.382 66.1503C831.522 68.6004 830.107 71.4218 829.141 74.6142C828.173 77.7324 827.69 80.9993 827.69 84.4144ZM886.319 33.52H890.563V86.1963L925.957 55.7933H932.097L906.976 77.1756L933.883 113.036H928.078L903.626 80.4052L890.563 91.4305V113.036H886.319V33.52Z" fill="#262223"/>
<defs>
<linearGradient id="paint0_linear_7_66" x1="60.7281" y1="8.82323" x2="154.928" y2="8.82323" gradientUnits="userSpaceOnUse">
<stop stop-color="#DC1948"/>
<stop offset="1" stop-color="#DC1944"/>
</linearGradient>
<linearGradient id="paint1_linear_7_66" x1="37.967" y1="137.455" x2="37.967" y2="32.4321" gradientUnits="userSpaceOnUse">
<stop stop-color="#3D7AAA"/>
<stop offset="1" stop-color="#0098DA"/>
</linearGradient>
<linearGradient id="paint2_linear_7_66" x1="178.598" y1="32.4323" x2="178.598" y2="137.36" gradientUnits="userSpaceOnUse">
<stop stop-color="#4E4E50"/>
<stop offset="1" stop-color="#231F20"/>
</linearGradient>
<linearGradient id="paint3_linear_7_66" x1="47.2197" y1="151.429" x2="154.689" y2="151.429" gradientUnits="userSpaceOnUse">
<stop offset="0.0592328" stop-color="#F3D848"/>
<stop offset="1" stop-color="#FFCC29"/>
</linearGradient>
</defs>
</svg>
