<?xml version="1.0" encoding="UTF-8" standalone="no"?>
<svg
   xmlns:dc="http://purl.org/dc/elements/1.1/"
   xmlns:cc="http://creativecommons.org/ns#"
   xmlns:rdf="http://www.w3.org/1999/02/22-rdf-syntax-ns#"
   xmlns:svg="http://www.w3.org/2000/svg"
   xmlns="http://www.w3.org/2000/svg"
   viewBox="0 0 6113.5083 2953.3228"
   height="2953.3228"
   width="6113.5083"
   version="1.1"
   id="svg2">
  <metadata
     id="metadata8">
    <rdf:RDF>
      <cc:Work
         rdf:about="">
        <dc:format>image/svg+xml</dc:format>
        <dc:type
           rdf:resource="http://purl.org/dc/dcmitype/StillImage" />
        <dc:title></dc:title>
      </cc:Work>
    </rdf:RDF>
  </metadata>
  <defs
     id="defs6" />
  <g
     transform="translate(-301.98463,-67.925585)"
     id="g3340">
    <path
       id="path3354"
       d="m 1635,3020.4284 c -3.0937,-0.2116 -15.4687,-0.9834 -27.5,-1.7151 -100.8421,-6.1328 -182.5479,-32.9209 -239.2336,-78.4354 -7.483,-6.0084 -9.2255,-8.2355 -13.3264,-17.0325 -10.4986,-22.5214 -15.5838,-45.3875 -17.54,-78.8704 -1.3136,-22.4839 -1.1819,-26.927 2.6686,-90 1.343,-22 2.5802,-45.3438 2.7492,-51.875 l 0.3072,-11.875 18.75,-1.059 c 16.9019,-0.9546 128.376,-1.0784 378.125,-0.42 47.7813,0.126 129.3711,-0.1971 181.3108,-0.7179 77.0831,-0.7729 94.8477,-0.6456 96.6776,0.6924 2.1152,1.5467 2.2529,6.5692 2.4391,89.0719 0.2443,108.1298 -0.9675,123.701 -11.1319,143.0438 -13.656,25.9873 -45.6353,46.9423 -99.2956,65.0649 -50.7431,17.1374 -98.7011,25.1954 -193.125,32.449 -28.5646,2.1944 -63.7792,2.9163 -81.875,1.6783 z m 1948.7371,-244.4909 c -0.6651,-1.5469 -4.6181,-16.0312 -8.7845,-32.1875 -4.1663,-16.1562 -7.805,-30.0619 -8.0857,-30.9014 -0.9958,-2.9762 2.9639,-4.8896 13.2956,-6.4247 34.0506,-5.0597 73.181,-11.8908 87.0124,-15.19 62.4981,-14.9083 106.9811,-39.0125 130.3046,-70.6089 22.554,-30.5539 30.5244,-64.0464 33.7228,-141.7083 1.889,-45.8656 2.2611,-66.108 1.2453,-67.7514 -0.6781,-1.0972 -5.8265,0.4573 -18.8775,5.7001 -80.8945,32.4962 -117.8319,40.0096 -196.6951,40.0096 -36.8359,0 -41.1272,-0.2283 -54.25,-2.8861 -72.7174,-14.7279 -129.4698,-58.8795 -154.332,-120.0657 -4.4846,-11.0368 -9.2094,-31.0099 -10.7482,-45.4364 -0.8433,-7.9054 -1.2948,-90.5867 -1.2948,-237.0983 0,-192.3931 0.2563,-225.2163 1.7705,-226.7304 1.5688,-1.5687 105.0283,-37.1581 108.02,-37.1581 0.6556,0 1.5335,0.8898 1.9508,1.9773 0.4173,1.0874 0.7587,105.6717 0.7587,232.4094 0,156.1514 0.4295,233.5844 1.3323,240.2103 6.9083,50.7053 33.8967,85.3974 81.7989,105.1483 21.4683,8.8517 45.3844,13.0774 73.7438,13.0297 29.471,-0.05 53.7769,-4.864 83.7804,-16.5949 15.6928,-6.1355 52.8223,-24.3377 66.5106,-32.6059 l 10.334,-6.2419 0,-260.2912 c 0,-200.782 0.343,-260.6341 1.5,-261.7911 1.1194,-1.1194 14.9069,-1.5 54.331,-1.5 51.8734,0 52.8557,0.046 54.1939,2.5465 1.9417,3.6282 0.9104,625.1115 -1.0839,653.0785 -7.5707,106.1726 -18.5523,153.8271 -44.2233,191.9074 -36.9433,54.8013 -112.8988,98.9197 -203.0871,117.9617 -27.5791,5.823 -76.4549,11.9915 -95.0948,12.0016 -6.9402,0 -7.978,-0.3183 -9.0487,-2.8082 z M 1560,2572.8856 c -34.2385,-2.5662 -67.7221,-11.9216 -91.6242,-25.5998 -58.0432,-33.2155 -74.3902,-81.6037 -58.936,-174.4549 1.6895,-10.1508 9.2922,-46.2996 16.8951,-80.3309 17.1852,-76.9227 29.5305,-135.8456 61.2831,-292.5 27.8561,-137.4311 30.3055,-150.6829 32.4609,-175.625 1.8195,-21.054 0.8277,-66.476 -1.8695,-85.625 -10.5275,-74.74 -38.9158,-135.7786 -84.029,-180.6737 -15.8695,-15.7928 -32.135,-28.158 -59.4128,-45.1668 -57.6826,-35.9671 -99.7367,-57.8076 -234.7676,-121.9244 -71.3392,-33.874 -103.5455,-49.8587 -139.4463,-69.2107 l -26.32137,-14.1881 -16.17867,-1.9644 C 852.14727,1292.7636 755.58442,1252.0138 658.75,1179.3147 452.37235,1024.3754 324.07674,772.78558 303.0979,481.875 c -5.40546,-74.95665 8.74899,-151.79272 45.19309,-245.32637 15.09462,-38.74028 43.81158,-99.69523 54.86347,-116.45382 9.20288,-13.95482 27.48155,-33.095815 45.89404,-48.059154 7.65245,-6.21894 9.51433,-5.55082 8.837,3.1711 -2.92179,37.624574 -6.71275,68.679644 -19.12478,156.668244 -6.44055,45.65686 -10.38826,79.15535 -12.44765,105.625 -7.29997,93.82774 2.93009,169.59109 31.5631,233.75472 8.80447,19.72992 50.98815,86.34861 74.83883,118.18942 44.94377,60.00022 94.45024,108.07996 146.61742,142.39202 34.78114,22.8767 63.2269,36.35413 105.04258,49.76851 25.91601,8.31382 79.35934,20.89533 88.75844,20.89533 1.90819,0 9.40891,-7.16806 25.34806,-24.22389 121.9375,-130.48018 274.8217,-229.55906 435.8935,-282.48734 57.5862,-18.92284 104.8756,-29.26117 177.5,-38.80477 61.3426,-8.06105 103.8348,-10.78673 168.125,-10.78449 111.3788,0.004 200.9652,7.88849 271.8665,23.92724 67.6719,15.30823 141.6759,42.10095 204.2008,73.92973 104.4689,53.18072 197.3457,122.76195 296.2547,221.94747 l 34.1969,34.29258 8.9281,-0.86325 c 39.1395,-3.78438 85.4406,-17.95318 128.928,-39.45383 51.45,-25.43745 87.5869,-51.80729 132.6168,-96.77335 53.4575,-53.38177 107.8023,-126.4637 132.9815,-178.8311 29.4386,-61.22631 38.6712,-112.13377 37.1791,-205 -0.8833,-54.97559 -3.8074,-84.58572 -21.5405,-218.125 -6.2549,-47.10234 -10.4554,-87.916557 -9.1915,-89.310066 2.1442,-2.364273 20.9621,19.020245 41.4191,47.068476 58.5998,80.34484 97.219,188.28825 107.2911,299.88607 2.6057,28.86995 -1.6561,100.75485 -8.9825,151.51133 -23.5912,163.43822 -86.5601,316.41178 -183.5166,445.82679 -54.5247,72.7783 -127.6902,142.7349 -199.8289,191.0647 -73.5227,49.2571 -113.2617,65.6208 -226.9452,93.4517 -28.3229,6.9338 -36.1683,9.3583 -47.1074,14.5575 -7.2187,3.431 -23.25,11.0111 -35.625,16.8445 -90.1646,42.5025 -287.2045,139.6863 -327.5,161.5291 -44.9452,24.3633 -71.8999,42.941 -95.7849,66.0169 -19.9416,19.2661 -32.346,35.4566 -47.8985,62.5185 -38.1063,66.3061 -51.1036,159.9436 -34.567,249.0345 5.9583,32.1003 52.4592,259.877 74.6427,365.625 34.5162,164.5375 34.2268,163.017 35.0905,184.375 2.1086,52.1488 -14.158,90.867 -48.3692,115.129 -31.335,22.2224 -67.5617,32.7731 -123.7386,36.0379 -19.4911,1.1327 -200.8656,1.5281 -215,0.4687 z m 3844.6344,-114.789 c -41.273,-4.9938 -76.6094,-17.922 -110.2594,-40.3393 -83.8721,-55.8752 -131.5194,-148.5249 -140.5931,-273.3823 -2.9234,-40.2267 -0.1778,-79.0797 8.2591,-116.875 21.0079,-94.1105 73.1734,-166.1016 151.709,-209.3661 24.4656,-13.4778 51.765,-22.9364 81.25,-28.151 22.28,-3.9405 66.211,-4.8573 90.625,-1.8914 79.7985,9.6945 150.6079,53.5366 196.7155,121.7981 31.0327,45.9432 49.3786,95.5265 57.8537,156.3604 2.2084,15.8511 2.2424,78.5983 0.052,96.25 -14.5832,117.5376 -61.4558,202.828 -139.6214,254.0586 -35.9019,23.5304 -71.8789,36.4982 -115.3737,41.586 -19.3756,2.2665 -61.6961,2.2413 -80.617,-0.048 z m 68.2511,-69.4465 c 33.1202,-4.9733 57.497,-16.906 80.2336,-39.2751 36.0405,-35.4581 56.7903,-87.1537 64.9739,-161.875 10.0518,-91.7787 1.1302,-168.3475 -26.18,-224.6904 -10.638,-21.9466 -21.0876,-36.9926 -36.2793,-52.2365 -41.3175,-41.4596 -95.7088,-55.9477 -153.7587,-40.9562 -30.2117,7.8024 -53.0345,22.1271 -75.7463,47.5425 -20.3638,22.788 -37.0827,57.5546 -44.7297,93.0146 -3.5893,16.6434 -7.5189,49.5083 -8.4239,70.451 -0.8832,20.4389 1.2277,71.4052 3.9604,95.625 9.0818,80.4889 32.2419,136.3341 72.6191,175.1041 20.6157,19.7949 40.4483,30.5564 66.6954,36.1897 12.4024,2.6617 42.3775,3.2473 56.6355,1.1063 z M 4982.5,2456.5793 c -33.5573,-1.0587 -69.2778,-9.2958 -93.8383,-21.6393 -35.7281,-17.9561 -62.79,-48.5596 -74.8982,-84.7005 -8.4856,-25.328 -7.9217,-8.8506 -8.6916,-253.9895 l -0.6969,-221.875 -35.2789,-0.3319 c -33.872,-0.3187 -35.3325,-0.432 -36.6225,-2.8423 -1.5942,-2.9789 -1.1834,-65.4123 0.4411,-67.0363 0.5719,-0.5717 17.025,-1.2049 36.5625,-1.4069 l 35.5228,-0.3673 0,-88.6214 c 0,-58.1646 0.4327,-88.8888 1.2592,-89.3996 3.7298,-2.3052 105.7705,-38.0875 107.1284,-37.5665 1.2993,0.4986 1.6124,21.5051 1.6124,108.158 l 0,107.5392 57.8861,0 c 44.3366,0 58.3859,0.3658 60.0215,1.5625 1.9374,1.4176 2.1044,4.6919 1.8014,35.3125 l -0.334,33.75 -59.375,0.625 -59.375,0.625 -0.3705,208.125 c -0.253,142.1215 0.06,213.1888 0.9866,224.0921 2.2551,26.5338 9.4324,46.2662 21.2363,58.3848 14.1341,14.5109 49.1452,27.13 81.9661,29.5431 6.1499,0.4521 12.1764,1.333 13.3924,1.9575 2.0315,1.0434 2.1835,3.4354 1.875,29.4999 l -0.3359,28.3646 -6.25,0.8265 c -7.7417,1.0239 -33.0664,1.8069 -45.625,1.4108 z m -688.125,-1.1123 c -64.2124,-6.5854 -139.0323,-32.2754 -193.4275,-66.4147 -24.7635,-15.542 -58.7638,-41.4144 -60.5533,-46.078 -0.7433,-1.937 43.1336,-75.0657 45.6353,-76.0593 0.9099,-0.3614 6.2536,2.9101 11.875,7.27 55.7809,43.2639 135.5099,77.2338 198.7162,84.6663 19.0117,2.2356 74.1278,0.7782 91.5043,-2.4195 48.4226,-8.9113 94.356,-39.7058 121.2414,-81.2823 26.7463,-41.3616 30.5856,-99.262 9.5001,-143.2745 -3.2938,-6.875 -8.6451,-16.0057 -11.892,-20.2906 -16.6875,-22.0218 -47.1305,-43.0059 -87.5995,-60.3815 -8.25,-3.5423 -49.875,-18.1465 -92.5,-32.4539 -76.0548,-25.5284 -98.1171,-33.6276 -124.375,-45.6585 -74.1299,-33.965 -115.2742,-75.3444 -132.4822,-133.2389 -6.998,-23.5444 -9.2728,-41.1902 -9.3268,-72.3516 -0.05,-28.5875 1.0156,-40.133 5.6786,-61.5436 14.1625,-65.0297 54.5883,-122.148 111.48,-157.5125 32.429,-20.1582 75.9856,-35.6026 119.1893,-42.2625 21.6855,-3.3429 74.667,-4.7351 97.4052,-2.5597 29.4328,2.8162 55.9269,8.5258 78.6809,16.9565 16.6779,6.1794 52.2826,23.521 71.065,34.6129 17.9361,10.5921 43.2644,27.3666 45.6355,30.2237 1.4545,1.7525 -1.2555,6.5478 -20.7611,36.7378 -12.3388,19.0974 -23.3508,34.9019 -24.4713,35.1211 -1.1205,0.2194 -7.5342,-3.2367 -14.2526,-7.6801 -60.5318,-40.0341 -108.6948,-55.8436 -170.1249,-55.8436 -49.179,0 -85.7536,9.32 -116.2774,29.6298 -40.0438,26.6442 -61.4658,69.2867 -61.4115,122.2452 0.019,18.0815 1.7145,28.0758 7.1318,42.0269 10.6911,27.5328 35.48,49.6597 79.7165,71.1557 26.6691,12.9595 44.8149,19.5431 127.5,46.2594 38.5,12.4398 78.4581,25.9493 88.7957,30.0213 51.5924,20.3223 89.0404,45.6319 119.7287,80.92 31.0663,35.7228 43.0863,62.7667 51.4986,115.8667 3.1004,19.5698 3.7964,59.3364 1.3609,77.7438 -9.1089,68.8422 -47.0984,130.5809 -109.8463,178.5168 -21.5236,16.4428 -28.4291,20.9055 -47.1626,30.4789 -36.4921,18.6488 -68.3205,28.4366 -112.5,34.5958 -13.7765,1.9206 -81.7934,3.5471 -94.375,2.2567 z m -1564.7785,-10.0372 c -0.4656,-0.4655 -0.8465,-208.2954 -0.8465,-461.8442 0,-459.288 0.012,-461.0026 2.493,-462.3318 1.7408,-0.9317 51.2498,-1.2192 164.0625,-0.9528 160.7643,0.3795 161.638,0.3951 175.3195,3.1344 40.4457,8.0981 70.1113,20.1822 102.4748,41.7429 35.4156,23.594 61.6172,52.0503 82.6251,89.7353 21.0296,37.7242 30.468,78.2325 28.8537,123.8364 -1.458,41.1847 -9.372,71.777 -27.7892,107.4214 -31.0205,60.0362 -85.1576,103.3339 -150.9369,120.7161 -28.8614,7.6266 -23.8375,7.3565 -150.2275,8.0759 l -116.25,0.6616 -0.625,215 -0.625,215 -53.841,0.3256 c -29.6126,0.1792 -54.222,-0.055 -54.6875,-0.5208 z m 308.5658,-509.7705 c 48.2945,-7.8332 86.9202,-33.746 111.5741,-74.8515 9.712,-16.1928 17.3877,-38.3679 21.0432,-60.7929 2.9679,-18.2075 2.6704,-47.5986 -0.6422,-63.432 -9.1815,-43.8846 -35.4041,-82.9933 -72.5095,-108.1411 -13.5224,-9.1647 -35.4415,-19.278 -49.6429,-22.9049 -18.7576,-4.7905 -40.1272,-5.6661 -128.61,-5.27 l -80,0.3581 -0.317,168.4375 -0.317,168.4375 94.067,0 c 76.6148,0 96.1611,-0.3447 105.3543,-1.8357 z m 2860.1842,509.7705 c -0.4656,-0.4655 -0.8465,-221.7463 -0.8465,-491.735 0,-391.2098 0.3172,-491.1429 1.5625,-492.1408 2.6924,-2.1576 105.058,-36.6792 106.7912,-36.0141 1.3557,0.5201 1.6463,55.9222 1.6463,313.7959 0,172.2403 0.301,313.1642 0.6687,313.1642 0.3679,0 66.8277,-60.0469 147.6883,-133.4375 80.8606,-73.3906 148.0337,-133.6139 149.2735,-133.8294 2.601,-0.4522 52.7558,46.333 53.3694,49.7838 0.2546,1.4319 -32.2823,31.6229 -101.4234,94.1109 -55.989,50.6015 -103.3553,93.3421 -105.2584,94.9791 l -3.4602,2.9764 133.5003,207.3958 c 73.4252,114.0678 133.5603,208.2397 133.6335,209.2709 0.1163,1.6398 -7.8148,1.9156 -63.2318,2.1989 l -63.3653,0.324 -3.0479,-4.074 c -1.6763,-2.2406 -51.8217,-79.027 -111.4343,-170.6364 C 6114.7997,2179.9531 6065.6252,2105 6065.1355,2105 c -0.4896,0 -13.6556,11.5454 -29.2576,25.6563 l -28.3674,25.6563 -0.3178,144.6562 -0.3177,144.6562 -53.841,0.3256 c -29.6126,0.1792 -54.222,-0.055 -54.6875,-0.5208 z m -4562.1501,-42.617 c -24.6433,-12.5498 -43.1355,-26.036 -60.6411,-44.2249 -13.8229,-14.3625 -19.179,-21.7291 -35.7816,-49.2129 -100.1312,-165.7562 -169.5056,-342.4081 -207.3371,-527.9537 -4.3451,-21.3112 -4.9149,-25.7155 -3.5007,-27.0619 0.929,-0.8845 32.0641,-8.5186 69.1891,-16.9648 37.125,-8.446 68.0171,-15.7977 68.649,-16.3371 1.4717,-1.2559 9.3567,-46.7705 8.3541,-48.2219 -2.6049,-3.7708 -86.7141,-21.9421 -134.5031,-29.0586 -9.625,-1.4332 -18.4174,-2.8861 -19.5386,-3.2285 -3.1188,-0.9523 -3.5864,-5.9274 -3.5864,-38.1581 l 0,-29.7973 7.8125,-5.2766 c 4.2969,-2.9021 17.9346,-12.6263 30.3061,-21.6091 57.5646,-41.7971 93.1672,-61.5075 123.1779,-68.194 6.7439,-1.5026 7.2091,-1.4238 18.125,3.0699 39.377,16.2097 75.349,43.4593 124.125,94.0272 13.1377,13.6205 27.0266,28.702 30.864,33.5145 21.2303,26.6246 33.605,52.6618 36.9401,77.7244 1.6439,12.3521 1.5805,13.0732 -5.0871,57.9006 -9.0337,60.7346 -14.9841,126.053 -17.5366,192.5 -0.6999,18.2188 -1.8239,45.8112 -2.4976,61.3165 -1.3685,31.489 -0.099,91.6261 3.3098,156.8085 2.6463,50.5958 3.0479,149.8444 0.7083,175 -1.943,20.8924 -6.9508,56.0893 -9.9595,70 -1.7853,8.2543 -2.6086,10.0637 -4.7165,10.3655 -1.4045,0.201 -8.9983,-2.9165 -16.875,-6.9277 z m 658.3855,5.0218 c -1.1828,-1.9136 -5.6223,-29.7292 -7.6346,-47.8346 -4.7409,-42.6532 -5.6865,-103.0496 -3.0533,-195 1.0586,-36.962 1.0489,-78.9149 -0.039,-166.875 -1.8557,-150.0903 -2.6822,-163.1026 -15.1233,-238.109 -9.7647,-58.8708 -10.3032,-75.7865 -3.1331,-98.4192 3.3262,-10.4997 17.0151,-34.2117 29.0296,-50.2859 24.615,-32.9323 57.9378,-64.7195 102.2464,-97.535 17.3761,-12.869 45.8619,-32.5343 59.7156,-41.2249 l 8.4658,-5.3106 20.9092,11.5595 c 30.6836,16.9631 60.2105,34.6031 87.8803,52.5012 24.861,16.0814 56.0271,37.9263 57.6975,40.4411 0.5051,0.7605 0.927,16.0409 0.9375,33.9564 0.014,24.172 -0.3839,33.095 -1.5434,34.5954 -1.1473,1.4846 -6.2135,2.5667 -19.0625,4.072 -37.7834,4.4264 -87.4544,13.5656 -120.625,22.1944 l -15.625,4.0646 -0.3395,23.2699 -0.3394,23.27 14.9398,3.9528 c 29.4861,7.8019 78.7003,18.2434 116.2071,24.655 7.1325,1.2194 13.6621,2.9109 14.5102,3.7592 4.1774,4.1772 -13.767,91.2351 -31.3247,151.9731 -26.296,90.9674 -74.8952,214.5635 -119.5828,304.12 -30.2787,60.6802 -77.743,136.7869 -99.6612,159.8019 -11.5647,12.1432 -27.8796,23.1518 -50.2654,33.9166 -17.3501,8.3432 -23.9116,10.5552 -25.1872,8.4911 z"
       style="fill:#f7ea9d" />
    <path
       id="path3352"
       d="m 1683.075,3019.6875 c -0.4406,-1.1541 -4.1062,-1.45 -14.0232,-1.1324 -16.3644,0.5244 -61.478,-1.6887 -87.8018,-4.307 -34.0836,-3.3902 -70.8474,-10.4064 -98.75,-18.8459 -43.9444,-13.2915 -84.7267,-33.9971 -112.9645,-57.3533 -9.806,-8.1109 -13.9244,-15.5804 -20.6334,-37.4239 -10.5248,-34.2669 -11.6986,-65.6349 -5.7975,-154.9293 1.0425,-15.7736 1.8954,-34.1341 1.8954,-40.801 l 0,-12.1216 24.6875,-1.06 c 32.8536,-1.4107 275.5273,-1.1742 294.9815,0.2875 10.9143,0.82 15.4445,0.7565 15.82,-0.2219 0.3733,-0.9727 34.2425,-1.6131 116.581,-2.2045 63.8303,-0.4584 139.1175,-1.1753 167.305,-1.593 43.1166,-0.639 51.6154,-0.4787 53.5525,1.0096 2.1945,1.6858 2.3119,5.8711 2.5,89.2016 0.2443,108.1299 -0.9675,123.701 -11.1319,143.0439 -13.656,25.9872 -45.6353,46.9422 -99.2956,65.0648 -50.7431,17.1374 -98.7011,25.1954 -193.125,32.449 -17.875,1.3733 -32.6582,2.4974 -32.8517,2.4983 -0.1934,8e-4 -0.6202,-0.7015 -0.9483,-1.5609 z m 1901.5153,-241.8391 c -1.2888,-2.0854 -17.0903,-63.4232 -17.0903,-66.3408 0,-3.2539 -2.37,-2.6921 35.625,-8.444 65.5055,-9.9165 100.3565,-19.1708 133.75,-35.516 38.2828,-18.7382 60.8074,-40.2327 76.261,-72.7739 7.6758,-16.163 13.6453,-46.6672 16.9063,-86.3921 1.656,-20.1725 3.6782,-96.0037 2.6132,-97.994 -0.5669,-1.0595 -3.6702,-0.2328 -10.7881,2.8738 -12.628,5.5115 -55.612,21.3273 -73.9331,27.2036 -36.8813,11.829 -90.4185,17.9919 -144.8093,16.6696 -22.9912,-0.559 -29.9592,-1.1915 -42.5,-3.8582 -46.1258,-9.8082 -84.5626,-30.487 -114.4131,-61.5538 -29.2966,-30.4905 -45.2226,-65.6117 -48.6803,-107.3536 -1.4993,-18.1005 -1.7278,-456.7306 -0.2391,-459.076 0.5523,-0.8701 25.0833,-9.7396 54.5131,-19.71 41.4864,-14.0549 53.895,-17.8076 55.2268,-16.7024 1.4455,1.1998 1.7184,38.2767 1.7226,234.0849 0,255.459 -0.3192,243.9099 7.516,267.2965 6.5441,19.5326 14.717,33.0915 27.8658,46.2293 19.1222,19.1062 48.4308,34.1542 78.3632,40.2345 41.4823,8.4263 83.0959,4.2826 126.25,-12.5715 16.9899,-6.6355 58.5773,-26.9797 69.6875,-34.0906 l 7.8125,-5.0002 0,-259.9425 c 0,-234.6446 0.1911,-260.1336 1.9643,-261.9067 1.7216,-1.7215 8.2726,-1.9643 53.0227,-1.9643 28.0823,0 51.9483,0.3414 53.0358,0.7588 1.7957,0.689 1.9766,29.4096 1.9708,312.8125 0,191.5583 -0.4897,321.2245 -1.258,335.8037 -3.7077,70.3568 -12.9821,130.3485 -24.9901,161.6484 -29.9099,77.963 -122.5536,138.022 -244.2176,158.3211 -35.3506,5.8981 -79.583,9.8501 -81.1876,7.2539 z M 1682.4554,2572.1291 c -1.4714,-1.303 -9.6755,-1.4161 -41.8304,-0.5768 -84.1669,2.1967 -126.2676,-3.6426 -164.375,-22.7984 -14.2562,-7.1664 -22.5347,-12.9381 -34.251,-23.8799 -23.3789,-21.8331 -33.757,-46.7537 -35.346,-84.874 -1.3686,-32.8324 2.8062,-60.5411 22.1291,-146.875 21.1695,-94.5841 83.4138,-397.0675 89.9772,-437.2544 4.1496,-25.4081 5.382,-45.8012 4.5852,-75.8706 -1.5127,-57.0912 -11.5979,-100.8597 -33.8429,-146.875 -15.3896,-31.8347 -31.3658,-54.7612 -53.5985,-76.9164 -15.3703,-15.3166 -31.8898,-27.8667 -58.6393,-44.5491 -58.2207,-36.3094 -106.0119,-61.1105 -240.9732,-125.052 -65.4175,-30.9933 -106.9106,-51.6408 -139.66929,-69.5011 -11.82702,-6.4483 -21.96777,-11.2599 -22.535,-10.6927 -1.24483,1.2448 -25.92338,-1.6437 -49.08631,-5.7453 -80.46227,-14.248 -163.32946,-49.3107 -237.5,-100.4906 C 463.7622,1045.7918 325.07579,786.63912 303.0979,481.875 c -5.40546,-74.95665 8.74899,-151.79272 45.19309,-245.32637 15.09462,-38.74028 43.81158,-99.69523 54.86347,-116.45382 9.20288,-13.95482 27.48155,-33.095815 45.89404,-48.059154 7.65245,-6.21894 9.51433,-5.55082 8.837,3.1711 -2.92179,37.624574 -6.71275,68.679644 -19.12478,156.668244 -6.44055,45.65686 -10.38826,79.15535 -12.44765,105.625 -7.29997,93.82774 2.93009,169.59109 31.5631,233.75472 8.80447,19.72992 50.98815,86.34861 74.83883,118.18942 35.48074,47.36701 75.89157,89.3416 116.61742,121.13009 14.78584,11.54104 43.06658,30.31886 58.79258,39.03702 38.42696,21.3031 89.22761,38.51864 146.87174,49.77253 l 23.12172,4.51406 5.52606,-6.01141 C 962.7613,811.82075 1043.3416,745.12867 1134.375,690.36989 c 93.3266,-56.13819 194.5564,-96.62389 292.7854,-117.09621 70.3336,-14.65853 163.0525,-24.52087 230.548,-24.52295 16.7743,-5.3e-4 23.471,-0.41402 23.8234,-1.471 0.5711,-1.71325 23.817,-1.62638 72.8432,0.2722 115.19,4.46082 183.2919,15.19331 269.0886,42.40691 132.4907,42.02426 251.5922,113.1076 374.1039,223.27637 26.3778,23.72029 87.4325,84.85635 87.4325,87.54908 0,1.80938 1.1615,1.95528 9.5295,1.197 55.8011,-5.05658 126.4375,-31.9263 183.5955,-69.8388 51.9398,-34.45133 97.6391,-79.08094 149.1743,-145.68219 52.0361,-67.24894 82.1124,-126.49454 93.9408,-185.04856 6.4489,-31.92393 8.0462,-53.4868 8.0677,-108.91174 0.017,-44.87045 -0.3681,-55.84143 -2.8533,-81.25 -3.1907,-32.62129 -8.875,-79.25748 -16.4544,-135 -5.7139,-42.02288 -11.2491,-89.584444 -11.2497,-96.663234 l -4e-4,-4.788235 6.066,6.663235 c 62.44,68.588154 108.4915,166.101094 128.886,272.913234 9.0565,47.43141 11.1352,75.71369 8.912,121.25 -4.6222,94.67232 -21.4819,184.4248 -50.9044,270.99049 -69.2347,203.69912 -196.5196,369.08821 -366.0719,475.65981 -55.6865,35.0016 -101.2806,52.265 -202.948,76.8422 -18.0073,4.3531 -32.4345,8.2211 -32.0601,8.5955 1.2605,1.2605 -2.392,3.1898 -36.2546,19.15 -101.3361,47.762 -295.6024,143.4281 -338.75,166.8171 -44.9453,24.3633 -71.8999,42.941 -95.7849,66.0169 -19.9416,19.2661 -32.346,35.4566 -47.8985,62.5185 -38.1064,66.3061 -51.1036,159.9436 -34.567,249.0345 5.9583,32.1002 52.4591,259.877 74.6426,365.625 34.5163,164.5375 34.2269,163.017 35.0905,184.375 2.1087,52.1487 -14.158,90.867 -48.3691,115.129 -31.4229,22.2847 -67.4984,32.7622 -124.1897,36.0687 -33.0494,1.9278 -89.7787,1.7314 -92.0935,-0.3186 z M 5416.25,2459.2501 c -58.9594,-6.8327 -94.2609,-20.3708 -137.3056,-52.6566 -79.7334,-59.804 -125.4788,-166.2737 -125.5534,-292.2185 -0.012,-15.8125 0.6505,-34.6562 1.4664,-41.875 12.0838,-106.9071 59.4835,-189.7292 138.2676,-241.5972 37.6749,-24.8034 78.3909,-39.1225 123.75,-43.5204 18.792,-1.8221 60.4691,-0.7739 77.5,1.9491 44.1427,7.0578 83.7965,23.607 120,50.081 68.6526,50.2026 113.8855,132.6205 125.8658,229.3375 2.1107,17.0403 2.1108,73.7516 1e-4,91.875 -11.8145,101.441 -51.2141,184.1798 -111.932,235.0556 -40.6189,34.0348 -82.0118,52.9645 -134.0598,61.3082 -11.8145,1.8938 -67.2912,3.5023 -77.9991,2.2613 z m 61.6894,-71.2052 c 32.2508,-5.5844 57.5377,-19.2119 80.0455,-43.1376 42.9148,-45.6189 63.7203,-119.9948 63.7885,-228.0323 0.024,-36.7934 -0.7666,-47.5439 -5.6479,-76.875 -6.8827,-41.3579 -20.6656,-77.6436 -40.3342,-106.1862 -8.773,-12.7314 -25.306,-29.842 -38.1982,-39.533 -32.9598,-24.7758 -77.1298,-35.6135 -117.608,-28.8569 -36.2321,6.0479 -61.5265,18.7611 -86.202,43.3261 -32.2325,32.0881 -50.8322,75.5483 -58.0437,135.625 -3.0519,25.425 -4.7951,62.0793 -3.3469,70.3723 0.6848,3.9202 1.5463,16.1277 1.9145,27.1277 2.4219,72.3316 19.1056,133.6506 48.3215,177.5986 10.9214,16.4285 34.4958,40.6535 48.7495,50.0949 28.4284,18.8304 66.4473,25.4224 106.5614,18.4764 z m -1181.0644,67.3526 c -45.73,-3.9535 -104.1204,-20.3749 -152.3093,-42.8346 -33.048,-15.4029 -76.1487,-43.5837 -99.3208,-64.9393 l -5.38,-4.9583 2.4873,-4.7702 c 7.4638,-14.3135 42.4034,-69.8092 44.165,-70.1485 1.1325,-0.218 7.0202,3.3948 13.0834,8.0285 50.0286,38.2325 120.604,70.0872 178.3775,80.5115 32.2908,5.8264 77.4021,6.0224 109.5219,0.4758 35.4572,-6.123 70.839,-24.9817 98.1786,-52.3295 33.9186,-33.929 48.5983,-71.4574 46.4271,-118.6914 -2.5703,-55.9197 -29.6591,-93.3515 -89.6007,-123.8117 -23.8535,-12.1215 -32.4213,-15.3328 -112.3026,-42.0922 -78.8882,-26.4267 -105.0824,-36.2026 -133.6245,-49.87 -58.5972,-28.0592 -94.2452,-59.2477 -115.07,-100.675 -25.7644,-51.2536 -28.1593,-134.8357 -5.6029,-195.5426 34.0754,-91.7081 113.1274,-150.9781 223.47,-167.5486 22.7116,-3.4108 69.4832,-4.6746 93.2187,-2.5191 31.3528,2.8473 63.2067,10.0072 87.0968,19.5768 27.8221,11.1448 72.0436,35.2564 98.8652,53.9062 9.538,6.6318 11.5854,8.6115 11.1609,10.7907 -0.8071,4.1436 -43.5491,69.544 -45.4501,69.544 -0.9275,0 -8.8764,-4.7395 -17.664,-10.5324 -17.7038,-11.6702 -51.1311,-29.3125 -68.4775,-36.1411 -45.5905,-17.947 -101.7618,-22.6515 -151.377,-12.678 -78.668,15.8136 -124.4634,69.7989 -124.5731,146.8515 -0.047,33.4277 7.9361,53.7726 29.7001,75.685 13.5146,13.6069 29.8749,24.7539 53.8067,36.6613 26.3258,13.0983 46.0978,20.3846 120.5683,44.4309 37.4687,12.0987 74.5937,24.3059 82.5,27.1273 60.0982,21.4468 102.8111,48.73 136.1422,86.9626 20.7937,23.8515 32.7788,43.626 40.4934,66.8114 12.0566,36.2346 17.4235,88.5676 12.8006,124.8215 -9.0888,71.2776 -46.6158,132.3557 -111.6201,181.6707 -52.4495,39.7904 -106.6131,59.7613 -178.4411,65.7938 -13.8355,1.1619 -59.601,1.44 -71.25,0.433 z m 660,-1.0199 c -61.3681,-8.5958 -105.0924,-34.4918 -130.9577,-77.5606 -9.6906,-16.1358 -17.0581,-39.825 -19.5324,-62.8035 -0.9576,-8.8938 -1.3849,-78.7825 -1.3849,-226.5434 l 0,-213.6817 -35.9375,-0.3318 -35.9375,-0.3316 0,-34.375 0,-34.375 35.625,-0.625 35.625,-0.625 0.3209,-88.2914 c 0.2833,-77.9905 0.547,-88.4791 2.2596,-89.9005 2.9219,-2.4249 104.5255,-38.516 106.4025,-37.7957 1.3166,0.5052 1.6892,21.2251 1.9476,108.3062 l 0.3194,107.6814 59.375,0.625 59.375,0.625 0,34.375 0,34.375 -59.375,0.625 -59.375,0.625 -0.3728,211.25 c -0.2511,142.4026 0.06,215.5537 0.9529,224.4554 2.5049,24.9555 9.514,43.0382 21.2949,54.9387 14.5786,14.7265 42.5901,25.1883 78.7147,29.3983 9.1904,1.0711 17.1768,2.236 17.7475,2.5887 0.5708,0.3528 1.0378,12.9144 1.0378,27.9146 0,23.777 -0.2634,27.4918 -2.0545,28.9783 -3.0119,2.4996 -59.1219,2.8526 -76.0705,0.4786 z m -2226.7126,-9.8069 c -1.05,-1.2652 -1.3345,-120.6867 -1.1015,-462.2008 l 0.3141,-460.4949 155,-0.856 c 100.8705,-0.557 159.3653,-0.4182 167.5,0.3975 49.8858,5.0024 100.9852,25.9595 139.8807,57.3684 44.676,36.0769 77.4968,88.9076 88.1173,141.8401 23.214,115.6989 -36.1114,230.7381 -141.8575,275.0794 -16.1087,6.7546 -34.4102,12.1087 -54.2655,15.8752 -13.9372,2.6439 -17.877,2.747 -129.375,3.3862 l -115,0.6592 -0.625,215 -0.625,215 -53.2734,0.3258 c -43.7796,0.2677 -53.5257,0.021 -54.6892,-1.3801 z m 309.5282,-508.7167 c 70.4208,-12.8811 118.8464,-62.5621 131.1881,-134.5891 3.1786,-18.5499 2.797,-50.9779 -0.7868,-66.8899 -13.0169,-57.7925 -55.5046,-106.0782 -110.3733,-125.4351 -23.7292,-8.3713 -22.8701,-8.3149 -126.5936,-8.3149 l -93.75,0 -0.3214,167.5 c -0.1767,92.125 -0.041,168.2355 0.3009,169.1344 0.507,1.3316 18.0528,1.5488 94.6964,1.1722 81.6274,-0.401 95.6043,-0.742 105.6397,-2.5776 z m 2858.6428,509.5626 c -0.4584,-0.4582 -0.8334,-221.7822 -0.8334,-491.831 0,-485.1941 0.029,-491.013 2.4327,-492.2996 1.338,-0.7161 25.3559,-9.1496 53.3732,-18.7411 37.9211,-12.9821 51.3561,-17.0941 52.5672,-16.089 1.3279,1.1021 1.6269,58.7507 1.6269,313.6971 0,171.7909 0.4219,312.3345 0.9375,312.3194 0.5156,-0.015 67.2304,-60.2028 148.255,-133.75 C 6237.7171,1845.175 6304.6966,1785 6305.5359,1785 c 2.045,0 53.2141,48.4891 53.2141,50.4271 0,0.8367 -47.2698,44.2193 -105.044,96.4059 -62.4826,56.4396 -104.7949,95.5341 -104.429,96.4874 0.3382,0.8815 60.087,94.0057 132.775,206.9429 72.688,112.937 132.4029,206.6106 132.6998,208.1633 l 0.5397,2.8234 -63.1177,0 c -51.2716,0 -63.3789,-0.3147 -64.5097,-1.6772 -0.7655,-0.9224 -50.8136,-77.563 -111.218,-170.3125 -71.1066,-109.1825 -110.5032,-168.5823 -111.747,-168.4848 -1.0566,0.082 -14.3356,11.3326 -29.509,25 l -27.588,24.8495 -0.051,143.8125 c -0.039,110.1301 -0.4025,144.1639 -1.5511,145.3125 -1.1193,1.1193 -14.8704,1.5 -54.1667,1.5 -28.9667,0 -53.0417,-0.375 -53.5,-0.8334 z m -3903.7515,-37.582 c -1.1828,-1.9136 -5.6223,-29.7292 -7.6347,-47.8346 -4.7408,-42.6532 -5.6865,-103.0496 -3.0532,-195 1.0586,-36.962 1.0489,-78.9149 -0.039,-166.875 -1.8556,-150.0903 -2.6821,-163.1026 -15.1232,-238.109 -9.7648,-58.8708 -10.3033,-75.7865 -3.1331,-98.4192 3.3262,-10.4997 17.0151,-34.2117 29.0296,-50.2859 24.615,-32.9323 57.9377,-64.7195 102.2464,-97.535 17.3761,-12.869 45.8618,-32.5343 59.7156,-41.2249 l 8.4657,-5.3106 20.9093,11.5595 c 30.6836,16.9631 60.2105,34.6031 87.8802,52.5012 24.861,16.0814 56.0272,37.9263 57.6975,40.4411 0.5052,0.7605 0.927,16.0409 0.9375,33.9564 0.014,24.172 -0.3838,33.095 -1.5433,34.5954 -1.1473,1.4846 -6.2135,2.5667 -19.0625,4.072 -37.7834,4.4264 -87.4544,13.5656 -120.625,22.1944 l -15.625,4.0646 -0.3395,23.2699 -0.3394,23.27 14.9397,3.9528 c 29.4862,7.8019 78.7004,18.2434 116.2072,24.655 7.1325,1.2194 13.6621,2.9109 14.5102,3.7592 4.1774,4.1772 -13.767,91.2351 -31.3247,151.9731 -26.296,90.9674 -74.8952,214.5635 -119.5828,304.12 -30.2787,60.6802 -77.743,136.7869 -99.6612,159.8019 -11.5647,12.1432 -27.8797,23.1518 -50.2654,33.9166 -17.3501,8.3432 -23.9116,10.5552 -25.1873,8.4911 z m -651.8763,-4.1672 c -21.6116,-9.9535 -43.4241,-25.1702 -61.2965,-42.761 -15.0386,-14.8019 -23.0764,-25.4309 -38.5505,-50.9788 -95.5904,-157.8207 -161.8153,-322.0885 -202.0508,-501.1776 -5.5818,-24.8444 -11.1218,-52.6126 -10.5933,-53.0967 0.2258,-0.2069 31.2471,-7.397 68.9364,-15.978 37.6892,-8.5812 69.1316,-16.2078 69.872,-16.9482 0.7404,-0.7404 2.9221,-10.7975 4.8482,-22.3491 1.9261,-11.5516 3.7934,-22.5281 4.1495,-24.3921 0.393,-2.0569 -0.062,-4.0988 -1.1575,-5.1943 -3.9849,-3.9849 -80.4896,-20.7672 -128.7381,-28.2405 -13.75,-2.1297 -25.7031,-4.1199 -26.5625,-4.4225 C 1020.3679,1637.708 1020,1630.09 1020,1605.77 l 0,-31.8085 14.0625,-9.8646 c 7.7344,-5.4255 23.3206,-16.5368 34.636,-24.6918 48.2379,-34.7646 79.1734,-51.6327 107.948,-58.8607 l 8.373,-2.1033 10.3027,4.0464 c 21.4452,8.4224 45.7369,23.4051 70.9796,43.7792 16.6752,13.459 71.6866,68.2463 84.0757,83.7333 18.8629,23.5794 31.4299,48.7421 35.1979,70.4762 2.6962,15.552 2.5876,17.3333 -3.6443,59.7472 -9.6572,65.7283 -15.5642,130.0715 -18.2256,198.5266 -0.7083,18.2188 -1.7604,45.1596 -2.3379,59.8685 -1.1916,30.3425 0.1138,96.2808 3.0212,152.6315 2.7712,53.7121 3.7655,133.0529 2.005,160 -2.9047,44.4591 -10.633,96.3908 -14.3099,96.1574 -0.8024,-0.051 -5.0226,-1.7339 -9.3783,-3.74 z"
       style="fill:#f9e366" />
    <path
       id="path3350"
       d="m 1682.521,3018.4375 c -2.4957,-5.9719 -4.7797,-274.1891 -2.669,-313.4375 l 0.773,-14.375 94.375,-0.7749 c 51.9063,-0.4262 127.2813,-1.1676 167.5,-1.6473 61.0173,-0.728 73.5063,-0.5886 75.4275,0.8422 2.1951,1.6346 2.3118,5.7955 2.5,89.1474 0.2443,108.1299 -0.9675,123.701 -11.1319,143.0439 -13.656,25.9872 -45.6353,46.9422 -99.2956,65.0648 -50.7431,17.1374 -98.7011,25.1954 -193.125,32.449 -17.875,1.3733 -32.6526,2.4974 -32.8392,2.4983 -0.1867,8e-4 -0.8683,-1.264 -1.5148,-2.8109 z m 1902.0693,-240.5891 c -1.2888,-2.0854 -17.0903,-63.4232 -17.0903,-66.3408 0,-3.2539 -2.37,-2.6921 35.625,-8.444 65.5055,-9.9165 100.3565,-19.1708 133.75,-35.516 38.2828,-18.7382 60.8074,-40.2327 76.261,-72.7739 7.6758,-16.163 13.6453,-46.6672 16.9063,-86.3921 1.656,-20.1725 3.6782,-96.0037 2.6132,-97.994 -0.5669,-1.0595 -3.6702,-0.2328 -10.7881,2.8738 -12.628,5.5115 -55.612,21.3273 -73.9331,27.2036 -36.8813,11.829 -90.4185,17.9919 -144.8093,16.6696 -22.9912,-0.559 -29.9592,-1.1915 -42.5,-3.8582 -46.1258,-9.8082 -84.5626,-30.487 -114.4131,-61.5538 -29.2966,-30.4905 -45.2226,-65.6117 -48.6803,-107.3536 -1.4993,-18.1005 -1.7278,-456.7306 -0.2391,-459.076 0.5523,-0.8701 25.0833,-9.7396 54.5131,-19.71 41.4864,-14.0549 53.895,-17.8076 55.2268,-16.7024 1.4455,1.1998 1.7184,38.2767 1.7226,234.0849 0,255.459 -0.3192,243.9099 7.516,267.2965 6.5441,19.5326 14.717,33.0915 27.8658,46.2293 19.1222,19.1062 48.4308,34.1542 78.3632,40.2345 41.4823,8.4263 83.0959,4.2826 126.25,-12.5715 16.9899,-6.6355 58.5773,-26.9797 69.6875,-34.0906 l 7.8125,-5.0002 0,-259.9425 c 0,-234.6446 0.1911,-260.1336 1.9643,-261.9067 1.7216,-1.7215 8.2726,-1.9643 53.0227,-1.9643 28.0823,0 51.9483,0.3414 53.0358,0.7588 1.7957,0.689 1.9766,29.4096 1.9708,312.8125 0,191.5583 -0.4897,321.2245 -1.258,335.8037 -3.7077,70.3568 -12.9821,130.3485 -24.9901,161.6484 -29.9099,77.963 -122.5536,138.022 -244.2176,158.3211 -35.3506,5.8981 -79.583,9.8501 -81.1876,7.2539 z M 1682.8231,2572.1875 c -0.8059,-1.0214 -1.501,-284.8916 -2.0071,-819.6875 -0.8126,-858.78654 -0.1791,-1205.81028 2.2027,-1206.57795 2.1045,-0.6783 69.5813,1.24351 98.8563,2.81555 99.1877,5.32624 162.4561,16.12146 241.5886,41.22124 132.4906,42.02426 251.5921,113.1076 374.1039,223.27637 25.4155,22.85489 87.4325,84.81541 87.4325,87.35284 0,2.237 0.3034,2.16346 -28.75,6.96826 -72.4889,11.98805 -89.8628,23.52478 -116.7456,77.52247 -28.5055,57.25682 -38.1567,127.50622 -26.9524,196.18292 6.5707,40.275 22.4304,68.0557 62.3034,109.1339 14.187,14.6158 16.4953,17.5268 15.0167,18.936 -0.9609,0.9159 -16.9346,8.8143 -35.4971,17.5519 -99.3715,46.7755 -295.3943,143.2949 -338.75,166.7966 -44.9453,24.3633 -71.8999,42.941 -95.7849,66.0169 -19.9416,19.2661 -32.346,35.4566 -47.8985,62.5185 -38.1064,66.3061 -51.1036,159.9436 -34.567,249.0345 5.9583,32.1003 52.4591,259.877 74.6426,365.625 34.5163,164.5375 34.2269,163.017 35.0905,184.375 2.1087,52.1488 -14.158,90.867 -48.3691,115.129 -31.4229,22.2848 -67.4984,32.7623 -124.1897,36.0688 -32.5188,1.8967 -90.1528,1.7332 -91.7258,-0.2603 z M 5416.25,2459.2501 c -58.9594,-6.8327 -94.2609,-20.3708 -137.3056,-52.6566 -79.7334,-59.804 -125.4788,-166.2737 -125.5534,-292.2185 -0.012,-15.8125 0.6505,-34.6562 1.4664,-41.875 12.0838,-106.9071 59.4835,-189.7292 138.2676,-241.5972 37.6749,-24.8034 78.3909,-39.1225 123.75,-43.5204 18.792,-1.8221 60.4691,-0.7739 77.5,1.9491 44.1427,7.0578 83.7965,23.607 120,50.081 68.6526,50.2026 113.8855,132.6205 125.8658,229.3375 2.1107,17.0403 2.1108,73.7516 1e-4,91.875 -11.8145,101.441 -51.2141,184.1798 -111.932,235.0556 -40.6189,34.0348 -82.0118,52.9645 -134.0598,61.3082 -11.8145,1.8938 -67.2912,3.5023 -77.9991,2.2613 z m 61.6894,-71.2052 c 32.2508,-5.5844 57.5377,-19.2119 80.0455,-43.1376 42.9148,-45.6189 63.7203,-119.9948 63.7885,-228.0323 0.024,-36.7934 -0.7666,-47.5439 -5.6479,-76.875 -6.8827,-41.3579 -20.6656,-77.6436 -40.3342,-106.1862 -8.773,-12.7314 -25.306,-29.842 -38.1982,-39.533 -32.9598,-24.7758 -77.1298,-35.6135 -117.608,-28.8569 -36.2321,6.0479 -61.5265,18.7611 -86.202,43.3261 -32.2325,32.0881 -50.8322,75.5483 -58.0437,135.625 -3.0519,25.425 -4.7951,62.0793 -3.3469,70.3723 0.6848,3.9202 1.5463,16.1277 1.9145,27.1277 2.4219,72.3316 19.1056,133.6506 48.3215,177.5986 10.9214,16.4285 34.4958,40.6535 48.7495,50.0949 28.4284,18.8304 66.4473,25.4224 106.5614,18.4764 z m -1181.0644,67.3526 c -45.73,-3.9535 -104.1204,-20.3749 -152.3093,-42.8346 -33.048,-15.4029 -76.1487,-43.5837 -99.3208,-64.9393 l -5.38,-4.9583 2.4873,-4.7702 c 7.4638,-14.3135 42.4034,-69.8092 44.165,-70.1485 1.1325,-0.218 7.0202,3.3948 13.0834,8.0285 50.0286,38.2325 120.604,70.0872 178.3775,80.5115 32.2908,5.8264 77.4021,6.0224 109.5219,0.4758 35.4572,-6.123 70.839,-24.9817 98.1786,-52.3295 33.9186,-33.929 48.5983,-71.4574 46.4271,-118.6914 -2.5703,-55.9197 -29.6591,-93.3515 -89.6007,-123.8117 -23.8535,-12.1215 -32.4213,-15.3328 -112.3026,-42.0922 -78.8882,-26.4267 -105.0824,-36.2026 -133.6245,-49.87 -58.5972,-28.0592 -94.2452,-59.2477 -115.07,-100.675 -25.7644,-51.2536 -28.1593,-134.8357 -5.6029,-195.5426 34.0754,-91.7081 113.1274,-150.9781 223.47,-167.5486 22.7116,-3.4108 69.4832,-4.6746 93.2187,-2.5191 31.3528,2.8473 63.2067,10.0072 87.0968,19.5768 27.8221,11.1448 72.0436,35.2564 98.8652,53.9062 9.538,6.6318 11.5854,8.6115 11.1609,10.7907 -0.8071,4.1436 -43.5491,69.544 -45.4501,69.544 -0.9275,0 -8.8764,-4.7395 -17.664,-10.5324 -17.7038,-11.6702 -51.1311,-29.3125 -68.4775,-36.1411 -45.5905,-17.947 -101.7618,-22.6515 -151.377,-12.678 -78.668,15.8136 -124.4634,69.7989 -124.5731,146.8515 -0.047,33.4277 7.9361,53.7726 29.7001,75.685 13.5146,13.6069 29.8749,24.7539 53.8067,36.6613 26.3258,13.0983 46.0978,20.3846 120.5683,44.4309 37.4687,12.0987 74.5937,24.3059 82.5,27.1273 60.0982,21.4468 102.8111,48.73 136.1422,86.9626 20.7937,23.8515 32.7788,43.626 40.4934,66.8114 12.0566,36.2346 17.4235,88.5676 12.8006,124.8215 -9.0888,71.2776 -46.6158,132.3557 -111.6201,181.6707 -52.4495,39.7904 -106.6131,59.7613 -178.4411,65.7938 -13.8355,1.1619 -59.601,1.44 -71.25,0.433 z m 660,-1.0199 c -61.3681,-8.5958 -105.0924,-34.4918 -130.9577,-77.5606 -9.6906,-16.1358 -17.0581,-39.825 -19.5324,-62.8035 -0.9576,-8.8938 -1.3849,-78.7825 -1.3849,-226.5434 l 0,-213.6817 -35.9375,-0.3318 -35.9375,-0.3316 0,-34.375 0,-34.375 35.625,-0.625 35.625,-0.625 0.3209,-88.2914 c 0.2833,-77.9905 0.547,-88.4791 2.2596,-89.9005 2.9219,-2.4249 104.5255,-38.516 106.4025,-37.7957 1.3166,0.5052 1.6892,21.2251 1.9476,108.3062 l 0.3194,107.6814 59.375,0.625 59.375,0.625 0,34.375 0,34.375 -59.375,0.625 -59.375,0.625 -0.3728,211.25 c -0.2511,142.4026 0.06,215.5537 0.9529,224.4554 2.5049,24.9555 9.514,43.0382 21.2949,54.9387 14.5786,14.7265 42.5901,25.1883 78.7147,29.3983 9.1904,1.0711 17.1768,2.236 17.7475,2.5887 0.5708,0.3528 1.0378,12.9144 1.0378,27.9146 0,23.777 -0.2634,27.4918 -2.0545,28.9783 -3.0119,2.4996 -59.1219,2.8526 -76.0705,0.4786 z m -2226.7126,-9.8069 c -1.05,-1.2652 -1.3345,-120.6867 -1.1015,-462.2008 l 0.3141,-460.4949 155,-0.856 c 100.8705,-0.557 159.3653,-0.4182 167.5,0.3975 49.8858,5.0024 100.9852,25.9595 139.8807,57.3684 44.676,36.0769 77.4968,88.9076 88.1173,141.8401 23.214,115.6989 -36.1114,230.7381 -141.8575,275.0794 -16.1087,6.7546 -34.4102,12.1087 -54.2655,15.8752 -13.9372,2.6439 -17.877,2.747 -129.375,3.3862 l -115,0.6592 -0.625,215 -0.625,215 -53.2734,0.3258 c -43.7796,0.2677 -53.5257,0.021 -54.6892,-1.3801 z m 309.5282,-508.7167 c 70.4208,-12.8811 118.8464,-62.5621 131.1881,-134.5891 3.1786,-18.5499 2.797,-50.9779 -0.7868,-66.8899 -13.0169,-57.7925 -55.5046,-106.0782 -110.3733,-125.4351 -23.7292,-8.3713 -22.8701,-8.3149 -126.5936,-8.3149 l -93.75,0 -0.3214,167.5 c -0.1767,92.125 -0.041,168.2355 0.3009,169.1344 0.507,1.3316 18.0528,1.5488 94.6964,1.1722 81.6274,-0.401 95.6043,-0.742 105.6397,-2.5776 z m 2858.6428,509.5626 c -0.4584,-0.4582 -0.8334,-221.7822 -0.8334,-491.831 0,-485.1941 0.029,-491.013 2.4327,-492.2996 1.338,-0.7161 25.3559,-9.1496 53.3732,-18.7411 37.9211,-12.9821 51.3561,-17.0941 52.5672,-16.089 1.3279,1.1021 1.6269,58.7507 1.6269,313.6971 0,171.7909 0.4219,312.3345 0.9375,312.3194 0.5156,-0.015 67.2304,-60.2028 148.255,-133.75 C 6237.7171,1845.175 6304.6966,1785 6305.5359,1785 c 2.045,0 53.2141,48.4891 53.2141,50.4271 0,0.8367 -47.2698,44.2193 -105.044,96.4059 -62.4826,56.4396 -104.7949,95.5341 -104.429,96.4874 0.3382,0.8815 60.087,94.0057 132.775,206.9429 72.688,112.937 132.4029,206.6106 132.6998,208.1633 l 0.5397,2.8234 -63.1177,0 c -51.2716,0 -63.3789,-0.3147 -64.5097,-1.6772 -0.7655,-0.9224 -50.8136,-77.563 -111.218,-170.3125 -71.1066,-109.1825 -110.5032,-168.5823 -111.747,-168.4848 -1.0566,0.082 -14.3356,11.3326 -29.509,25 l -27.588,24.8495 -0.051,143.8125 c -0.039,110.1301 -0.4025,144.1639 -1.5511,145.3125 -1.1193,1.1193 -14.8704,1.5 -54.1667,1.5 -28.9667,0 -53.0417,-0.375 -53.5,-0.8334 z m -3903.7515,-37.582 c -1.1828,-1.9136 -5.6223,-29.7292 -7.6347,-47.8346 -4.7408,-42.6532 -5.6865,-103.0496 -3.0532,-195 1.0586,-36.962 1.0489,-78.9149 -0.039,-166.875 -1.8556,-150.0903 -2.6821,-163.1026 -15.1232,-238.109 -9.7648,-58.8708 -10.3033,-75.7865 -3.1331,-98.4192 3.3262,-10.4997 17.0151,-34.2117 29.0296,-50.2859 24.615,-32.9323 57.9377,-64.7195 102.2464,-97.535 17.3761,-12.869 45.8618,-32.5343 59.7156,-41.2249 l 8.4657,-5.3106 20.9093,11.5595 c 30.6836,16.9631 60.2105,34.6031 87.8802,52.5012 24.861,16.0814 56.0272,37.9263 57.6975,40.4411 0.5052,0.7605 0.927,16.0409 0.9375,33.9564 0.014,24.172 -0.3838,33.095 -1.5433,34.5954 -1.1473,1.4846 -6.2135,2.5667 -19.0625,4.072 -37.7834,4.4264 -87.4544,13.5656 -120.625,22.1944 l -15.625,4.0646 -0.3395,23.2699 -0.3394,23.27 14.9397,3.9528 c 29.4862,7.8019 78.7004,18.2434 116.2072,24.655 7.1325,1.2194 13.6621,2.9109 14.5102,3.7592 4.1774,4.1772 -13.767,91.2351 -31.3247,151.9731 -26.296,90.9674 -74.8952,214.5635 -119.5828,304.12 -30.2787,60.6802 -77.743,136.7869 -99.6612,159.8019 -11.5647,12.1432 -27.8797,23.1518 -50.2654,33.9166 -17.3501,8.3432 -23.9116,10.5552 -25.1873,8.4911 z M 952.5,1304.9659 C 847.96595,1291.0131 753.98492,1250.8129 658.75,1179.3147 452.37235,1024.3754 324.07674,772.78558 303.0979,481.875 c -5.40546,-74.95665 8.74899,-151.79272 45.19309,-245.32637 15.09462,-38.74028 43.81158,-99.69523 54.86347,-116.45382 9.20288,-13.95482 27.48155,-33.095815 45.89404,-48.059154 7.65245,-6.21894 9.51433,-5.55082 8.837,3.1711 -2.92179,37.624574 -6.71275,68.679644 -19.12478,156.668244 -6.44055,45.65686 -10.38826,79.15535 -12.44765,105.625 -7.29997,93.82774 2.93009,169.59109 31.5631,233.75472 8.80447,19.72992 50.98815,86.34861 74.83883,118.18942 44.94377,60.00022 94.45024,108.07996 146.61742,142.39202 34.78114,22.8767 63.2269,36.35413 105.04258,49.76851 28.58619,9.17041 41.98145,12.33102 94.09326,22.20135 48.48789,9.18395 66.25091,14.12955 85.62899,23.8409 19.0447,9.54431 35.71588,25.28258 44.23915,41.76359 12.3088,23.80073 23.3442,56.54609 29.7226,88.19579 17.2944,85.8139 2.7593,166.1161 -40.36759,223.0187 -8.20855,10.8305 -24.04322,26.8988 -26.34567,26.7341 -1.08392,-0.077 -9.56449,-1.1544 -18.84574,-2.3932 z"
       style="fill:#a3a5a0" />
    <path
       id="path3348"
       d="m 1684.4334,3018.8445 c -1.731,-2.8008 -3.2628,-117.9104 -2.9206,-219.4695 l 0.3622,-107.5 102.5,-0.7854 c 56.375,-0.4318 131.4688,-1.1372 166.875,-1.5672 35.4063,-0.4301 65.0675,-0.3313 65.914,0.2196 2.2634,1.4729 3.7089,146.0136 1.734,173.383 -1.9452,26.9579 -3.5284,38.5327 -6.5295,47.738 -7.6136,23.3533 -32.43,45.4389 -68.6185,61.0675 -59.9732,25.9006 -121.6386,38.1496 -229.375,45.5625 -10.3125,0.7095 -21.0907,1.5909 -23.9516,1.9585 -2.9425,0.3781 -5.5441,0.115 -5.99,-0.607 z m 1900.5662,-244.157 c -1.5652,-3.6786 -16.2496,-60.4431 -16.2496,-62.8154 0,-2.2618 0.02,-2.2663 31.25,-6.9513 67.9838,-10.1989 104.0531,-19.7132 137.166,-36.1814 23.3824,-11.6289 35.1339,-19.6114 48.6115,-33.0201 35.4045,-35.2239 45.0889,-72.3742 47.9085,-183.7834 0.5734,-22.6539 0.7447,-41.9649 0.3809,-42.9131 -0.8038,-2.0947 -0.3999,-2.2179 -22.8169,6.9651 -72.4999,29.6991 -112.4784,38.2499 -186.25,39.8359 -26.5474,0.5707 -36.1036,0.312 -48.125,-1.3032 -63.661,-8.5531 -118.7884,-41.2183 -150.0245,-88.8956 -17.517,-26.7372 -25.5499,-50.6205 -28.1145,-83.5899 -0.6754,-8.6823 -1.1914,-108.9282 -1.2076,-234.6087 -0.023,-173.7307 0.2971,-219.8505 1.5341,-221.3779 1.4826,-1.8305 101.2371,-36.0485 105.0913,-36.0485 1.0058,0 2.1702,0.8898 2.5875,1.9773 0.4173,1.0874 0.7587,106.2012 0.7587,233.5862 0,202.953 0.2382,232.9825 1.9257,242.7102 5.2183,30.0799 17.6,54.3524 36.7884,72.1174 42.8321,39.655 112.935,52.325 180.7612,32.6698 22.1658,-6.4234 62.4722,-24.5758 87.7122,-39.502 l 12.8125,-7.5769 0,-259.7767 c 0,-234.4941 0.1911,-259.9679 1.9643,-261.7411 1.72,-1.72 8.1589,-1.9642 51.7727,-1.9642 27.3948,0 50.6982,0.3414 51.7858,0.7587 1.7956,0.689 1.9766,29.2444 1.9708,310.9375 0,190.4674 -0.4899,319.3449 -1.259,333.9288 -4.4673,84.7129 -15.297,146.4111 -31.2946,178.2911 -10.2741,20.474 -28.1844,43.7431 -45.2311,58.7645 -58.1741,51.2624 -142.678,82.48 -246.3395,91.0034 -23.1469,1.9031 -24.4554,1.8275 -25.8698,-1.4965 z m -1901.3762,-204.924 c -1.1105,-2.0751 -1.3478,-66.8052 -0.9814,-267.8125 0.2656,-145.7917 0.2904,-493.1697 0.055,-771.951 -0.2354,-278.7812 -0.376,-613.98136 -0.3125,-744.88914 l 0.115,-238.01415 38.59,0.82538 c 108.5556,2.32182 189.1111,11.75849 258.91,30.33001 19.1394,5.09244 66.6825,20.3299 85.625,27.4426 115.1411,43.23415 227.3452,114.02496 332.5,209.77783 20.207,18.4003 84.375,82.3488 84.375,84.08638 0,1.71184 0.4962,1.59842 -29.375,6.71512 -68.967,11.81352 -88.4893,24.74315 -113.9995,75.50231 -30.1455,59.98206 -39.7807,129.85896 -27.8655,202.08606 6.2657,37.9811 23.6821,68.08 62.3298,107.7181 10.1322,10.392 15.1631,16.4166 14.3706,17.2091 -0.6707,0.6706 -20.5954,10.419 -44.2774,21.663 -161.719,76.7833 -317.0216,154.1114 -356.183,177.3504 -24.7901,14.7109 -44.4983,28.8976 -62.8816,45.265 -42.6308,37.9556 -75.3197,98.3904 -88.3344,163.3116 -5.3483,26.6787 -6.7736,42.8449 -6.7665,76.7454 0.013,31.7736 0.9834,45.3189 5.0024,69.375 3.4881,20.8783 54.4876,271.4896 80.5098,395.625 30.476,145.381 29.8515,142.0608 30.7974,163.75 1.9113,43.8296 -10.2874,79.3646 -35.4704,103.3255 -23.1768,22.0523 -61.0124,37.7519 -104.7317,43.4576 -16.454,2.1474 -55.4731,3.8287 -89.0185,3.8355 -31.1504,0 -31.5356,-0.026 -32.9831,-2.7301 z M 5411.25,2457.4181 c -32.1767,-3.5141 -63.2917,-12.1561 -87.6864,-24.3543 -82.5405,-41.2733 -138.7402,-120.6024 -159.7209,-225.4549 -22.2611,-111.2516 -4.8653,-216.8082 48.7369,-295.7339 42.7116,-62.89 110.7686,-108.2285 179.9204,-119.86 27.5934,-4.6412 58.8344,-5.8025 85.7204,-3.1862 118.4518,11.5265 212.8222,95.2446 248.6083,220.5462 10.3805,36.346 13.6807,61.4999 13.6938,104.375 0.012,36.9229 -1.7786,56.3384 -8.1245,88.125 -14.321,71.7339 -43.2514,130.7087 -85.4554,174.2015 -15.6855,16.1646 -27.9051,26.4143 -45.5285,38.1889 -32.7737,21.8968 -67.1609,35.1207 -107.6641,41.4035 -15.5625,2.414 -66.5203,3.4944 -82.5,1.7492 z m 53.4867,-66.2387 c 30.8283,-3.354 54.8094,-12.2868 75.1767,-28.0026 10.9337,-8.4368 28.8617,-27.7718 36.7015,-39.5818 22.3765,-33.7085 36.1911,-76.74 42.6881,-132.97 9.2309,-79.891 3.4185,-153.598 -16.2863,-206.5279 -18.5832,-49.9172 -49.8088,-86.778 -89.8917,-106.1141 -25.0609,-12.0894 -56.2739,-18.0937 -80.51,-15.4875 -43.6675,4.696 -74.1919,18.8541 -101.4779,47.0688 -34.7491,35.9316 -52.6756,82.7298 -58.5834,152.9357 -4.781,56.8151 2.3539,137.9738 16.3682,186.1867 14.4931,49.8602 41.5273,91.9358 75.4531,117.4338 26.9896,20.2847 62.575,29.17 100.3617,25.0589 z m -1176.7353,61.9745 c -62.0555,-7.1213 -133.7015,-32.4904 -188.1952,-66.638 -26.2587,-16.4547 -57.3062,-40.7635 -57.3062,-44.8683 0,-2.7992 42.7064,-72.8976 44.4117,-72.8976 0.7708,0 4.7341,2.6017 8.8073,5.7818 27.0126,21.0885 65.4075,43.2697 100.0361,57.7923 57.5314,24.1278 106.3309,32.933 161.1199,29.0721 34.894,-2.4588 52.151,-6.5993 76.25,-18.2946 20.1792,-9.793 34.785,-19.8722 49.918,-34.4479 16.7099,-16.0946 26.4597,-29.061 35.1744,-46.7787 11.121,-22.6101 15.5326,-42.1158 15.5326,-68.6767 0,-29.8208 -7.6261,-56.2198 -22.6767,-78.4996 -16.7201,-24.7508 -53.9014,-50.271 -99.8233,-68.5156 -7.2188,-2.868 -46.3125,-16.332 -86.875,-29.92 -80.2326,-26.8772 -102.0381,-35.1251 -132.5,-50.1181 -35.9114,-17.6753 -56.214,-31.7922 -77.6583,-53.9977 -14.6888,-15.2106 -23.0362,-26.7352 -31.4327,-43.3973 -20.4453,-40.572 -26.7082,-102.8859 -15.8107,-157.3093 14.2254,-71.0435 56.2721,-129.5386 119.4888,-166.2323 32.2931,-18.7443 73.8176,-32.3056 117.439,-38.3541 19.7186,-2.7342 65.2268,-3.7889 86.0989,-1.9957 54.5991,4.691 93.738,17.5709 148.75,48.9512 21.5781,12.3086 50,31.2853 50,33.384 0,1.8517 -41.9684,67.3301 -43.934,68.545 -0.64,0.3955 -7.1885,-3.1735 -14.5523,-7.9312 -20.7646,-13.4157 -26.8051,-16.827 -49.954,-28.2101 -40.8811,-20.1025 -73.9052,-27.6359 -120.9347,-27.587 -40.6226,0.043 -71.0145,6.3273 -99.375,20.551 -42.591,21.3608 -68.6041,56.5066 -77.0817,104.1439 -3.0652,17.2235 -2.7382,44.887 0.6817,57.6696 10.4221,38.9554 38.8777,65.7419 97.577,91.8531 21.0511,9.3642 40.5867,16.1948 118.198,41.3278 38.5,12.4676 76.4687,25.2105 84.375,28.3175 46.4077,18.2377 78.2377,38.3749 108.1382,68.4134 35.0914,35.2531 51.0145,64.0338 59.8695,108.2132 13.2028,65.8713 7.4203,120.7631 -18.1715,172.5 -18.8128,38.0324 -46.101,70.924 -81.1728,97.8413 -7.8587,6.0313 -16.4114,12.684 -19.0062,14.7835 -6.8396,5.5341 -19.4946,13.0216 -35.9072,21.2451 -35.4968,17.7855 -69.0939,27.7309 -111.875,33.1174 -21.4195,2.6968 -78.3594,3.3772 -97.6236,1.1666 z m 673.3825,0.4976 c -65.304,-7.3262 -114.4093,-37.5274 -138.1603,-84.9722 -6.2485,-12.4819 -10.7197,-25.9912 -14.0432,-42.4293 -1.9659,-9.7239 -2.2078,-29.3885 -2.8518,-231.875 l -0.7036,-221.25 -35.625,-0.625 -35.625,-0.625 -0.3329,-33.4182 -0.3328,-33.4184 35.9578,-0.3316 35.9579,-0.3318 0.3209,-89.023 c 0.2997,-83.1927 0.4635,-89.098 2.5,-90.1691 4.2839,-2.2531 101.0569,-36.4329 103.1522,-36.4329 1.9984,0 2.1589,7.0423 2.4574,107.8125 l 0.3195,107.8125 59.375,0.625 59.375,0.625 0,33.125 0,33.125 -59.375,0.625 -59.375,0.625 0,219.375 c 0,235.2206 -0.2291,226.3632 6.3765,246.4904 6.2056,18.9082 17.6496,31.9366 35.7875,40.7421 18.0088,8.7428 33.0498,12.527 69.086,17.382 l 7.5,1.0105 0.338,26.787 c 0.2086,16.5296 -0.1371,27.2621 -0.9029,28.0279 -1.664,1.664 -57.6941,2.2241 -71.1762,0.7116 z m -2230.8003,-10.2004 c -0.329,-0.8668 -0.4544,-208.2948 -0.2785,-460.9511 l 0.3199,-459.375 154.375,-0.8355 c 171.6191,-0.9289 173.0136,-0.8809 204.4129,7.028 75.5096,19.0195 138.2502,69.8376 171.3731,138.8075 34.1676,71.1451 29.6459,159.3694 -11.7361,228.9856 -36.3577,61.1639 -93.909,100.165 -167.7999,113.7142 -10.5379,1.9322 -24.8939,2.2547 -127.5,2.8638 l -115.625,0.6864 -0.625,215 -0.625,215 -52.8465,0.3261 c -41.6106,0.2568 -52.9738,-0.013 -53.4449,-1.25 z m 296.3868,-504.8197 c 39.012,-3.91 71.0773,-18.2916 97.2615,-43.6224 32.1185,-31.0717 48.1142,-69.2374 50.2975,-120.009 1.5345,-35.6876 -8.3929,-70.0136 -29.2364,-101.0899 -9.1301,-13.6126 -26.4948,-31.8195 -40.2214,-42.1726 -13.8957,-10.4806 -39.6901,-23.288 -55.0694,-27.3429 -19.9933,-5.2715 -32.1451,-5.7958 -125.0022,-5.3948 l -86.875,0.3752 -0.3214,168.75 c -0.1767,92.8125 -0.054,169.4531 0.2733,170.3125 0.7892,2.0739 168.4199,2.246 188.8935,0.1939 z M 5899.5967,2444.18 c -0.4657,-0.4656 -0.8467,-221.184 -0.8467,-490.4852 0,-390.2015 0.3174,-489.8962 1.5625,-490.9064 2.924,-2.3724 102.0727,-35.5999 104.0097,-34.8566 1.7299,0.6638 1.9278,32.884 1.9278,313.904 0,172.2403 0.4686,313.1642 1.0415,313.1642 0.5729,0 67.651,-60.4665 149.0625,-134.37 81.4115,-73.9035 148.649,-134.2316 149.4165,-134.0625 1.7876,0.3939 51.7295,47.3646 51.7295,48.652 0,1.0368 -6.1489,6.65 -128.0356,116.8844 -43.9509,39.7491 -80.43,73.1279 -81.0648,74.1749 -0.8727,1.4401 31.1913,52.136 131.6345,208.125 73.0335,113.4217 133.0626,207.2056 133.3979,208.4087 0.5746,2.0623 -2.9249,2.1864 -61.0988,2.1684 -33.9395,-0.012 -62.3218,-0.4324 -63.0717,-0.9375 -0.75,-0.5051 -50.7486,-76.8559 -111.1083,-169.6684 -60.3595,-92.8125 -110.4311,-169.4931 -111.2701,-170.4015 -1.7762,-1.9231 -0.8415,-2.6796 -36.5899,29.6069 l -24.0328,21.7054 -0.3177,144.5446 -0.3177,144.5446 -52.5908,0.3259 c -28.925,0.1792 -52.9718,-0.055 -53.4375,-0.5209 z m -3905.6853,-44.4925 c -9.5553,-55.4912 -11.6324,-107.5522 -8.9399,-224.0625 1.2901,-55.8239 1.3229,-93.2894 0.1618,-185 -1.8078,-142.7857 -2.6504,-156.3064 -14.0217,-225 -8.4278,-50.913 -8.66,-52.7631 -8.7762,-69.9405 -0.1666,-24.6402 3.9195,-37.8237 19.5606,-63.1094 24.953,-40.3396 64.8183,-80.4996 119.979,-120.8661 25.0041,-18.2979 60.3359,-41.709 62.9468,-41.709 2.9498,0 36.6682,18.479 69.5532,38.1179 24.0764,14.3782 69.6428,44.2835 86.5625,56.8109 l 10.3125,7.6355 0,32.9397 c 0,24.8383 -0.3842,33.2536 -1.5625,34.2156 -0.8594,0.7017 -11.125,2.4873 -22.8125,3.9682 -41.5645,5.2665 -88.8946,14.1503 -121.875,22.8761 l -10.625,2.8111 -0.3395,24.077 c -0.3384,23.995 -0.3299,24.0811 2.5,25.293 9.4356,4.0411 73.2006,18.2568 115.3395,25.7136 14.4375,2.5549 26.8721,5.2688 27.6325,6.0308 1.0101,1.0124 0.6218,6.0992 -1.4421,18.8856 -14.6567,90.8068 -42.1426,183.0103 -89.9895,301.875 -43.9938,109.2925 -85.6458,190.4534 -133.2757,259.6941 -21.6081,31.4123 -27.0422,37.5268 -44.1752,49.7072 -12.5431,8.9172 -48.4294,26.8487 -53.7325,26.8487 -1.0299,0 -2.1343,-2.8941 -2.9811,-7.8125 z M 953.75,1303.6739 C 812.36729,1286.0835 676.10907,1211.3577 556.38176,1085.7517 427.83016,950.88821 341.74504,764.83236 312.54633,558.75 304.29544,500.51589 301.69581,444.37436 305.57166,408.125 314.07789,328.56931 338.1016,253.33025 387.19234,152.5 400.77251,124.6069 408.10867,113.3805 422.79396,98.019419 433.23498,87.09793 453.7157,68.75 455.4657,68.75 c 3.42141,0 -2.17621,51.19092 -17.35899,158.75 -10.54035,74.67082 -13.7911,107.30875 -15.1268,151.875 -2.07775,69.32484 8.36589,132.38049 30.62494,184.90453 6.89468,16.26917 26.41168,49.93566 48.0475,82.88112 64.24443,97.82673 138.22747,169.29058 216.47265,209.10151 41.87146,21.3041 84.5401,34.46067 158.125,48.75671 41.44364,8.05167 45.94965,9.1075 65,15.23079 32.51294,10.4505 56.05319,29.02418 67.6084,53.34423 21.2778,44.78311 34.9191,105.08441 34.8791,154.18311 -0.047,58.1168 -18.1518,115.3257 -48.56859,153.473 -7.32127,9.182 -20.49316,23.0721 -22.59238,23.8243 -1.07334,0.3845 -9.54528,-0.2457 -18.82653,-1.4004 z"
       style="fill:#5e8fae" />
    <path
       id="path3346"
       d="m 1684.2667,2999.0625 c -0.5462,-10.1406 -1.0266,-83.125 -1.0675,-162.1875 l -0.074,-143.75 166.6769,-1.0315 c 91.6722,-0.5673 166.9052,-0.803 167.1845,-0.5238 0.2792,0.2792 0.6496,38.9934 0.8231,86.0316 0.2748,74.4916 0.038,87.8893 -1.8448,103.8631 -2.8069,23.8302 -3.9416,28.5737 -9.2519,38.6793 -11.5883,22.0527 -36.1804,39.7487 -78.5878,56.5504 -42.9213,17.0054 -91.4026,27.574 -158.3086,34.5104 -16.9378,1.756 -74.5114,6.2825 -79.9989,6.2896 l -4.5576,0 -0.9931,-18.4375 z m 1900.7329,-224.375 c -1.5652,-3.6786 -16.2496,-60.4431 -16.2496,-62.8154 0,-2.2618 0.02,-2.2663 31.25,-6.9513 67.9838,-10.1989 104.0531,-19.7132 137.166,-36.1814 23.3824,-11.6289 35.1339,-19.6114 48.6115,-33.0201 35.4045,-35.2239 45.0889,-72.3742 47.9085,-183.7834 0.5734,-22.6539 0.7447,-41.9649 0.3809,-42.9131 -0.8038,-2.0947 -0.3999,-2.2179 -22.8169,6.9651 -72.4999,29.6991 -112.4784,38.2499 -186.25,39.8359 -26.5474,0.5707 -36.1036,0.312 -48.125,-1.3032 -63.661,-8.5531 -118.7884,-41.2183 -150.0245,-88.8956 -17.517,-26.7372 -25.5499,-50.6205 -28.1145,-83.5899 -0.6754,-8.6823 -1.1914,-108.9282 -1.2076,-234.6087 -0.023,-173.7307 0.2971,-219.8505 1.5341,-221.3779 1.4826,-1.8305 101.2371,-36.0485 105.0913,-36.0485 1.0058,0 2.1702,0.8898 2.5875,1.9773 0.4173,1.0874 0.7587,106.2012 0.7587,233.5862 0,202.953 0.2382,232.9825 1.9257,242.7102 5.2183,30.0799 17.6,54.3524 36.7884,72.1174 42.8321,39.655 112.935,52.325 180.7612,32.6698 22.1658,-6.4234 62.4722,-24.5758 87.7122,-39.502 l 12.8125,-7.5769 0,-259.7767 c 0,-234.4941 0.1911,-259.9679 1.9643,-261.7411 1.72,-1.72 8.1589,-1.9642 51.7727,-1.9642 27.3948,0 50.6982,0.3414 51.7858,0.7587 1.7956,0.689 1.9766,29.2444 1.9708,310.9375 0,190.4674 -0.4899,319.3449 -1.259,333.9288 -4.4673,84.7129 -15.297,146.4111 -31.2946,178.2911 -10.2741,20.474 -28.1844,43.7431 -45.2311,58.7645 -58.1741,51.2624 -142.678,82.48 -246.3395,91.0034 -23.1469,1.9031 -24.4554,1.8275 -25.8698,-1.4965 z M 1684.5688,2469.8311 c -1.0424,-125.1026 -1.6989,-1195.823 -1.0574,-1724.67754 l 0.2386,-196.72145 30.3125,0.82548 c 107.6048,2.9303 173.3832,9.53885 237.8125,23.89222 25.5539,5.69283 32.727,7.66014 66.5806,18.26049 124.6325,39.02536 237.2569,103.28059 349.0444,199.1393 42.511,36.45356 115.645,107.7321 112.312,109.46256 -0.9279,0.4817 -7.8745,1.84145 -15.437,3.02165 -49.7977,7.77145 -74.442,15.88665 -92.6449,30.50742 -22.3291,17.93506 -47.8173,68.77337 -58.5108,116.70437 -9.5367,42.7456 -10.6773,90.5046 -3.2054,134.2107 6.4602,37.7884 23.2557,67.1693 59.761,104.5423 9.1994,9.4179 16.5216,17.7369 16.2717,18.4865 -0.2498,0.7497 -23.2282,12.197 -51.063,25.4388 -107.8891,51.3255 -273.9094,133.1115 -316.4948,155.9136 -79.2307,42.4238 -117.0882,75.7574 -147.9722,130.2896 -22.6518,39.9968 -37.1352,87.7875 -41.7456,137.7479 -2.6916,29.1676 -1.097,73.5401 3.7282,103.7455 2.7369,17.1316 53.2659,265.5049 80.6142,396.2545 15.3866,73.5625 28.6781,138.5313 29.5365,144.375 2.4997,17.0169 1.8646,46.9791 -1.3214,62.3428 -11.9576,57.6623 -54.3799,90.805 -131.6569,102.8576 -14.1691,2.2099 -24.2852,2.671 -70.4062,3.2087 l -53.8595,0.6282 -0.8371,-100.4562 z m 3726.6812,-12.413 c -32.1767,-3.5141 -63.2917,-12.1561 -87.6864,-24.3543 -82.5405,-41.2733 -138.7402,-120.6024 -159.7209,-225.4549 -22.2611,-111.2516 -4.8653,-216.8082 48.7369,-295.7339 42.7116,-62.89 110.7686,-108.2285 179.9204,-119.86 27.5934,-4.6412 58.8344,-5.8025 85.7204,-3.1862 118.4518,11.5265 212.8222,95.2446 248.6083,220.5462 10.3805,36.346 13.6807,61.4999 13.6938,104.375 0.012,36.9229 -1.7786,56.3384 -8.1245,88.125 -14.321,71.7339 -43.2514,130.7087 -85.4554,174.2015 -15.6855,16.1646 -27.9051,26.4143 -45.5285,38.1889 -32.7737,21.8968 -67.1609,35.1207 -107.6641,41.4035 -15.5625,2.414 -66.5203,3.4944 -82.5,1.7492 z m 53.4867,-66.2387 c 30.8283,-3.354 54.8094,-12.2868 75.1767,-28.0026 10.9337,-8.4368 28.8617,-27.7718 36.7015,-39.5818 22.3765,-33.7085 36.1911,-76.74 42.6881,-132.97 9.2309,-79.891 3.4185,-153.598 -16.2863,-206.5279 -18.5832,-49.9172 -49.8088,-86.778 -89.8917,-106.1141 -25.0609,-12.0894 -56.2739,-18.0937 -80.51,-15.4875 -43.6675,4.696 -74.1919,18.8541 -101.4779,47.0688 -34.7491,35.9316 -52.6756,82.7298 -58.5834,152.9357 -4.781,56.8151 2.3539,137.9738 16.3682,186.1867 14.4931,49.8602 41.5273,91.9358 75.4531,117.4338 26.9896,20.2847 62.575,29.17 100.3617,25.0589 z m -1176.7353,61.9745 c -62.0555,-7.1213 -133.7015,-32.4904 -188.1952,-66.638 -26.2587,-16.4547 -57.3062,-40.7635 -57.3062,-44.8683 0,-2.7992 42.7064,-72.8976 44.4117,-72.8976 0.7708,0 4.7341,2.6017 8.8073,5.7818 27.0126,21.0885 65.4075,43.2697 100.0361,57.7923 57.5314,24.1278 106.3309,32.933 161.1199,29.0721 34.894,-2.4588 52.151,-6.5993 76.25,-18.2946 20.1792,-9.793 34.785,-19.8722 49.918,-34.4479 16.7099,-16.0946 26.4597,-29.061 35.1744,-46.7787 11.121,-22.6101 15.5326,-42.1158 15.5326,-68.6767 0,-29.8208 -7.6261,-56.2198 -22.6767,-78.4996 -16.7201,-24.7508 -53.9014,-50.271 -99.8233,-68.5156 -7.2188,-2.868 -46.3125,-16.332 -86.875,-29.92 -80.2326,-26.8772 -102.0381,-35.1251 -132.5,-50.1181 -35.9114,-17.6753 -56.214,-31.7922 -77.6583,-53.9977 -14.6888,-15.2106 -23.0362,-26.7352 -31.4327,-43.3973 -20.4453,-40.572 -26.7082,-102.8859 -15.8107,-157.3093 14.2254,-71.0435 56.2721,-129.5386 119.4888,-166.2323 32.2931,-18.7443 73.8176,-32.3056 117.439,-38.3541 19.7186,-2.7342 65.2268,-3.7889 86.0989,-1.9957 54.5991,4.691 93.738,17.5709 148.75,48.9512 21.5781,12.3086 50,31.2853 50,33.384 0,1.8517 -41.9684,67.3301 -43.934,68.545 -0.64,0.3955 -7.1885,-3.1735 -14.5523,-7.9312 -20.7646,-13.4157 -26.8051,-16.827 -49.954,-28.2101 -40.8811,-20.1025 -73.9052,-27.6359 -120.9347,-27.587 -40.6226,0.043 -71.0145,6.3273 -99.375,20.551 -42.591,21.3608 -68.6041,56.5066 -77.0817,104.1439 -3.0652,17.2235 -2.7382,44.887 0.6817,57.6696 10.4221,38.9554 38.8777,65.7419 97.577,91.8531 21.0511,9.3642 40.5867,16.1948 118.198,41.3278 38.5,12.4676 76.4687,25.2105 84.375,28.3175 46.4077,18.2377 78.2377,38.3749 108.1382,68.4134 35.0914,35.2531 51.0145,64.0338 59.8695,108.2132 13.2028,65.8713 7.4203,120.7631 -18.1715,172.5 -18.8128,38.0324 -46.101,70.924 -81.1728,97.8413 -7.8587,6.0313 -16.4114,12.684 -19.0062,14.7835 -6.8396,5.5341 -19.4946,13.0216 -35.9072,21.2451 -35.4968,17.7855 -69.0939,27.7309 -111.875,33.1174 -21.4195,2.6968 -78.3594,3.3772 -97.6236,1.1666 z m 673.3825,0.4976 c -65.304,-7.3262 -114.4093,-37.5274 -138.1603,-84.9722 -6.2485,-12.4819 -10.7197,-25.9912 -14.0432,-42.4293 -1.9659,-9.7239 -2.2078,-29.3885 -2.8518,-231.875 l -0.7036,-221.25 -35.625,-0.625 -35.625,-0.625 -0.3329,-33.4182 -0.3328,-33.4184 35.9578,-0.3316 35.9579,-0.3318 0.3209,-89.023 c 0.2997,-83.1927 0.4635,-89.098 2.5,-90.1691 4.2839,-2.2531 101.0569,-36.4329 103.1522,-36.4329 1.9984,0 2.1589,7.0423 2.4574,107.8125 l 0.3195,107.8125 59.375,0.625 59.375,0.625 0,33.125 0,33.125 -59.375,0.625 -59.375,0.625 0,219.375 c 0,235.2206 -0.2291,226.3632 6.3765,246.4904 6.2056,18.9082 17.6496,31.9366 35.7875,40.7421 18.0088,8.7428 33.0498,12.527 69.086,17.382 l 7.5,1.0105 0.338,26.787 c 0.2086,16.5296 -0.1371,27.2621 -0.9029,28.0279 -1.664,1.664 -57.6941,2.2241 -71.1762,0.7116 z m -2230.8003,-10.2004 c -0.329,-0.8668 -0.4544,-208.2948 -0.2785,-460.9511 l 0.3199,-459.375 154.375,-0.8355 c 171.6191,-0.9289 173.0136,-0.8809 204.4129,7.028 75.5096,19.0195 138.2502,69.8376 171.3731,138.8075 34.1676,71.1451 29.6459,159.3694 -11.7361,228.9856 -36.3577,61.1639 -93.909,100.165 -167.7999,113.7142 -10.5379,1.9322 -24.8939,2.2547 -127.5,2.8638 l -115.625,0.6864 -0.625,215 -0.625,215 -52.8465,0.3261 c -41.6106,0.2568 -52.9738,-0.013 -53.4449,-1.25 z m 296.3868,-504.8197 c 39.012,-3.91 71.0773,-18.2916 97.2615,-43.6224 32.1185,-31.0717 48.1142,-69.2374 50.2975,-120.009 1.5345,-35.6876 -8.3929,-70.0136 -29.2364,-101.0899 -9.1301,-13.6126 -26.4948,-31.8195 -40.2214,-42.1726 -13.8957,-10.4806 -39.6901,-23.288 -55.0694,-27.3429 -19.9933,-5.2715 -32.1451,-5.7958 -125.0022,-5.3948 l -86.875,0.3752 -0.3214,168.75 c -0.1767,92.8125 -0.054,169.4531 0.2733,170.3125 0.7892,2.0739 168.4199,2.246 188.8935,0.1939 z M 5899.5967,2444.18 c -0.4657,-0.4656 -0.8467,-221.184 -0.8467,-490.4852 0,-390.2015 0.3174,-489.8962 1.5625,-490.9064 2.924,-2.3724 102.0727,-35.5999 104.0097,-34.8566 1.7299,0.6638 1.9278,32.884 1.9278,313.904 0,172.2403 0.4686,313.1642 1.0415,313.1642 0.5729,0 67.651,-60.4665 149.0625,-134.37 81.4115,-73.9035 148.649,-134.2316 149.4165,-134.0625 1.7876,0.3939 51.7295,47.3646 51.7295,48.652 0,1.0368 -6.1489,6.65 -128.0356,116.8844 -43.9509,39.7491 -80.43,73.1279 -81.0648,74.1749 -0.8727,1.4401 31.1913,52.136 131.6345,208.125 73.0335,113.4217 133.0626,207.2056 133.3979,208.4087 0.5746,2.0623 -2.9249,2.1864 -61.0988,2.1684 -33.9395,-0.012 -62.3218,-0.4324 -63.0717,-0.9375 -0.75,-0.5051 -50.7486,-76.8559 -111.1083,-169.6684 -60.3595,-92.8125 -110.4311,-169.4931 -111.2701,-170.4015 -1.7762,-1.9231 -0.8415,-2.6796 -36.5899,29.6069 l -24.0328,21.7054 -0.3177,144.5446 -0.3177,144.5446 -52.5908,0.3259 c -28.925,0.1792 -52.9718,-0.055 -53.4375,-0.5209 z m -3905.7056,-55.0844 c -8.0181,-51.4992 -9.9197,-99.794 -7.6672,-194.7206 2.0457,-86.2111 2.1343,-106.1865 0.9093,-205 -1.6588,-133.8044 -3.3068,-158.295 -15.435,-229.375 -6.7418,-39.5121 -7.1471,-43.0741 -7.1811,-63.125 -0.053,-30.8982 2.8411,-39.56 23.5935,-70.625 14.8885,-22.2872 24.903,-34.3605 45.7089,-55.1057 19.3826,-19.3263 36.1831,-33.6255 63.6947,-54.2123 19.387,-14.5071 65.4444,-45.682 67.49,-45.682 1.9038,0 36.0847,18.939 63.1208,34.9741 36.6432,21.7332 88.8622,56.2202 99.0625,65.4239 3.2285,2.9131 3.4526,8.1509 1.9942,46.5954 l -0.8106,21.3685 -13.873,1.5264 c -35.1882,3.8716 -79.9164,11.8515 -117.3966,20.9445 -21.3328,5.1755 -23.632,5.9921 -24.6875,8.7685 -1.8553,4.8795 -1.4824,44.4855 0.4435,47.1193 2.9225,3.9968 76.9995,21.226 127.1425,29.5714 9.2812,1.5448 17.37,3.2528 17.9749,3.7958 1.42,1.2742 -1.7329,21.9464 -8.6609,56.7872 -14.8206,74.5331 -39.1446,152.9794 -77.1304,248.75 -47.434,119.5915 -87.7732,198.8036 -140.654,276.1949 -23.4389,34.303 -37.9992,47.0011 -73.1235,63.7714 -24.2237,11.5658 -21.3679,12.4681 -24.515,-7.7457 z M 951.875,1301.87 C 810.62709,1284.1509 668.0569,1204.5554 551.33679,1078.2534 408.61295,923.81306 322.86304,715.05238 306.11345,481.25 c -5.97615,-83.41931 13.83244,-175.26621 60.79189,-281.875 12.12253,-27.52095 32.3016,-68.26586 38.6917,-78.125 6.02786,-9.30026 36.79065,-41.383251 45.50516,-47.458055 l 4.22721,-2.946743 -0.8431,11.139899 C 452.22346,111.88405 449.63464,132.661 435.65411,233.125 424.44326,313.68609 421.26942,349.11597 421.2652,393.75 c -0.007,83.46841 15.01311,147.51846 47.7834,203.75 55.87872,95.884 117.30841,169.17282 183.4605,218.87791 61.70149,46.36104 118.20351,69.86599 209.9909,87.35664 57.0732,10.87565 69.15688,13.77807 88.54264,21.26741 20.81087,8.0399 39.87982,22.32975 49.97866,37.45296 9.3969,14.07183 23.7748,51.56728 30.694,80.04508 18.1904,74.8677 12.7637,146.3553 -15.3556,202.2818 -10.47,20.824 -21.31427,36.4081 -35.5965,51.1557 -8.58637,8.8661 -7.41702,8.626 -28.8882,5.9325 z"
       style="fill:#3a78a7" />
    <path
       id="path3344"
       d="m 3584.9996,2774.6875 c -1.5652,-3.6786 -16.2496,-60.4431 -16.2496,-62.8154 0,-2.2618 0.02,-2.2663 31.25,-6.9513 67.9838,-10.1989 104.0531,-19.7132 137.166,-36.1814 23.3824,-11.6289 35.1339,-19.6114 48.6115,-33.0201 35.4045,-35.2239 45.0889,-72.3742 47.9085,-183.7834 0.5734,-22.6539 0.7447,-41.9649 0.3809,-42.9131 -0.8038,-2.0947 -0.3999,-2.2179 -22.8169,6.9651 -72.4999,29.6991 -112.4784,38.2499 -186.25,39.8359 -26.5474,0.5707 -36.1036,0.312 -48.125,-1.3032 -63.661,-8.5531 -118.7884,-41.2183 -150.0245,-88.8956 -17.517,-26.7372 -25.5499,-50.6205 -28.1145,-83.5899 -0.6754,-8.6823 -1.1914,-108.9282 -1.2076,-234.6087 -0.023,-173.7307 0.2971,-219.8505 1.5341,-221.3779 1.4826,-1.8305 101.2371,-36.0485 105.0913,-36.0485 1.0058,0 2.1702,0.8898 2.5875,1.9773 0.4173,1.0874 0.7587,106.2012 0.7587,233.5862 0,202.953 0.2382,232.9825 1.9257,242.7102 5.2183,30.0799 17.6,54.3524 36.7884,72.1174 42.8321,39.655 112.935,52.325 180.7612,32.6698 22.1658,-6.4234 62.4722,-24.5758 87.7122,-39.502 l 12.8125,-7.5769 0,-259.7767 c 0,-234.4941 0.1911,-259.9679 1.9643,-261.7411 1.72,-1.72 8.1589,-1.9642 51.7727,-1.9642 27.3948,0 50.6982,0.3414 51.7858,0.7587 1.7956,0.689 1.9766,29.2444 1.9708,310.9375 0,190.4674 -0.4899,319.3449 -1.259,333.9288 -4.4673,84.7129 -15.297,146.4111 -31.2946,178.2911 -10.2741,20.474 -28.1844,43.7431 -45.2311,58.7645 -58.1741,51.2624 -142.678,82.48 -246.3395,91.0034 -23.1469,1.9031 -24.4554,1.8275 -25.8698,-1.4965 z M 5411.25,2457.4181 c -32.1767,-3.5141 -63.2917,-12.1561 -87.6864,-24.3543 -82.5405,-41.2733 -138.7402,-120.6024 -159.7209,-225.4549 -22.2611,-111.2516 -4.8653,-216.8082 48.7369,-295.7339 42.7116,-62.89 110.7686,-108.2285 179.9204,-119.86 27.5934,-4.6412 58.8344,-5.8025 85.7204,-3.1862 118.4518,11.5265 212.8222,95.2446 248.6083,220.5462 10.3805,36.346 13.6807,61.4999 13.6938,104.375 0.012,36.9229 -1.7786,56.3384 -8.1245,88.125 -14.321,71.7339 -43.2514,130.7087 -85.4554,174.2015 -15.6855,16.1646 -27.9051,26.4143 -45.5285,38.1889 -32.7737,21.8968 -67.1609,35.1207 -107.6641,41.4035 -15.5625,2.414 -66.5203,3.4944 -82.5,1.7492 z m 53.4867,-66.2387 c 30.8283,-3.354 54.8094,-12.2868 75.1767,-28.0026 10.9337,-8.4368 28.8617,-27.7718 36.7015,-39.5818 22.3765,-33.7085 36.1911,-76.74 42.6881,-132.97 9.2309,-79.891 3.4185,-153.598 -16.2863,-206.5279 -18.5832,-49.9172 -49.8088,-86.778 -89.8917,-106.1141 -25.0609,-12.0894 -56.2739,-18.0937 -80.51,-15.4875 -43.6675,4.696 -74.1919,18.8541 -101.4779,47.0688 -34.7491,35.9316 -52.6756,82.7298 -58.5834,152.9357 -4.781,56.8151 2.3539,137.9738 16.3682,186.1867 14.4931,49.8602 41.5273,91.9358 75.4531,117.4338 26.9896,20.2847 62.575,29.17 100.3617,25.0589 z m -1176.7353,61.9745 c -62.0555,-7.1213 -133.7015,-32.4904 -188.1952,-66.638 -26.2587,-16.4547 -57.3062,-40.7635 -57.3062,-44.8683 0,-2.7992 42.7064,-72.8976 44.4117,-72.8976 0.7708,0 4.7341,2.6017 8.8073,5.7818 27.0126,21.0885 65.4075,43.2697 100.0361,57.7923 57.5314,24.1278 106.3309,32.933 161.1199,29.0721 34.894,-2.4588 52.151,-6.5993 76.25,-18.2946 20.1792,-9.793 34.785,-19.8722 49.918,-34.4479 16.7099,-16.0946 26.4597,-29.061 35.1744,-46.7787 11.121,-22.6101 15.5326,-42.1158 15.5326,-68.6767 0,-29.8208 -7.6261,-56.2198 -22.6767,-78.4996 -16.7201,-24.7508 -53.9014,-50.271 -99.8233,-68.5156 -7.2188,-2.868 -46.3125,-16.332 -86.875,-29.92 -80.2326,-26.8772 -102.0381,-35.1251 -132.5,-50.1181 -35.9114,-17.6753 -56.214,-31.7922 -77.6583,-53.9977 -14.6888,-15.2106 -23.0362,-26.7352 -31.4327,-43.3973 -20.4453,-40.572 -26.7082,-102.8859 -15.8107,-157.3093 14.2254,-71.0435 56.2721,-129.5386 119.4888,-166.2323 32.2931,-18.7443 73.8176,-32.3056 117.439,-38.3541 19.7186,-2.7342 65.2268,-3.7889 86.0989,-1.9957 54.5991,4.691 93.738,17.5709 148.75,48.9512 21.5781,12.3086 50,31.2853 50,33.384 0,1.8517 -41.9684,67.3301 -43.934,68.545 -0.64,0.3955 -7.1885,-3.1735 -14.5523,-7.9312 -20.7646,-13.4157 -26.8051,-16.827 -49.954,-28.2101 -40.8811,-20.1025 -73.9052,-27.6359 -120.9347,-27.587 -40.6226,0.043 -71.0145,6.3273 -99.375,20.551 -42.591,21.3608 -68.6041,56.5066 -77.0817,104.1439 -3.0652,17.2235 -2.7382,44.887 0.6817,57.6696 10.4221,38.9554 38.8777,65.7419 97.577,91.8531 21.0511,9.3642 40.5867,16.1948 118.198,41.3278 38.5,12.4676 76.4687,25.2105 84.375,28.3175 46.4077,18.2377 78.2377,38.3749 108.1382,68.4134 35.0914,35.2531 51.0145,64.0338 59.8695,108.2132 13.2028,65.8713 7.4203,120.7631 -18.1715,172.5 -18.8128,38.0324 -46.101,70.924 -81.1728,97.8413 -7.8587,6.0313 -16.4114,12.684 -19.0062,14.7835 -6.8396,5.5341 -19.4946,13.0216 -35.9072,21.2451 -35.4968,17.7855 -69.0939,27.7309 -111.875,33.1174 -21.4195,2.6968 -78.3594,3.3772 -97.6236,1.1666 z m 673.3825,0.4976 c -65.304,-7.3262 -114.4093,-37.5274 -138.1603,-84.9722 -6.2485,-12.4819 -10.7197,-25.9912 -14.0432,-42.4293 -1.9659,-9.7239 -2.2078,-29.3885 -2.8518,-231.875 l -0.7036,-221.25 -35.625,-0.625 -35.625,-0.625 -0.3329,-33.4182 -0.3328,-33.4184 35.9578,-0.3316 35.9579,-0.3318 0.3209,-89.023 c 0.2997,-83.1927 0.4635,-89.098 2.5,-90.1691 4.2839,-2.2531 101.0569,-36.4329 103.1522,-36.4329 1.9984,0 2.1589,7.0423 2.4574,107.8125 l 0.3195,107.8125 59.375,0.625 59.375,0.625 0,33.125 0,33.125 -59.375,0.625 -59.375,0.625 0,219.375 c 0,235.2206 -0.2291,226.3632 6.3765,246.4904 6.2056,18.9082 17.6496,31.9366 35.7875,40.7421 18.0088,8.7428 33.0498,12.527 69.086,17.382 l 7.5,1.0105 0.338,26.787 c 0.2086,16.5296 -0.1371,27.2621 -0.9029,28.0279 -1.664,1.664 -57.6941,2.2241 -71.1762,0.7116 z m -2230.8003,-10.2004 c -0.329,-0.8668 -0.4544,-208.2948 -0.2785,-460.9511 l 0.3199,-459.375 154.375,-0.8355 c 171.6191,-0.9289 173.0136,-0.8809 204.4129,7.028 75.5096,19.0195 138.2502,69.8376 171.3731,138.8075 34.1676,71.1451 29.6459,159.3694 -11.7361,228.9856 -36.3577,61.1639 -93.909,100.165 -167.7999,113.7142 -10.5379,1.9322 -24.8939,2.2547 -127.5,2.8638 l -115.625,0.6864 -0.625,215 -0.625,215 -52.8465,0.3261 c -41.6106,0.2568 -52.9738,-0.013 -53.4449,-1.25 z m 296.3868,-504.8197 c 39.012,-3.91 71.0773,-18.2916 97.2615,-43.6224 32.1185,-31.0717 48.1142,-69.2374 50.2975,-120.009 1.5345,-35.6876 -8.3929,-70.0136 -29.2364,-101.0899 -9.1301,-13.6126 -26.4948,-31.8195 -40.2214,-42.1726 -13.8957,-10.4806 -39.6901,-23.288 -55.0694,-27.3429 -19.9933,-5.2715 -32.1451,-5.7958 -125.0022,-5.3948 l -86.875,0.3752 -0.3214,168.75 c -0.1767,92.8125 -0.054,169.4531 0.2733,170.3125 0.7892,2.0739 168.4199,2.246 188.8935,0.1939 z M 5899.5967,2444.18 c -0.4657,-0.4656 -0.8467,-221.184 -0.8467,-490.4852 0,-390.2015 0.3174,-489.8962 1.5625,-490.9064 2.924,-2.3724 102.0727,-35.5999 104.0097,-34.8566 1.7299,0.6638 1.9278,32.884 1.9278,313.904 0,172.2403 0.4686,313.1642 1.0415,313.1642 0.5729,0 67.651,-60.4665 149.0625,-134.37 81.4115,-73.9035 148.649,-134.2316 149.4165,-134.0625 1.7876,0.3939 51.7295,47.3646 51.7295,48.652 0,1.0368 -6.1489,6.65 -128.0356,116.8844 -43.9509,39.7491 -80.43,73.1279 -81.0648,74.1749 -0.8727,1.4401 31.1913,52.136 131.6345,208.125 73.0335,113.4217 133.0626,207.2056 133.3979,208.4087 0.5746,2.0623 -2.9249,2.1864 -61.0988,2.1684 -33.9395,-0.012 -62.3218,-0.4324 -63.0717,-0.9375 -0.75,-0.5051 -50.7486,-76.8559 -111.1083,-169.6684 -60.3595,-92.8125 -110.4311,-169.4931 -111.2701,-170.4015 -1.7762,-1.9231 -0.8415,-2.6796 -36.5899,29.6069 l -24.0328,21.7054 -0.3177,144.5446 -0.3177,144.5446 -52.5908,0.3259 c -28.925,0.1792 -52.9718,-0.055 -53.4375,-0.5209 z"
       style="fill:#5f5f5f" />
    <path
       id="path3342"
       d="m 3586.5272,2774.2005 c -1.8347,-3.5306 -16.754,-61.8904 -16.0116,-62.6328 0.3564,-0.3564 14.5894,-2.8167 31.6288,-5.4672 40.4666,-6.2946 55.0296,-9.0639 74.7306,-14.2109 61.6345,-16.1022 104.1286,-41.2325 126.6318,-74.8878 17.3005,-25.8743 24.04,-50.0064 29.0101,-103.8768 1.5615,-16.9251 3.9058,-102.4705 2.8814,-105.1402 -0.941,-2.4521 -3.0697,-2.1803 -11.2468,1.4359 -29.5483,13.0678 -82.7611,31.0399 -105.4015,35.5984 -35.2556,7.0985 -80.2261,10.777 -117.5,9.6113 -32.1672,-1.0062 -53.7726,-5.4757 -82.5,-17.0664 -54.3745,-21.9389 -97.3481,-66.9785 -111.9611,-117.3441 -7.1306,-24.5764 -6.8848,-14.5886 -6.5093,-264.4835 l 0.3454,-229.8886 50.625,-17.2329 c 27.8438,-9.478 51.3281,-17.2625 52.1875,-17.2988 1.2444,-0.053 1.5634,45.6716 1.5668,224.6214 0,149.5995 0.4504,229.4515 1.3396,238.9429 4.9846,53.214 29.5867,89.0441 76.4776,111.3807 26.0841,12.4251 47.7814,16.8178 82.8035,16.7637 22.2151,-0.034 26.7489,-0.4093 40.6994,-3.3658 25.965,-5.5025 45.2776,-12.586 79.3006,-29.0856 21.1384,-10.2512 38.0372,-19.9483 41.5625,-23.85 l 2.8125,-3.1128 0,-259.3054 0,-259.3052 51.922,0 51.9221,0 -0.4738,323.4375 c -0.3371,230.0099 -0.8905,328.312 -1.9159,340.3125 -5.6518,66.1448 -12.1597,107.065 -21.5122,135.2626 -14.1196,42.5708 -46.0862,80.1353 -93.0672,109.3653 -57.3776,35.6984 -126.3569,55.3925 -218.3196,62.3317 -9.7584,0.7364 -10.9383,0.5883 -12.0281,-1.5091 z M 5418.75,2456.6386 c -21.4695,-1.6206 -50.4635,-7.5745 -69.9548,-14.3649 -38.1145,-13.2786 -80.8077,-42.9951 -109.2448,-76.0398 -44.5657,-51.7863 -70.3349,-115.3949 -81.0178,-199.9839 -1.0822,-8.5686 -1.6386,-27.0111 -1.603,-53.125 0.047,-34.8416 0.4081,-42.2569 2.7958,-57.5 15.3207,-97.8107 60.9702,-173.4875 133.8985,-221.9743 33.2071,-22.0778 69.5726,-35.9967 109.7295,-41.9987 20.6522,-3.0867 67.8256,-3.078 87.7213,0.016 79.8104,12.4122 145.2264,54.4264 190.6522,122.4485 53.2941,79.8046 70.4602,181.9762 48.767,290.2582 -15.815,78.9403 -53.1282,146.892 -104.0689,189.5219 -52.5273,43.9576 -111.1253,64.2202 -183.3,63.3837 -10.3125,-0.12 -21.2813,-0.4085 -24.375,-0.642 z m 63.5029,-66.5847 c 48.9677,-9.9925 84.8667,-39.7253 109.7923,-90.9338 22.2815,-45.7761 32.3304,-102.7105 32.2765,-182.8701 -0.029,-43.3927 -1.1396,-56.361 -7.5462,-88.125 -5.8569,-29.0393 -15.202,-55.2913 -27.5677,-77.443 -9.2317,-16.5373 -16.3202,-26.2859 -28.3683,-39.0139 -43.4475,-45.8992 -102.705,-61.5146 -165.2145,-43.5367 -40.9616,11.7806 -76.7155,43.6257 -98.2327,87.4936 -16.7444,34.1371 -24.8548,72.2777 -28.0422,131.875 -0.8341,15.5947 1.9118,65.8541 5.1153,93.6291 7.052,61.1421 23.0859,107.9366 50.0625,146.1055 8.7079,12.3208 34.3886,37.452 45.9949,45.011 15.8841,10.3449 35.141,17.3153 55.9476,20.251 12.6244,1.7814 41.2189,0.5291 55.7825,-2.4427 z m -1187.8779,62.3779 c -67.9506,-7.0315 -143.2991,-33.9 -201.25,-71.7639 -22.1046,-14.4428 -49.375,-35.9856 -49.375,-39.0049 0,-1.4194 40.1986,-68.4384 42.5058,-70.8655 0.5632,-0.5925 5.4422,2.2858 10.8421,6.3964 58.5446,44.5662 135.4947,77.1375 200.09,84.6936 27.0215,3.1609 65.4837,2.0308 92.1871,-2.7087 49.1406,-8.7218 99.8892,-43.9177 124.9812,-86.6788 13.8787,-23.6515 19.3926,-43.2101 20.3157,-72.0622 1.0343,-32.3263 -4.5253,-56.843 -18.0824,-79.7393 -8.239,-13.9147 -28.1808,-33.7962 -45.3395,-45.2024 -30.0696,-19.9886 -48.1404,-27.4891 -141.2709,-58.6365 -81.1471,-27.1395 -108.5229,-37.5615 -139.9791,-53.2899 -43.2498,-21.6252 -69.9011,-42.3673 -90.8706,-70.7225 -26.1775,-35.3971 -38.994,-87.3772 -35.4173,-143.6423 3.1795,-50.0164 16.42,-89.9198 42.6644,-128.5799 52.204,-76.9008 147.7286,-118.7608 262.9985,-115.2491 62.7436,1.9115 104.0597,13.7385 163.5552,46.8187 19.6658,10.9345 54.5698,33.3824 54.5698,35.0956 0,0.7887 -41.6846,66.0238 -43.1321,67.5003 -0.224,0.2286 -5.3765,-2.9249 -11.4502,-7.0078 -25.1825,-16.9285 -60.5946,-35.2102 -83.6887,-43.2048 -28.681,-9.9287 -55.2814,-13.9752 -91.104,-13.8588 -28.2976,0.091 -47.4671,2.5141 -68.6758,8.6778 -40.2976,11.7115 -72.7165,36.1446 -91.3557,68.8523 -18.6786,32.7765 -24.4589,81.452 -13.5676,114.2508 5.165,15.5542 12.3108,26.7769 25.4741,40.0069 13.1414,13.2082 26.9411,22.918 48.5319,34.1483 30.6445,15.9395 47.0276,22.0448 138.031,51.4378 78.3252,25.2981 90.8971,29.8536 115.9371,42.0107 41.028,19.9194 69.8115,42.3074 97.7262,76.0122 18.8859,22.8031 29.535,43.7481 36.7725,72.3252 8.3823,33.0965 12.0139,72.1036 9.339,100.3089 -7.0568,74.41 -43.9326,136.9864 -110.5212,187.5487 -21.6431,16.4342 -26.5183,19.661 -42.4109,28.0725 -35.3614,18.7158 -71.2537,29.8709 -114.6571,35.6347 -22.2954,2.9606 -75.8913,4.3383 -94.3735,2.4258 z m 669.375,0.013 c -76.8179,-8.3215 -129.0191,-45.7022 -147.9939,-105.9762 -7.901,-25.0978 -7.4711,-11.8003 -8.209,-253.9645 l -0.6721,-220.625 -35.9375,-0.3316 -35.9375,-0.3317 0,-32.4617 0,-32.4616 35.9375,-0.3317 35.9375,-0.3317 0.625,-89.239 c 0.5432,-77.5661 0.8702,-89.3801 2.5,-90.3177 2.5469,-1.4653 99.6881,-36.0683 101.2547,-36.0683 0.8174,0 1.2453,36.8918 1.2453,107.3663 0,96.7508 0.1955,107.4412 1.9772,108.125 1.0875,0.4174 28.097,0.7587 60.0212,0.7587 l 58.0439,0 -0.3337,32.1875 -0.3336,32.1875 -59.375,0.625 -59.375,0.625 -0.3714,215 c -0.2656,153.8295 0.029,218.3099 1.0369,226.6335 4.0761,33.6753 16.2851,54.0988 39.5869,66.2216 17.9397,9.3333 43.2385,15.9939 70.0601,18.4454 l 9.0625,0.8283 0,26.0494 c 0,17.8153 -0.4408,26.3217 -1.3944,26.9111 -2.2143,1.3685 -55.632,1.7464 -67.3556,0.4764 z M 2731.8338,2442.205 c -0.3292,-0.867 -0.4545,-207.7326 -0.2787,-459.7014 l 0.3199,-458.125 151.875,-0.7787 c 90.5711,-0.4645 157.4251,-0.3084 165.625,0.3866 100.0099,8.477 189.6704,77.7631 220.4979,170.3921 17.1861,51.6402 15.999,111.5901 -3.2291,163.0643 -27.1153,72.5881 -86.9867,127.0563 -160.9083,146.387 -30.5306,7.9837 -27.9897,7.8417 -153.8605,8.6031 l -115,0.6956 -0.625,215 -0.625,215 -51.5964,0.3264 c -40.6102,0.2569 -51.7238,-0.012 -52.1948,-1.25 z m 310.3451,-503.873 c 42.5187,-8.5932 76.9197,-29.8757 101.3536,-62.7034 13.7138,-18.4247 24.9295,-45.6175 29.903,-72.5 2.9778,-16.0951 2.966,-52.6533 -0.021,-66.4896 -14.9838,-69.3996 -68.9622,-123.4759 -136.5393,-136.7869 -6.9726,-1.3734 -28.1741,-1.7235 -104.375,-1.7235 l -95.625,0 -0.317,170.5485 c -0.252,135.5979 0,170.7599 1.25,171.58 0.8619,0.5674 44.8795,0.8349 97.817,0.5945 83.6826,-0.38 97.5954,-0.709 106.5539,-2.5196 z m 2858.405,503.873 c -0.3292,-0.867 -0.4545,-221.4359 -0.2787,-490.153 l 0.3198,-488.5766 50.625,-17.3518 c 27.8437,-9.5435 51.3281,-17.0923 52.1875,-16.7751 1.2442,0.4593 1.5625,64.3678 1.5625,313.8279 0,305.7429 0.056,313.2415 2.3468,312.8517 1.2907,-0.2197 68.3243,-60.3057 148.9635,-133.5245 80.6392,-73.2187 147.2937,-133.5352 148.1212,-134.0367 1.6543,-1.0025 50.5744,44.4181 50.5604,46.9436 0,0.8075 -47.0149,43.9213 -104.4676,95.8084 -83.5503,75.4564 -104.3558,94.8475 -103.9413,96.875 0.285,1.3941 60.2044,95.2352 133.154,208.5359 79.8797,124.064 132.0395,206.2296 131.1369,206.5755 -0.8244,0.316 -28.4498,0.4278 -61.3898,0.2488 l -59.8909,-0.3291 -111.0646,-170.625 c -61.0855,-93.8437 -111.7917,-170.786 -112.6805,-170.9828 -1.3739,-0.3041 -13.8617,10.553 -53.3481,46.3814 l -6.875,6.2382 -0.625,144.4941 -0.625,144.4941 -51.5964,0.3264 c -40.6102,0.2569 -51.7239,-0.012 -52.1947,-1.25 z"
       style="fill:#010101" />
  </g>
</svg>
