<svg width="136" height="24" viewBox="0 0 136 24" fill="none" xmlns="http://www.w3.org/2000/svg">
	<path d="M11.9 19C11.9 21.7 9.60001 23.7 6.30001 23.7C4.30001 23.7 2.80001 23.1 1.80001 22.5C0.800011 21.9 0.300011 21.3 0.300011 21.2C0.300011 21.2 0.300012 21.2 0.200012 21.1C0.200012 21.1 0.200011 21.1 1.50001 19.3C1.50001 19.3 1.50001 19.3 1.70001 19.5C1.70001 19.5 3.40001 21.4 6.30001 21.4C7.80001 21.4 9.30001 20.7 9.30001 19C9.30001 17.6 7.60001 16.8 5.70001 16.1C3.40001 15.1 0.700012 14.1 0.700012 11C0.700012 7.89998 3.60001 6.49998 6.20001 6.49998C9.60001 6.49998 11.2 8.19999 11.2 8.29999C11.2 8.29999 11.2 8.29999 11.3 8.29999C11.3 8.29999 11.3 8.29999 10.2 10.3C10.2 10.3 10.2 10.3 10 10.1C10 10.1 8.70001 8.69998 6.20001 8.69998C4.70001 8.69998 3.20001 9.29998 3.20001 11.1C3.20001 12.6 4.80001 13.3 6.80001 14.1C9.20001 14.9 11.9 16 11.9 19ZM23 8.69998C19.6 8.69998 16.9 11.4 16.9 14.9C16.9 18.5 19.6 21.3 23 21.3C26.4 21.3 29.1 18.5 29.1 14.9C29.1 11.5 26.4 8.69998 23 8.69998ZM31.6 15C31.6 19.9 27.8 23.7 23 23.7C18.2 23.7 14.4 19.9 14.4 15C14.4 10.2 18.2 6.49998 23 6.49998C27.9 6.49998 31.6 10.2 31.6 15ZM42.1 0.299988C42.1 0.299988 41.7 0.299988 41.1 0.299988C39.4 0.299988 35.5 0.799986 35.5 6.39999C35.5 6.99999 35.5 6.99998 35.5 6.99998C33.4 6.99998 33.4 6.99998 33.4 6.99998C33.4 9.19998 33.4 9.19998 33.4 9.19998C35.5 9.19998 35.5 9.19998 35.5 9.19998C35.5 23.3 35.5 23.3 35.5 23.3C37.9 23.3 37.9 23.3 37.9 23.3C37.9 9.19999 37.9 9.19998 37.9 9.19998C42 9.19998 42 9.19998 42 9.19998C42 6.99998 42 6.99998 42 6.99998C37.9 6.99998 37.9 6.99998 37.9 6.99998C37.9 6.39998 37.9 6.39999 37.9 6.39999C37.9 4.99999 38.3 2.49998 41.4 2.49998C41.8 2.49998 42.1 2.59998 42.1 2.59998C42.3 2.59998 42.3 2.59998 42.3 2.59998C42.3 0.399983 42.3 0.399986 42.3 0.399986L42.1 0.299988ZM53.7 21.2C53.5 21.3 53.5 21.3 53.5 21.3C53.5 21.3 53.2 21.4 52.8 21.4C51.5 21.4 49.3 20.9 49.3 17.1C49.3 9.09998 49.3 9.09998 49.3 9.09998C53.3 9.09998 53.3 9.09998 53.3 9.09998C53.3 6.89998 53.3 6.89999 53.3 6.89999C49.3 6.89999 49.3 6.89999 49.3 6.89999C49.3 2.19999 49.3 2.19998 49.3 2.19998C46.9 2.19998 46.9 2.19998 46.9 2.19998C46.9 6.89998 46.9 6.89999 46.9 6.89999C44.7 6.89999 44.7 6.89999 44.7 6.89999C44.7 9.09999 44.7 9.09998 44.7 9.09998C46.8 9.09998 46.8 9.09998 46.8 9.09998C46.8 17.3 46.8 17.3 46.8 17.3C46.8 22.7 50.5 23.5 52.6 23.5C53.2 23.5 53.6 23.4 53.6 23.4C53.7 23.4 53.7 23.4 53.7 23.4V21.2ZM56.8 21.2C56.8 21.2 59 23.6 63.1 23.6C67 23.6 69.4 21.4 69.4 18.6C69.4 13.4 61.5 13.6 61.5 11.4C61.5 10.3 62.5 9.89999 63.6 9.89999C66 9.89999 67.5 11.3 67.5 11.3C67.5 11.3 67.5 11.3 69 8.19998C69 8.19998 67.2 6.39999 63.6 6.39999C60.1 6.39999 57.4 8.09998 57.4 11.2C57.4 16.5 65.3 16.2 65.3 18.6C65.3 19.6 64.3 20 63.2 20C60.6 20 58.8 18.2 58.8 18.2L56.8 21.2ZM76.2 13C76.6 10.9 78 9.69998 80.1 9.69998C81.9 9.69998 83.2 10.9 83.3 13H76.2ZM71.9 15.1C71.9 19.7 75.3 23.7 80.7 23.7C84.7 23.7 87.2 21.3 87.2 21.3C87.2 21.3 87.2 21.3 85.7 18.3C85.7 18.3 83.6 20.1 81 20.1C78.6 20.1 76.4 18.7 76.2 15.8C76.2 15.8 76.2 15.8 87.4 15.8C87.4 15.8 87.5 14.7 87.5 14.3C87.5 9.99999 85 6.49998 80.4 6.49998C75.4 6.49998 71.9 9.99998 71.9 15.1ZM91.4 23.3C91.4 23.3 91.4 23.3 95.4 23.3C95.4 23.3 95.4 23.3 95.4 16.8C95.4 15.8 95.5 14.9 95.8 14.1C96.5 11.7 98.5 10.7 100.2 10.7C100.7 10.7 101.2 10.8 101.2 10.8C101.2 10.8 101.2 10.8 101.2 6.69998C101.2 6.69998 100.8 6.69998 100.5 6.69998C98 6.69998 96 8.49999 95.3 10.9C95.3 10.9 95.3 10.9 95.2 10.9C95.2 10.9 95.3 10.4 95.3 9.69998C95.3 9.69998 95.3 9.69999 95.3 6.89999C95.3 6.89999 95.3 6.89999 91.5 6.89999V23.3H91.4ZM108.9 23.3C108.9 23.3 108.9 23.3 113.6 23.3C113.6 23.3 113.6 23.3 119.4 6.79999C119.4 6.79999 119.4 6.79999 115.1 6.79999C115.1 6.79999 115.1 6.79998 111.8 17C111.4 17.9 111.3 19 111.2 19C111.1 19 110.9 17.9 110.6 17C110.6 17 110.6 17 107.2 6.79999C107.2 6.79999 107.2 6.79999 103 6.79999L108.9 23.3ZM124.7 13C125.1 10.9 126.5 9.69998 128.5 9.69998C130.3 9.69998 131.7 10.9 131.7 13H124.7ZM120.4 15.1C120.4 19.7 123.8 23.7 129.2 23.7C133.2 23.7 135.7 21.3 135.7 21.3C135.7 21.3 135.7 21.3 134.1 18.3C134.1 18.3 132 20.1 129.5 20.1C127.1 20.1 124.9 18.7 124.7 15.8C124.7 15.8 124.7 15.8 135.9 15.8C135.9 15.8 136 14.7 136 14.3C136 9.99999 133.5 6.49998 128.8 6.49998C123.8 6.49998 120.4 9.99998 120.4 15.1Z" fill="black"/>
	</svg>
