<svg width="188" height="166" viewBox="0 0 188 166" fill="none" xmlns="http://www.w3.org/2000/svg">
<path d="M56.7114 0.286162C51.6427 0.890283 48.2955 2.28932 45.7452 4.86482C42.4936 8.23521 41.4416 11.6374 41.2186 19.9044L41.0591 25.7231H49.9851H58.911L59.1022 24.6738C59.421 23.0205 60.4093 21.7168 61.9713 20.9537C64.2983 19.8408 71.7899 19.6183 98.185 19.7772C123.146 19.9362 123.018 19.9362 125.6 21.6533C127.8 23.1476 127.959 23.7836 128.182 31.7645C128.31 35.7072 128.533 39.3956 128.724 39.968C129.745 43.0838 132.709 46.2317 135.674 47.3129C137.14 47.8852 138.16 47.9806 141.858 47.9806H146.321V34.8487C146.321 13.736 145.524 8.99832 141.252 4.96021C138.352 2.22572 135.132 0.953883 129.266 0.286162C125.887 -0.0953875 59.963 -0.0953875 56.7114 0.286162Z" fill="url(#paint0_linear_11_19)"/>
<path d="M27.0964 30.5246C21.486 31.1287 18.075 32.4641 15.3654 35.1667C13.612 36.8837 12.2094 39.5229 11.5399 42.2575C10.8705 44.9601 10.5198 50.6834 10.5836 57.3606C10.6792 64.8963 10.4242 66.6769 8.83026 69.3159C7.52327 71.5098 5.22804 72.7818 2.10396 73.0043L0 73.1951V82.4795V91.7322L2.45463 92.1138C6.47129 92.7498 8.41586 94.3077 9.75474 97.9008C10.1692 99.0454 10.3285 101.239 10.5198 108.87C10.8705 121.43 11.508 124.8 14.2814 128.775C17.3099 133.131 21.5496 134.689 31.1769 135.007L36.6599 135.198L36.5963 126.199L36.5007 117.233L35.2574 116.819C33.5996 116.247 32.3884 115.007 31.5277 113.036C30.9218 111.605 30.7944 110.619 30.5713 104.101C30.2844 96.5336 29.8698 93.2904 28.7222 90.238C27.511 86.9947 25.1519 84.5146 22.2511 83.338C20.9122 82.7976 20.7209 82.4478 21.6773 82.1616C23.2392 81.6847 26.1401 79.3317 27.1921 77.7738C29.6468 74.0536 30.1888 71.2556 30.6031 60.6992C30.9218 52.5275 31.1451 51.2874 32.7389 49.6978C34.1734 48.2669 35.9269 47.9808 43.3543 47.9808C48.9968 47.9808 49.8895 47.9171 51.4833 47.3131C53.938 46.3909 56.4245 44.0698 57.5721 41.5578C58.4328 39.682 58.4966 39.2367 58.5923 34.8489L58.7197 30.1748L44.2471 30.2065C36.3094 30.2385 28.5948 30.3973 27.0964 30.5246Z" fill="url(#paint1_linear_11_19)"/>
<path d="M150.625 30.5248C150.529 30.779 150.497 34.849 150.529 39.5548L150.625 48.108L151.995 48.3942C153.653 48.7121 155.247 50.2066 155.821 51.9872C156.076 52.7184 156.363 56.2478 156.522 60.6993C156.936 71.2557 157.478 74.0537 159.933 77.7739C160.985 79.3318 163.886 81.6848 165.448 82.1618C166.372 82.4479 166.245 82.7658 165.065 83.211C163.503 83.7834 161.113 85.6594 160.029 87.122C157.733 90.3015 156.905 94.4032 156.554 104.101C156.331 110.619 156.235 111.573 155.598 113.004C155.215 113.863 154.577 114.912 154.195 115.325C152.633 117.01 152.091 117.106 144.249 117.297C137.172 117.456 136.853 117.487 135.1 118.314C132.773 119.395 130.573 121.589 129.489 123.91C128.724 125.564 128.629 126.168 128.533 130.397L128.406 135.102H143.484C159.55 135.102 162.133 134.912 166.5 133.481C171.505 131.859 174.629 127.63 175.872 120.953C176.159 119.363 176.414 114.785 176.573 108.871C176.797 101.208 176.956 99.0456 177.37 97.9009C178.709 94.2761 180.654 92.7499 184.671 92.1139L187.125 91.7324V82.4797V73.1952L185.021 73.0045C181.897 72.782 179.602 71.51 178.295 69.316C176.733 66.7088 176.542 65.2463 176.446 55.2939C176.35 45.755 176.095 43.3069 174.725 39.7138C173.354 36.1844 170.58 33.4182 167.042 32.051C164.428 31.0652 161.081 30.5248 155.661 30.3021C151.613 30.1113 150.784 30.1432 150.625 30.5248Z" fill="url(#paint2_linear_11_19)"/>
<path d="M41.2505 134.164C41.3461 148.822 41.4417 151.43 41.8881 153.147C43.5778 159.442 47.2437 162.972 53.7468 164.53C55.7552 165.038 59.2936 165.102 90.5662 165.197C113.423 165.293 126.334 165.229 128.661 165.007C134.973 164.402 138.256 163.162 141.284 160.301C144.536 157.216 145.684 153.528 145.939 145.007L146.13 139.538L137.109 139.601L128.119 139.697L127.704 140.905C127.13 142.558 126.206 143.48 124.261 144.339C122.859 144.943 121.775 145.102 117.503 145.293C110.394 145.611 74.9139 145.611 68.634 145.293C62.2265 144.943 60.9194 144.466 59.6444 141.922C58.8793 140.365 58.8473 140.142 58.8473 133.178V126.024L57.8273 123.926C56.5841 121.414 54.5757 119.474 52.0572 118.298C50.4314 117.535 49.794 117.439 45.6817 117.344L41.123 117.217L41.2505 134.164Z" fill="url(#paint3_linear_11_19)"/>
<defs>
<linearGradient id="paint0_linear_11_19" x1="52.1209" y1="6.56591" x2="146.321" y2="6.56591" gradientUnits="userSpaceOnUse">
<stop stop-color="#DC1948"/>
<stop offset="1" stop-color="#DC1944"/>
</linearGradient>
<linearGradient id="paint1_linear_11_19" x1="29.3599" y1="135.198" x2="29.3599" y2="30.1748" gradientUnits="userSpaceOnUse">
<stop stop-color="#3D7AAA"/>
<stop offset="1" stop-color="#0098DA"/>
</linearGradient>
<linearGradient id="paint2_linear_11_19" x1="169.991" y1="30.1749" x2="169.991" y2="135.102" gradientUnits="userSpaceOnUse">
<stop stop-color="#4E4E50"/>
<stop offset="1" stop-color="#231F20"/>
</linearGradient>
<linearGradient id="paint3_linear_11_19" x1="38.6126" y1="149.172" x2="146.082" y2="149.172" gradientUnits="userSpaceOnUse">
<stop offset="0.0592328" stop-color="#F3D848"/>
<stop offset="1" stop-color="#FFCC29"/>
</linearGradient>
</defs>
</svg>
