<?xml version="1.0" encoding="utf-8"?>
<!-- Generator: Adobe Illustrator 26.3.1, SVG Export Plug-In . SVG Version: 6.00 Build 0)  -->
<svg version="1.1" id="Warstwa_1" xmlns="http://www.w3.org/2000/svg" xmlns:xlink="http://www.w3.org/1999/xlink" x="0px" y="0px"
	 viewBox="0 0 595.3 164" style="enable-background:new 0 0 595.3 164;" xml:space="preserve">
<style type="text/css">
	.st0{fill-rule:evenodd;clip-rule:evenodd;}
	.st1{fill:#CE4495;}
	.st2{fill:#62B94A;}
	.st3{fill:#793690;}
</style>
<g id="XMLID_00000167387445125363982800000013069271771520443021_">
	<g id="XMLID_00000036209338553859252800000011146042225094998197_">
		<path id="XMLID_00000003091133295234712990000018393174462503546266_" class="st0" d="M521.7,54.5c-2.7-3.5-7.2-5.3-13.6-5.3
			c-2.5,0-4.9,0.3-7.3,0.8c-2.4,0.5-4.9,1.6-7.5,3.3c-2.6,1.7-4.8,3.8-6.7,6.3c-1.9,2.5-3.4,5.2-4.5,8c-1.1,2.8-1.8,5.7-2.1,8.7
			c-0.5,5.7,0.7,10.1,3.8,13.2c3.1,3.1,7.6,4.7,13.6,4.7c2.6,0,5.1-0.3,7.5-1c2.4-0.6,5-1.9,7.7-3.8c2.7-1.9,5-4.2,6.9-7
			c1.9-2.7,3.2-5.4,4-7.9c0.8-2.6,1.3-4.8,1.5-6.8C525.4,62.4,524.3,58.1,521.7,54.5z M512.1,67.6c-0.1,1.3-0.7,3.4-1.8,6.4
			c-1.1,3-2.6,5.4-4.6,7.4c-1.9,1.9-4.2,2.9-6.7,2.9c-2.2,0-3.9-0.7-5.1-2.2c-1.1-1.5-1.6-3.3-1.4-5.5c0.2-2.1,0.9-4.6,2-7.6
			c1.2-3,2.7-5.4,4.6-7.1c1.9-1.8,4-2.7,6.4-2.7c2.1,0,3.8,0.7,5,2.1C511.9,62.7,512.4,64.8,512.1,67.6z"/>
		<polygon id="XMLID_00000164504262780009522470000015286654757181642650_" class="st0" points="220.9,49.9 217.7,60.6 204,60.6 
			194,93.4 180.9,93.4 190.9,60.6 177.8,60.6 181,49.9 220.9,49.9 		"/>
		<path id="XMLID_00000008147282979453340510000002958062587550945682_" class="st0" d="M259,53.3c-1.7-2.2-4.6-3.4-8.8-3.4h-24
			l-13.1,43.5h13.1l5.3-17.7h0.7c1.1,0,2,0.3,2.8,0.9c0.7,0.6,1.7,2.8,2.9,6.5c1.2,3.7,2.2,7.2,3.1,10.3h13.8
			c-2.7-10-5.3-16.1-7.7-18.3c4.5-0.7,7.9-2.3,10.2-4.9c2.3-2.5,3.6-5.5,3.9-8.9C261.4,58.2,260.7,55.5,259,53.3z M248.6,62.3
			c-0.1,0.9-0.5,1.8-1.1,2.7c-0.7,0.9-1.7,1.6-2.9,2c-1.2,0.4-4,0.6-8.1,0.6H234l2.7-8.9h6.6c2.4,0,3.9,0.3,4.5,0.9
			C248.4,60.3,248.7,61.2,248.6,62.3z"/>
		<path id="XMLID_00000057138396119019974850000007622322152710953633_" class="st0" d="M301.3,93.4l-2.5-43.5h-13.9l-28,43.5h14
			l4-7.1h13.7l-0.1,7.1H301.3z M280.1,77.1l8.8-15.8h0.1l-0.2,15.8H280.1z"/>
		<polygon id="XMLID_00000157271156436969971410000003165288142829122971_" class="st0" points="359.5,49.9 346.3,93.4 334.1,93.4 
			326.1,68.2 326,68.2 318.3,93.4 306.1,93.4 319.3,49.9 331.5,49.9 339.4,75.3 339.6,75.3 347.3,49.9 359.5,49.9 		"/>
		<path id="XMLID_00000034076611728071032120000009586382893882261678_" class="st0" d="M396.3,62l-12.3,0.7
			c0.1-3.8-1.8-5.7-5.6-5.7c-1.6,0-2.8,0.3-3.7,1c-0.9,0.7-1.4,1.5-1.5,2.4c-0.1,0.7,0.2,1.4,0.8,2c0.6,0.6,2.1,1.4,4.5,2.4
			c3.1,1.3,5.5,2.5,7.4,3.6c1.9,1.1,3.4,2.6,4.5,4.4c1.1,1.8,1.5,4.1,1.3,6.7c-0.2,2.5-1.2,4.9-2.7,7.1c-1.6,2.2-3.7,4-6.4,5.4
			c-2.7,1.4-6.4,2.1-11.2,2.1c-6.7,0-11.3-1.3-13.8-4c-2.5-2.7-3.6-6.1-3.2-10.2l0.1-1l12.3-0.9c-0.3,2.7,0.1,4.6,1.2,5.7
			c1.1,1.1,2.6,1.7,4.7,1.7c2.1,0,3.7-0.5,4.9-1.4c1.2-0.9,1.8-2,1.9-3.2c0.1-0.9-0.2-1.7-0.8-2.5c-0.6-0.8-2.2-1.6-4.8-2.6
			c-6-2.3-9.7-4.4-11.1-6.3c-1.4-1.9-2-4.3-1.8-7c0.2-2.5,1.1-4.8,2.7-6.8c1.5-2.1,3.7-3.7,6.4-4.8c2.7-1.1,5.8-1.7,9.4-1.7
			C390.7,49.2,396.4,53.5,396.3,62L396.3,62z"/>
		<polygon id="XMLID_00000055690479112708266720000017849500835201132433_" class="st0" points="418.5,49.9 405.3,93.4 392.1,93.4 
			405.3,49.9 418.5,49.9 		"/>
		<polygon id="XMLID_00000183221592785922763830000012649364671069957026_" class="st0" points="463.7,49.9 460.6,60.6 446.9,60.6 
			436.8,93.4 423.8,93.4 433.8,60.6 420.7,60.6 423.9,49.9 463.7,49.9 		"/>
		<polygon id="XMLID_00000020360980044557067770000016324662833417420427_" class="st0" points="482.4,49.9 469.2,93.4 456,93.4 
			469.2,49.9 482.4,49.9 		"/>
		<polygon id="XMLID_00000066512072590536423250000011597250118965783685_" class="st0" points="576,49.9 562.7,93.4 550.6,93.4 
			542.6,68.2 542.4,68.2 534.8,93.4 522.5,93.4 535.8,49.9 548,49.9 555.9,75.3 556,75.3 563.8,49.9 576,49.9 		"/>
		<g id="XMLID_00000058559038899113179590000016326213285022697859_">
			<polygon id="XMLID_00000183932590990332569550000015648927514597805725_" class="st0" points="184.4,113.3 184.4,103.9 
				180.9,103.9 180.9,102.6 189.4,102.6 189.4,103.9 185.8,103.9 185.8,113.3 184.4,113.3 			"/>
			<polygon id="XMLID_00000152967913058751328780000005237169653693813932_" class="st0" points="215.2,113.3 215.2,102.6 
				223,102.6 223,103.9 216.7,103.9 216.7,107.1 222.6,107.1 222.6,108.4 216.7,108.4 216.7,112 223.2,112 223.2,113.3 215.2,113.3 
							"/>
			<path id="XMLID_00000134940703046347196290000011598957753495097218_" class="st0" d="M257.1,109.5l1.4,0.4
				c-0.3,1.2-0.8,2-1.6,2.7c-0.8,0.6-1.7,0.9-2.8,0.9c-1.2,0-2.1-0.2-2.8-0.7c-0.7-0.5-1.3-1.1-1.7-2c-0.4-0.9-0.6-1.8-0.6-2.9
				c0-1.1,0.2-2.1,0.6-2.9c0.4-0.8,1-1.5,1.8-1.9c0.8-0.4,1.6-0.6,2.6-0.6c1.1,0,2,0.3,2.7,0.8c0.7,0.5,1.2,1.3,1.5,2.3l-1.4,0.3
				c-0.3-0.8-0.6-1.3-1.1-1.7c-0.5-0.4-1.1-0.5-1.8-0.5c-0.8,0-1.5,0.2-2.1,0.6c-0.5,0.4-0.9,0.9-1.2,1.6c-0.2,0.7-0.3,1.3-0.3,2.1
				c0,0.9,0.1,1.7,0.4,2.4c0.3,0.7,0.7,1.2,1.2,1.5c0.6,0.3,1.2,0.5,1.8,0.5c0.8,0,1.5-0.2,2-0.7
				C256.6,111.1,256.9,110.4,257.1,109.5L257.1,109.5z"/>
			<polygon id="XMLID_00000127006963945094694340000000893418466369173420_" class="st0" points="284.4,113.3 284.4,102.6 
				285.9,102.6 285.9,107 291.4,107 291.4,102.6 292.8,102.6 292.8,113.3 291.4,113.3 291.4,108.2 285.9,108.2 285.9,113.3 
				284.4,113.3 			"/>
			<polygon id="XMLID_00000026856351670260631100000011239275017832503185_" class="st0" points="318.7,113.3 318.7,102.6 
				320.2,102.6 325.8,111 325.8,102.6 327.1,102.6 327.1,113.3 325.7,113.3 320.1,104.9 320.1,113.3 318.7,113.3 			"/>
			<path id="XMLID_00000081622442383672172520000013898068350939207809_" class="st0" d="M362.6,105.1c-0.4-0.8-1-1.5-1.8-2
				c-0.8-0.5-1.7-0.7-2.7-0.7c-1.5,0-2.7,0.5-3.7,1.5c-0.9,1-1.4,2.4-1.4,4.2c0,0.9,0.2,1.8,0.6,2.7c0.4,0.8,1,1.5,1.8,2
				c0.8,0.5,1.7,0.7,2.7,0.7c0.9,0,1.8-0.2,2.6-0.7c0.8-0.4,1.4-1.1,1.9-2c0.4-0.8,0.7-1.8,0.7-2.9
				C363.2,106.9,363,105.9,362.6,105.1z M360.7,111.1c-0.7,0.7-1.6,1.1-2.6,1.1c-1,0-1.9-0.4-2.6-1.1c-0.7-0.7-1-1.8-1-3
				c0-1.6,0.4-2.8,1.1-3.4c0.7-0.7,1.6-1,2.6-1c0.7,0,1.3,0.2,1.9,0.5c0.6,0.4,1,0.9,1.3,1.5c0.3,0.6,0.4,1.4,0.4,2.3
				C361.8,109.3,361.4,110.4,360.7,111.1z"/>
			<polygon id="XMLID_00000026144627991243874480000018242575165452090298_" class="st0" points="389.1,113.3 389.1,102.6 
				390.5,102.6 390.5,112 395.8,112 395.8,113.3 389.1,113.3 			"/>
			<path id="XMLID_00000108299505473722856240000006010526031993460116_" class="st0" d="M431.3,105.1c-0.4-0.8-1-1.5-1.8-2
				c-0.8-0.5-1.7-0.7-2.7-0.7c-1.5,0-2.7,0.5-3.7,1.5c-1,1-1.4,2.4-1.4,4.2c0,0.9,0.2,1.8,0.6,2.7c0.4,0.8,1,1.5,1.8,2
				c0.8,0.5,1.7,0.7,2.7,0.7c0.9,0,1.8-0.2,2.6-0.7c0.8-0.4,1.4-1.1,1.9-2c0.4-0.8,0.6-1.8,0.6-2.9
				C431.9,106.9,431.7,105.9,431.3,105.1z M429.4,111.1c-0.7,0.7-1.6,1.1-2.6,1.1c-1,0-1.9-0.4-2.6-1.1c-0.7-0.7-1-1.8-1-3
				c0-1.6,0.4-2.8,1.1-3.4c0.7-0.7,1.6-1,2.6-1c0.7,0,1.3,0.2,1.9,0.5c0.6,0.4,1,0.9,1.3,1.5c0.3,0.6,0.4,1.4,0.4,2.3
				C430.5,109.3,430.1,110.4,429.4,111.1z"/>
			<path id="XMLID_00000091712952926795735330000012179825300893299632_" class="st0" d="M463.2,109.1v-1.3l4.5,0v4
				c-0.7,0.6-1.4,1-2.2,1.3c-0.7,0.3-1.5,0.4-2.3,0.4c-1.1,0-2-0.2-2.9-0.7c-0.9-0.5-1.5-1.1-1.9-2c-0.4-0.8-0.7-1.8-0.7-2.8
				c0-1,0.2-2,0.7-2.9c0.4-0.9,1.1-1.6,1.9-2c0.8-0.4,1.8-0.7,2.8-0.7c0.8,0,1.5,0.1,2.1,0.4c0.6,0.2,1.1,0.6,1.5,1
				c0.4,0.5,0.6,1,0.8,1.8l-1.3,0.4c-0.2-0.5-0.4-1-0.6-1.3c-0.2-0.3-0.6-0.6-1-0.7c-0.4-0.2-0.9-0.3-1.5-0.3
				c-0.6,0-1.2,0.1-1.7,0.3c-0.5,0.2-0.9,0.5-1.1,0.8c-0.3,0.3-0.5,0.7-0.7,1.1c-0.3,0.7-0.4,1.4-0.4,2.2c0,1,0.2,1.8,0.5,2.4
				c0.3,0.6,0.8,1.1,1.4,1.4c0.6,0.3,1.3,0.5,2,0.5c0.6,0,1.2-0.1,1.8-0.4c0.6-0.2,1-0.5,1.3-0.8v-2H463.2L463.2,109.1z"/>
			<polygon id="XMLID_00000011715687062796489280000010114878927170548398_" class="st0" points="493.6,113.3 493.6,102.6 
				495,102.6 495,113.3 493.6,113.3 			"/>
			<polygon id="XMLID_00000018923585828880784590000009122830676428421556_" class="st0" points="520.9,113.3 520.9,102.6 
				528.6,102.6 528.6,103.9 522.3,103.9 522.3,107.1 528.2,107.1 528.2,108.4 522.3,108.4 522.3,112 528.9,112 528.9,113.3 
				520.9,113.3 			"/>
			<path id="XMLID_00000096046381504253086380000017511333672740691371_" class="st0" d="M554.7,109.8l1.3-0.1
				c0.1,0.5,0.2,1,0.4,1.3c0.2,0.4,0.6,0.6,1.1,0.8c0.5,0.2,1,0.3,1.6,0.3c0.5,0,1-0.1,1.4-0.2c0.4-0.2,0.7-0.4,0.9-0.7
				c0.2-0.3,0.3-0.6,0.3-0.9c0-0.3-0.1-0.6-0.3-0.9c-0.2-0.3-0.5-0.5-1-0.6c-0.3-0.1-0.9-0.3-1.9-0.5c-1-0.2-1.7-0.5-2.1-0.7
				c-0.5-0.3-0.9-0.6-1.1-1c-0.2-0.4-0.4-0.8-0.4-1.3c0-0.5,0.2-1,0.5-1.5c0.3-0.5,0.8-0.8,1.3-1.1c0.6-0.2,1.2-0.4,2-0.4
				c0.8,0,1.5,0.1,2.1,0.4c0.6,0.3,1.1,0.6,1.4,1.1c0.3,0.5,0.5,1.1,0.5,1.7l-1.4,0.1c-0.1-0.7-0.3-1.2-0.7-1.5
				c-0.4-0.4-1-0.5-1.9-0.5c-0.9,0-1.5,0.2-1.9,0.5c-0.4,0.3-0.6,0.7-0.6,1.1c0,0.4,0.1,0.7,0.4,0.9c0.3,0.2,1,0.5,2.1,0.8
				c1.1,0.3,1.9,0.5,2.4,0.7c0.6,0.3,1.1,0.7,1.4,1.1c0.3,0.4,0.4,1,0.4,1.5c0,0.6-0.2,1.1-0.5,1.6c-0.3,0.5-0.8,0.9-1.4,1.2
				c-0.6,0.3-1.3,0.4-2.1,0.4c-1,0-1.8-0.1-2.4-0.4c-0.6-0.3-1.2-0.7-1.5-1.3C554.9,111.2,554.8,110.6,554.7,109.8L554.7,109.8z"/>
		</g>
	</g>
	<g id="XMLID_00000005239903197371072590000006328291762305592714_">
		<path id="XMLID_00000111908572691705935800000003066063583287872688_" class="st1" d="M38.2,126V98c0-2.4,1.5-3.9,3.7-3.9
			c2.1,0,3.2,1.3,3.6,2.7h0.1c1.2-1.6,3.3-3,6.7-3c4.2,0,7.6,2.5,8.9,6.5c0.6,1.9,0.9,4,0.9,6.9c0,2.9-0.3,5-0.9,6.9
			c-1.3,4-4.7,6.5-8.9,6.5c-3.3,0-5.5-1.3-6.5-2.8h-0.1v8.1c0,2.4-1.6,3.9-3.7,3.9C39.8,129.9,38.2,128.4,38.2,126z M54,111.4
			c0.3-1,0.5-2.4,0.5-4.2c0-1.8-0.2-3.2-0.5-4.2c-0.6-2-2-3-4-3c-2,0-3.3,1-3.9,3c-0.3,1-0.5,2.4-0.5,4.2c0,1.8,0.2,3.2,0.5,4.2
			c0.6,2,2,3,3.9,3C52,114.4,53.4,113.4,54,111.4z"/>
		<path id="XMLID_00000003085459405144479340000002586092242192973465_" class="st1" d="M65.3,118.2c-1.3-0.8-1.8-1.8-1.8-3
			c0-1.6,1.4-3,3.1-3c0.7,0,1.3,0.2,2.2,0.7c1.9,1.1,3.8,1.9,6.3,1.9c2.7,0,4-1,4-2.4c0-1.2-0.7-1.9-3.7-2.2l-2.8-0.3
			c-5.6-0.6-8.4-3.4-8.4-7.8c0-5,3.9-8.3,10.6-8.3c2.9,0,5.6,0.6,7.8,1.7c1.4,0.7,2.2,1.6,2.2,2.9c0,1.6-1.2,2.9-2.9,2.9
			c-0.5,0-1.1-0.2-2.1-0.6c-1.6-0.7-3.3-1.1-5.2-1.1c-2.3,0-3.2,0.8-3.2,2c0,1.2,0.6,1.8,3.6,2.1l2.8,0.3c6,0.7,8.5,3.5,8.5,7.8
			c0,5.3-4.2,8.8-11.5,8.8C70.7,120.6,67.5,119.5,65.3,118.2z"/>
		<path id="XMLID_00000145043515425146484960000013139220219190607520_" class="st1" d="M88.5,113.3c-0.5-1.5-0.8-3.4-0.8-6.1
			c0-2.7,0.3-4.6,0.8-6.1c1.5-4.8,5.5-7.3,10.9-7.3c3.6,0,6.4,1.2,8.1,2.8c1.1,1.1,1.5,1.9,1.5,3c0,1.9-1.4,3.2-3.2,3.2
			c-1.1,0-2-0.6-3-1.5c-0.8-0.8-1.8-1.2-3.2-1.2c-2,0-3.3,0.9-3.9,2.8c-0.3,1-0.5,2.2-0.5,4.3c0,2.1,0.2,3.3,0.5,4.3
			c0.6,1.9,1.9,2.8,3.9,2.8c1.4,0,2.3-0.4,3.2-1.2c1.1-1,1.9-1.5,3-1.5c1.9,0,3.2,1.3,3.2,3.2c0,1.1-0.4,1.9-1.5,3
			c-1.6,1.6-4.5,2.8-8.1,2.8C94,120.6,90.1,118.1,88.5,113.3z"/>
	</g>
	<g id="XMLID_00000025423572726126167320000007381373058708674694_">
		<path id="XMLID_00000131369432693812833450000000472588229104398751_" class="st2" d="M108.4,126.5c0-1.9,1.3-3.2,3.4-3.2h18.9
			c2.1,0,3.4,1.3,3.4,3.2c0,1.9-1.3,3.2-3.4,3.2h-18.9C109.7,129.7,108.4,128.4,108.4,126.5z"/>
	</g>
	<path id="XMLID_00000147919607099778420880000000732809256904812458_" class="st3" d="M137.8,145H31.4c-5.8,0-10.5-4.7-10.5-10.5
		V28.1c0-5.8,4.7-10.5,10.5-10.5h106.4c5.8,0,10.5,4.7,10.5,10.5v106.4C148.3,140.3,143.6,145,137.8,145z M31.4,24.3
		c-2.1,0-3.8,1.7-3.8,3.8v106.4c0,2.1,1.7,3.8,3.8,3.8h106.4c2.1,0,3.8-1.7,3.8-3.8V28.1c0-2.1-1.7-3.8-3.8-3.8H31.4z"/>
</g>
</svg>
