<?xml version="1.0" standalone="no"?>
<!DOCTYPE svg PUBLIC "-//W3C//DTD SVG 20010904//EN"
 "http://www.w3.org/TR/2001/REC-SVG-20010904/DTD/svg10.dtd">
<svg version="1.0" xmlns="http://www.w3.org/2000/svg"
 width="97.000000pt" height="97.000000pt" viewBox="0 0 97.000000 97.000000"
 preserveAspectRatio="xMidYMid meet">
<metadata>
Created by potrace 1.11, written by Peter Selinger 2001-2013
</metadata>
<g transform="translate(0.000000,97.000000) scale(0.100000,-0.100000)"
fill="#000000" stroke="none">
<path d="M247 900 c-28 -22 -48 -97 -28 -109 20 -13 77 -6 94 10 13 13 41 16
169 15 84 -1 159 -5 166 -9 6 -5 12 -28 12 -53 0 -52 26 -84 68 -84 l27 0 -1
73 c-2 124 -3 127 -30 152 -27 25 -28 25 -239 25 -197 0 -214 -1 -238 -20z"/>
<path d="M168 760 c-93 -7 -109 -24 -112 -118 -3 -71 -16 -102 -42 -102 -10 0
-14 -14 -14 -50 0 -36 4 -50 14 -50 25 0 37 -27 40 -92 5 -98 29 -128 100
-128 35 0 36 1 36 41 0 23 -7 47 -15 55 -8 9 -15 25 -16 37 -2 68 -9 100 -25
118 -16 18 -16 20 1 39 12 14 19 40 21 82 4 69 11 78 70 78 46 0 68 19 76 63
4 20 1 27 -11 28 -9 0 -25 1 -36 2 -11 1 -50 0 -87 -3z"/>
<path d="M779 734 c-2 -42 1 -57 16 -74 7 -8 13 -37 14 -63 1 -49 14 -85 35
-100 7 -5 5 -12 -7 -21 -13 -10 -21 -35 -27 -79 -4 -36 -11 -70 -15 -76 -3 -6
-24 -11 -46 -11 -22 0 -49 -4 -59 -10 -22 -12 -35 -57 -21 -74 12 -15 173 -11
202 5 26 13 39 49 39 107 0 64 8 88 33 99 16 7 21 20 23 52 1 36 -2 44 -22 53
-27 13 -31 26 -37 116 -4 75 -18 92 -81 99 -45 5 -46 5 -47 -23z"/>
<path d="M212 209 c3 -96 4 -102 31 -125 28 -24 31 -24 233 -24 258 0 262 2
278 103 3 15 2 27 -2 28 -51 6 -89 2 -103 -12 -14 -14 -41 -16 -170 -15 -85 1
-159 5 -165 9 -7 4 -11 25 -10 48 3 53 -24 89 -66 89 l-30 0 4 -101z"/>
</g>
</svg>
