<svg width="2717" height="1298" viewBox="0 0 2717 1298" fill="none" xmlns="http://www.w3.org/2000/svg">
<path d="M467.555 180.317C472.652 180.029 475.888 180.101 480.988 180.947C494.808 183.277 507.129 191.019 515.224 202.459C523.458 213.993 526.734 228.342 524.321 242.306C522.409 253.311 518.393 260.11 511.881 268.376C487.047 299.894 455.547 275.123 437.568 289.041C411.105 308.832 419.987 320.25 424.906 346.792C427.714 361.944 412.743 382.891 426.36 398.01C433.294 405.708 447.307 421.881 459.343 420.246C480.931 417.314 499.44 421.768 512.728 440.194C520.609 450.972 523.778 464.487 521.511 477.645C519.448 489.158 515.577 495.699 508.352 503.905C485.428 529.941 463.147 510.541 443.066 524.79C433.807 531.361 409.266 554.755 409.088 566.116C409.266 580.2 408.501 598.343 409.417 611.933C410.996 621.379 439.802 651.631 448.28 652.672C460.786 654.206 477.198 652.573 491.45 654.581C506.492 649.214 527.821 628.386 532.591 613.003C528.906 597.785 526.078 586.904 530.528 570.939C535.004 554.954 545.664 541.411 560.149 533.304C574.467 525.315 591.376 523.351 607.144 527.847C623.178 532.517 636.663 543.435 644.567 558.146C652.743 573.128 654.5 589.165 649.456 605.549C641.5 631.272 617.958 649.003 591.038 649.547C574.685 649.806 569.943 642.059 554.089 650.989C520.124 670.12 527.408 689.268 522.521 721.173C521.234 729.573 513.464 738.675 507.643 744.783C486.38 767.099 463.658 751.686 440.384 759.749C429.924 768.702 397.197 797.203 394.52 809.247C389.812 830.43 393.669 846.042 371.999 857.554C363.005 862.27 352.524 863.283 342.794 860.378C330.928 856.716 323.889 849.063 318.383 838.363C315.401 830.259 315.677 814.93 312.019 809.251C306.665 800.442 279.751 771.222 270.678 768.771C252.4 763.831 239.377 775.859 213.967 766.706C197.47 760.77 184.036 748.478 176.661 732.572C169.497 716.751 168.96 698.721 175.168 682.502C181.541 666.031 194.223 652.784 210.402 645.702C225.705 639.038 243.034 638.753 258.548 644.909C284.42 655.127 301.727 679.282 300.789 707.573C300.479 716.936 294.496 732.106 299.001 740.602C304.678 751.309 333.553 780.12 343.203 783.712C352.476 787.19 362.773 786.693 371.668 782.338C380.255 778.082 417.648 741.598 420.565 730.098C422.953 724.666 418.69 715.125 419.064 710.52C421.616 679.074 419.771 679.061 399.309 657.598C373.754 630.794 367.731 648.987 338.189 641.264C309.355 633.726 291.255 600.976 300.043 571.973C306.959 548.494 328.18 532.119 352.645 531.383C364.067 531.084 372.999 536.519 383.918 530.028C393.988 524.043 419.883 499.715 421.466 488.751C422.664 474.763 425.174 455.028 418.191 442.395C415.999 437.65 397.971 418.813 393.518 418.554C371.626 417.277 359.728 426.163 335.698 419.761C317.442 414.872 301.873 402.935 292.413 386.574C283.176 370.526 280.657 351.478 285.405 333.581C290.095 316.806 301.316 302.611 316.556 294.176C341.087 280.411 360.531 283.911 385.576 290.854C397.079 286.77 409.992 276.26 417.305 266.581C424.62 256.9 421.043 250.687 419.405 240.694C417.318 227.963 421.349 212.025 429.296 201.801C439.65 188.48 451.273 182.622 467.555 180.317Z" fill="#1B458F"/>
<path d="M587.109 292.346C602.171 291.264 618.424 297.48 629.572 307.492C643.244 319.546 650.414 337.354 648.908 355.519C648.393 361.232 647.091 370.013 647.09 375.455C647.086 388.135 678.591 415.773 689.016 416.655C710.651 418.487 722.425 411.996 742.1 428.477C753.061 437.617 759.925 450.751 761.17 464.969C762.45 479.103 757.932 493.151 748.653 503.889C737.554 516.992 724.978 521.264 708.556 522.601C695.427 521.628 685.54 519.065 675.382 511.408C653.509 494.921 655.657 472.47 655.573 448.435C655.148 439.855 647.513 433.939 642.478 428.629C625.735 410.969 619.275 404.345 594.313 409.879C582.305 412.541 564.726 406.097 554.439 398.245C541.823 388.579 533.573 374.289 531.511 358.53C529.614 342.892 534.092 327.149 543.935 314.85C555.606 300.172 568.994 294.464 587.109 292.346Z" fill="#05A1E6"/>
<path d="M464.313 824.279C490.517 821.281 507.278 836.166 507.338 862.546C507.506 936.45 507.872 1010.41 507.179 1084.3C507.013 1101.97 496.1 1112.67 480.168 1117.99C462.322 1121.14 446.436 1113.48 438.967 1096.54C437.564 1093.36 436.79 1083.49 436.78 1079.74C436.582 1006.12 436.413 932.465 436.899 858.851C437.022 840.282 447.736 830.144 464.313 824.279Z" fill="#1B458F"/>
<path d="M580.666 765.479C613.036 760.222 643.48 782.374 648.438 814.791C653.396 847.208 630.965 877.446 598.504 882.105C566.463 886.703 536.701 864.626 531.807 832.629C526.913 800.632 548.716 770.667 580.666 765.479Z" fill="#05A1E6"/>
<path d="M232.726 416.477C262.068 414.775 287.208 437.238 288.808 466.586C290.407 495.934 267.856 520.995 238.503 522.492C209.294 523.981 184.384 501.565 182.792 472.362C181.201 443.16 203.529 418.17 232.726 416.477Z" fill="#05A1E6"/>
<path d="M827.995 834.876C847.431 834.705 882.824 830.98 898.628 841.726C909.101 848.847 910.93 874.067 901.895 882.601C901.029 883.418 899.176 882.785 896.881 885.48C912.132 896.677 912.479 910.168 905.899 927.31L905.276 928.151C895.384 941.337 875.349 940.164 860.327 940.234C852.559 940.271 833.025 941.594 827.364 937.16C826.582 926.857 825.777 841.124 827.995 834.876ZM848.842 920.334C858.391 920.449 876.817 921.57 884.856 918.259L885.598 917.962C895.158 888.063 867.903 895.352 848.842 895.077V920.334ZM848.842 877.923C858.702 878.017 874.954 878.976 883.673 875.985C892.616 847.862 867.346 854.593 848.842 854.438V877.923Z" fill="#1B458F"/>
<path d="M706.208 658.485C732.03 657.338 753.97 677.178 755.418 702.985C756.866 728.793 737.284 750.962 711.495 752.711C694.543 753.861 678.282 745.809 668.921 731.63C659.559 717.451 658.543 699.335 666.259 684.197C673.976 669.06 689.234 659.239 706.208 658.485Z" fill="#05A1E6"/>
<path d="M828.625 1011.24L844.557 1010.45C849.397 1015.54 859.077 1029.97 863.341 1036.05L894.85 1081.04L894.873 1011.94C917.824 1008.8 917.003 1008.62 916.707 1031.76C916.349 1059.75 917.364 1088.09 916.096 1116.03C916.096 1116.04 914.217 1118.82 914.039 1119.08C907.111 1119.17 901.979 1118.48 895.38 1116.54L848.057 1049.22C848.152 1069.61 848.534 1091.11 847.87 1111.53C847.737 1115.6 847.027 1116.25 844.574 1118.2C837.855 1119.87 833.019 1118.11 826.301 1116.42C825.394 1090.48 826.282 1041.15 826.674 1013.37C827.429 1012.55 828.08 1011.84 828.625 1011.24Z" fill="#1B458F"/>
<path d="M2078.83 1039.2C2082.11 1038.86 2085.41 1038.72 2088.7 1038.78C2101.02 1039.02 2119.2 1040.99 2128.03 1050.05C2132.45 1059.45 2129.88 1125.48 2127.36 1137.96C2123.02 1159.48 2086.46 1151.88 2069.38 1146.4C2068.51 1145.36 2067.62 1143.99 2067.79 1142.54C2070.78 1116.42 2094.19 1141.53 2106.03 1130.93C2110.28 1127.12 2109.18 1118.52 2109.06 1113.38C2065.96 1131.76 2062.95 1104.33 2065.21 1070.06C2066.15 1055.96 2063.98 1046.35 2078.83 1039.2ZM2106.4 1099.25C2108.42 1097.75 2108.84 1097.98 2108.96 1094.81C2109.41 1083.1 2109.15 1070.4 2109.05 1058.73C2102.06 1056.89 2095.83 1055.53 2088.53 1055.77C2085.01 1062.65 2083.75 1095.37 2089.01 1100.5C2094.5 1102.37 2100.82 1100.55 2106.4 1099.25Z" fill="#1B458F"/>
<path d="M1604.14 835.209C1604.31 835.194 1606.11 835.023 1606.23 835.03C1624.74 836.062 1657.97 829.813 1672.54 842.468C1678.27 847.625 1680.84 855.36 1681.12 862.843C1682.34 895.006 1674.43 902.823 1643.25 903.922H1624.57C1624.47 912.45 1624.77 920.094 1625.31 928.617C1626.35 945.3 1614.06 941.882 1602.88 939.942C1602.6 928.123 1601.93 839.414 1604.14 835.209ZM1624.57 884.181C1634.33 884.297 1647.69 885.464 1656.19 881.657C1658.24 877.22 1658.44 872.94 1658.92 868.167C1660.68 850.679 1635.23 854.049 1624.57 854.249V884.181Z" fill="#1B458F"/>
<path d="M1236.33 1039.06C1257.82 1037.68 1256.19 1040 1260.37 1059.85C1262.54 1070.15 1264.84 1080.99 1267 1091.33C1269.36 1080.49 1274.7 1051.34 1279.52 1041.02C1280.81 1038.27 1291.67 1038.67 1295.64 1038.65C1299.88 1053.6 1304.08 1074.91 1307.67 1090.51C1310.06 1081.67 1316.56 1043.23 1320.13 1041.5C1338.48 1032.59 1341.79 1039.63 1335.84 1057.24C1332.81 1067.46 1320.78 1110.47 1316.79 1116.99C1311.22 1120.54 1304.82 1118.52 1298.31 1117.43C1294.9 1107.06 1290.31 1086 1287.49 1074.72C1285.11 1083.38 1280.08 1111.81 1273.85 1118.24C1271.94 1120.21 1261.02 1118.05 1257.25 1117.42C1249.38 1095.28 1243.35 1070.83 1236.26 1048.31C1235.14 1044.76 1234.99 1042.65 1236.33 1039.06Z" fill="#1B458F"/>
<path d="M2459.11 1097.09C2459.46 1079.71 2458.52 1062.33 2459.22 1044.93C2459.6 1035.51 2476.14 1038.06 2479.5 1042.86C2481.11 1057.47 2480.66 1127.71 2477.34 1140.67C2468.04 1159.23 2432.88 1151.35 2417.49 1145.29C2419.41 1138.31 2420.67 1135.05 2423.92 1128.67C2428.83 1130.1 2433.91 1131.33 2438.89 1132.41C2458.63 1136.69 2459.53 1129.34 2459.19 1113.23C2442.62 1121.15 2417.47 1124.57 2416.31 1097.18C2415.88 1086.99 2414.58 1046.19 2417.03 1039.03C2438.03 1037.59 2437.28 1040.18 2437.13 1057.66C2437.04 1066.9 2434.25 1092.55 2439.72 1098.91C2444.31 1101.34 2453.85 1098.34 2459.11 1097.09Z" fill="#1B458F"/>
<path d="M1124.51 861.365C1162.22 859.927 1162.68 874.306 1162.07 908C1161.63 931.631 1159.16 940.141 1134.62 942.543C1098.23 945.259 1095.74 929.828 1096.71 897.676C1097.45 872.93 1097.73 863.984 1124.51 861.365ZM1137.52 923.771C1142.72 917.026 1143.12 888.235 1138.33 881.636C1133.33 878.574 1126.96 879.725 1121.17 880.192C1116.01 886.592 1115.65 916.166 1120.38 922.418C1125.44 925.269 1131.8 924.241 1137.52 923.771Z" fill="#1B458F"/>
<path d="M1881.55 1039.26C1917.59 1036.31 1928.78 1041.4 1927.3 1080.6C1926.67 1097.26 1928.49 1113.13 1908.81 1118.71C1872.36 1124.39 1859.24 1115.15 1861.84 1077.24C1863.13 1058.47 1858.53 1045.78 1881.55 1039.26ZM1901.33 1101.22C1904.14 1098.95 1905.71 1097.81 1905.9 1092.88C1906.25 1083.89 1908.23 1066.89 1903.64 1059.2C1902.38 1057.09 1897.01 1056.9 1894.6 1056.9C1892.12 1056.92 1889.65 1056.99 1887.17 1057.14C1883.44 1060.54 1882.95 1062.7 1882.84 1067.66C1882.65 1075.91 1880.87 1092.01 1884.9 1099.06C1889.38 1102.69 1895.62 1101.65 1901.33 1101.22Z" fill="#1B458F"/>
<path d="M1181.56 1039.25C1204.96 1037.34 1227.06 1036.74 1227.05 1067.16C1227.04 1086.43 1231.95 1112.11 1208.8 1118.71C1172.91 1124.52 1159.12 1115.2 1161.82 1077.74C1163.19 1058.82 1158.2 1045.83 1181.56 1039.25ZM1201.3 1101.22C1209.29 1095.9 1205.96 1074.31 1205.84 1065.44C1205.7 1055.01 1194.93 1056.74 1187.16 1057.13C1184.35 1059.64 1183.21 1061.22 1183.03 1065.01C1182.6 1074.04 1180.72 1090.94 1184.7 1098.84C1188.53 1102.31 1192.46 1101.7 1197.44 1101.46C1198.73 1101.4 1200.02 1101.32 1201.3 1101.22Z" fill="#1B458F"/>
<path d="M1327.81 861.385C1363.46 859.805 1366.02 871.961 1365.42 904.766C1364.94 930.661 1364.7 940.248 1336.72 942.607C1300.84 944.17 1299.44 929.461 1300.08 897.656C1300.58 873.382 1301.69 863.929 1327.81 861.385ZM1340.79 923.827C1346.56 917.567 1346.49 888.405 1341.89 881.692C1336.94 878.634 1330.85 879.688 1325.09 880.108C1318.98 886.319 1319.18 915.135 1323.53 922.035C1328.17 925.435 1335.15 924.23 1340.79 923.827Z" fill="#1B458F"/>
<path d="M1366.72 1039.21C1402.65 1036.11 1413.42 1041.97 1411.95 1080.23C1411.31 1096.81 1413.34 1112.97 1393.76 1118.67C1357.25 1124.49 1343.93 1115.29 1346.63 1077.18C1347.97 1058.33 1343.11 1045.38 1366.72 1039.21ZM1385.78 1101.32C1394.25 1095.65 1390.94 1073.93 1390.54 1064.65C1390.13 1055.14 1379.28 1056.77 1372.13 1057.09C1365.54 1062.08 1366.96 1075.56 1366.89 1083.56C1366.74 1100.86 1369.69 1102.47 1385.78 1101.32Z" fill="#1B458F"/>
<path d="M2005.83 1039.18C2044.07 1036.54 2051.95 1043.17 2050.39 1081.88C2049.66 1099.96 2052.47 1113.74 2030.94 1118.98C1993.6 1124.06 1983.02 1113.83 1985.34 1076.1C1986.5 1057.28 1982.74 1044.74 2005.83 1039.18ZM2025.24 1101.05C2031.83 1095.92 2030.01 1078.87 2029.96 1070.66C2029.89 1061.51 2028.37 1056.83 2018.35 1056.93C2015.66 1056.95 2012.97 1057.04 2010.28 1057.21C2007.4 1060.13 2006.4 1062.15 2006.28 1066.25C2006.02 1074.61 2003.92 1092.51 2008.68 1099.38C2013.67 1102.74 2019.39 1101.61 2025.24 1101.05Z" fill="#1B458F"/>
<path d="M1707.16 1005.43C1715.12 1004.75 1724.27 1003.49 1723.79 1015.94C1723.42 1025.51 1722.95 1034.3 1722.96 1043.93C1736.45 1037.33 1761.41 1032.95 1764.91 1053.29C1766.62 1063.26 1769.32 1109.59 1765.04 1117.14C1760.03 1120.62 1752.1 1118.39 1746.07 1117.37C1745.42 1107.38 1745.95 1088.11 1745.94 1077.5C1746.19 1055.2 1744.43 1054.57 1723.04 1060.1C1723.09 1069.67 1724.05 1110.97 1721.79 1117.11C1716.55 1120.58 1708.73 1118.41 1702.51 1117.38C1701.75 1089.58 1702.39 1038.09 1702.74 1008.27C1702.76 1006.93 1705.7 1006.05 1707.16 1005.43Z" fill="#1B458F"/>
<path d="M1100.93 1005.33C1104.29 1005.09 1105.97 1004.68 1108.94 1006.39C1112.62 1010.94 1111.01 1063.64 1110.97 1073.87C1117.82 1063.19 1123.62 1051.18 1131.63 1041.42C1134.38 1038.06 1147.19 1037.43 1150.42 1040.9C1151.2 1047.96 1136.32 1068.41 1131.59 1075.68C1139.26 1087.94 1149.64 1103.78 1155.46 1116.54C1134.72 1130.17 1119.63 1092.15 1110.97 1077.58C1110.86 1084.24 1110.9 1091.51 1111.38 1098.11C1112.85 1118.66 1109.38 1121.32 1090.23 1116.97L1090.18 1042.42C1090.18 1036.32 1089.7 1012.5 1090.87 1008.14C1093.83 1005.6 1096.89 1005.77 1100.93 1005.33Z" fill="#1B458F"/>
<path d="M1455.58 828.409L1456.2 828.353C1461.98 827.835 1465.03 826.855 1469.25 830.389C1471.3 838.072 1470.35 885.848 1470.3 896.786C1477.22 885.238 1484.34 873.809 1491.66 862.502C1498.36 861.448 1505.72 858.847 1509.59 865.418C1509.73 872.367 1495.39 891.572 1490.94 898.469C1498.79 910.963 1506.17 922.658 1513.3 935.586C1513.88 936.874 1514.74 939.641 1512.97 940.441C1492.4 949.751 1479.28 915.199 1470.31 900.193C1470.22 906.504 1470.19 913.617 1470.64 919.87C1472.18 941.265 1469.78 943.716 1449.85 940.025C1449.84 914.024 1448.92 858.673 1450.52 830.557C1450.56 829.879 1454.38 828.82 1455.58 828.409Z" fill="#1B458F"/>
<path d="M1825.65 828.396C1829.57 828.095 1833.91 827.371 1837.49 828.799C1841.06 832.513 1840.37 839.101 1840.37 844.201C1840.38 861.811 1840.28 879.425 1840.2 897.036C1847.15 885.466 1854.23 873.969 1861.42 862.549C1868.12 861.478 1875.71 858.787 1879.52 865.424C1879.59 872.438 1865.32 891.555 1860.86 898.464C1868.68 910.927 1876.07 922.651 1883.19 935.537C1883.75 936.813 1884.68 939.505 1882.93 940.344C1862.67 950.069 1849.03 915.1 1840.2 899.986C1840.12 906.139 1840.08 913.061 1840.5 919.157C1842.01 940.69 1840.44 943.823 1819.76 940.046C1819.75 907.876 1818.13 862.376 1819.97 831.604C1821.5 829.066 1822.22 829.524 1825.65 828.396Z" fill="#1B458F"/>
<path d="M1713.53 861.412C1751.12 859.166 1748.03 887.173 1747.89 914.539C1747.87 918.141 1748.68 929.284 1746.09 931.814C1734.55 943.095 1703.22 945.482 1690.25 936.12C1684.11 926.156 1682.57 911.806 1688.44 901.249C1696.45 886.845 1716.25 897.848 1726 895.389C1727.32 893.244 1726.95 889.848 1726.74 887.288C1725.78 875.581 1704.85 880.967 1698.6 881.876C1696.1 875.979 1694.67 871.222 1692.8 865.15C1701.09 862.986 1705.07 862.232 1713.53 861.412ZM1724.68 924.751C1728.52 921.929 1727.24 915.398 1727.04 910.735C1720.19 909.131 1715.29 908.185 1708.18 908.945C1699.27 925.122 1710.96 927.538 1724.68 924.751Z" fill="#1B458F"/>
<path d="M995.637 861.419C1034.63 859.181 1030.07 888.564 1030.06 916.785C1030.16 920.086 1030.63 929.546 1028.21 931.949C1016.77 943.322 985.286 945.168 972.69 936.145C966.253 926.95 965.559 911.904 970.235 901.763C977.106 886.866 999.002 898.289 1008.6 894.978C1009.44 892.524 1009.1 891.911 1009.13 889.45C1009.29 875.24 990.49 880.464 981.145 881.97C978.246 875.61 977.092 871.773 975.117 865.172C982.855 862.999 987.716 862.205 995.637 861.419ZM1006.77 924.831C1010.53 922.145 1010.18 915.27 1008 911.749C1005.39 907.528 995.222 908.669 990.474 909.001C981.849 925.515 992.896 927.42 1006.77 924.831Z" fill="#1B458F"/>
<path d="M952.65 1039.23C998.287 1034.03 993.515 1062.43 993.643 1096.21C993.674 1104.36 993.905 1111.12 984.677 1114.37C971.583 1118.99 952.654 1121.21 939.533 1116.11C929.276 1107.23 928.057 1088.25 934.782 1076.91C940.842 1066.69 961.767 1074.1 972.315 1072.22C973.192 1069.98 972.991 1068.6 972.832 1066.26C971.887 1052.34 953.06 1057.83 944.723 1059.3C941.643 1052.55 940.664 1049.33 938.692 1042.35C943.05 1041.1 948.149 1040.16 952.65 1039.23ZM970.799 1102.03C974.246 1098.78 973.115 1092.75 972.924 1088.07C965.807 1086.3 961.667 1085.53 954.258 1086.04C944.062 1102.62 957.418 1104.35 970.799 1102.03Z" fill="#1B458F"/>
<path d="M1578.53 1039.31C1591.81 1037.81 1601.03 1037.58 1612.56 1044.47C1617.09 1051.52 1617.94 1057.1 1618.53 1065.26C1620.58 1093.55 1587.31 1079.29 1578.55 1089.1C1575.29 1109.29 1606.42 1095.84 1614.23 1098.78C1615.89 1103.43 1618.27 1108.16 1616.78 1112.7C1615.37 1114.39 1614.3 1115.3 1612.11 1115.91C1585.26 1123.6 1556.73 1119.36 1556.9 1085.43C1557.01 1062.42 1552.61 1046.5 1578.53 1039.31ZM1591.07 1070.66C1600.99 1067.51 1600.55 1059.41 1592.15 1055.03C1588.5 1054.74 1587.36 1054.8 1583.71 1055.21C1578.97 1059.16 1575.21 1063.52 1578.92 1069.46C1582.36 1072 1586.66 1071.05 1591.07 1070.66Z" fill="#1B458F"/>
<path d="M1479.89 1012.05L1530.48 1011.9C1539.45 1011.88 1548.08 1011.85 1557.05 1012.29C1567.19 1012.78 1563.34 1024.6 1562.19 1031.63C1552.85 1032.02 1541.36 1031.73 1531.85 1031.75V1088.5C1531.85 1112.62 1538.41 1122.13 1509.9 1117.29L1509.89 1031.75C1489.77 1031.41 1472.95 1039.41 1479.89 1012.05Z" fill="#1B458F"/>
<path d="M1811.69 1039.3C1824.74 1038.21 1840.5 1036.46 1844.36 1051C1846.91 1060.58 1849.12 1109.7 1845.1 1117.15C1840.02 1120.61 1832.15 1118.4 1826.08 1117.37C1825.08 1100.8 1827.39 1080.39 1825.39 1063.55C1824.97 1060.02 1823.56 1059.08 1821.17 1057.43C1813.6 1058.07 1810.36 1058.66 1803.05 1060.66C1803.1 1070.2 1804.05 1110.98 1801.8 1117.12C1796.56 1120.57 1788.73 1118.4 1782.52 1117.37C1782.45 1102.41 1780.71 1065.69 1784.03 1050.06C1785.24 1044.36 1804.73 1040.41 1811.69 1039.3Z" fill="#1B458F"/>
<path d="M2364.03 1039.33C2376.97 1038.22 2393.38 1036.48 2396.87 1051.38C2399.09 1060.82 2401.28 1110.48 2397.31 1117.37C2391.94 1120.5 2384.46 1118.38 2378.27 1117.3C2377.26 1101.12 2379.68 1079.14 2377.46 1062.53C2377.05 1059.46 2375.4 1058.73 2373.23 1057.43C2365.5 1058.13 2362.81 1058.67 2355.36 1060.53C2355.4 1069.97 2356.45 1111.42 2353.85 1117.36C2348.3 1120.45 2341.33 1118.42 2334.98 1117.38C2334.49 1107.09 2333.63 1061.63 2336.39 1049.94C2337.71 1044.31 2356.83 1040.45 2364.03 1039.33Z" fill="#1B458F"/>
<path d="M1012.05 1039.38C1015.7 1039.04 1027.5 1037.23 1029.11 1041.62C1033.59 1053.91 1024.99 1092.36 1033.22 1101.1C1038.57 1103.21 1047.12 1100.41 1052.82 1098.99C1052.84 1090.27 1051.32 1044.7 1054.28 1040.87C1059.19 1038.29 1067.69 1037.46 1072.17 1041.15C1074.68 1045.32 1073.66 1054.12 1073.52 1059.5C1073.46 1067.87 1075.61 1103.89 1071.27 1109.44C1065.07 1117.38 1037.57 1119.64 1027.47 1118.54C1008.24 1116.43 1009.5 1101.16 1009.06 1085.59C1009.11 1072.93 1009.44 1059.17 1009.03 1046.4C1008.94 1042.5 1009.43 1041.84 1012.05 1039.38Z" fill="#1B458F"/>
<path d="M2261.05 1040.19C2270.2 1039.89 2311.72 1038.72 2317.6 1041.42C2325.51 1052.78 2291.98 1088.35 2283.5 1098.87C2293.73 1098.76 2312.72 1097 2320.99 1101.37C2324.78 1106.37 2323.19 1112.19 2319.79 1117.18C2306.42 1117.15 2293.01 1117.47 2279.66 1117.37C2271.56 1117.3 2257.19 1119.42 2253.89 1110.52C2254.86 1099.72 2282.19 1069.13 2290.76 1058.44C2282.62 1058.43 2267.7 1060.52 2260.88 1056.17C2256.02 1053.07 2257.68 1044.42 2261.05 1040.19Z" fill="#1B458F"/>
<path d="M1202.62 861.408C1223.08 860.975 1234.24 859.928 1225.65 882.347C1218.23 880.835 1204.43 878.063 1197.71 882.051L1197.29 883.688C1203.36 893.549 1233.05 896.317 1233.78 914.829C1234.69 937.714 1221.38 940.667 1202.58 941.909C1194.48 941.26 1174.16 942.32 1174.4 931.454C1174.46 928.515 1177.1 922.524 1178.29 919.656C1186.27 921.81 1207.94 926.878 1213.41 919.796C1210.74 906.465 1160.38 904.87 1182.44 867.535C1190.39 862.527 1193.15 862.215 1202.62 861.408Z" fill="#1B458F"/>
<path d="M1061.82 828.431C1065.69 828.065 1065.79 828.289 1068.28 830.024C1071.71 835.856 1070.12 859.171 1070.04 867.286C1075.05 863.768 1080.6 858.592 1086.04 863.481C1088.95 873.915 1077.33 882.028 1070.04 886.566C1070.14 895.137 1068.53 914.441 1071.31 921.341C1075.54 923.053 1082.03 918.575 1084.14 924.446C1086.77 931.785 1087.65 935.733 1081 939.283C1045.57 947.875 1049.55 925.353 1049.86 899.794C1047.85 900.92 1045.82 902.029 1043.79 903.122C1039.98 903.083 1041.31 903.632 1038.73 901.246C1035.36 891.974 1042.81 884.647 1049.86 880.313V829.968C1053.28 829.25 1058.24 828.831 1061.82 828.431Z" fill="#1B458F"/>
<path d="M1255.17 842.329C1261.64 841.88 1265.91 840.318 1270.74 844.999C1272.52 848.959 1271.77 857.267 1271.66 861.964C1276.88 861.876 1283.44 861.057 1287.75 863.585C1291.59 869.133 1289.45 874.067 1288.17 881.23L1271.66 881.25C1271.61 894.71 1271.22 910.036 1272.14 923.321C1276.36 922.222 1281.56 920.301 1285.78 918.87C1288.75 924.827 1290.87 928.868 1290.94 935.548C1288.31 936.845 1285.34 938.549 1282.59 939.482C1236.95 954.989 1256.09 900.787 1249.97 881.806C1246.99 881.289 1245.61 880.952 1242.73 880.017C1238.23 876.066 1238.8 869.008 1241.22 864.069C1244.48 861.481 1245.59 861.975 1250.37 861.776C1253.38 854.094 1246.47 846.747 1255.17 842.329Z" fill="#1B458F"/>
<path d="M1407.23 861.362C1419.52 861.187 1424.69 862.281 1436.24 865.231C1434.63 872.805 1433.98 875.279 1430.97 882.432C1425.36 881.445 1415.7 879.67 1410.46 879.711C1396.41 879.823 1397.88 916.318 1406.25 922.35C1413.38 924.638 1423.33 921.916 1430.86 920.506C1432.56 924.098 1433.74 927.998 1435.01 931.774C1435.66 935.668 1435.9 934.224 1434.51 937.509C1431.2 939.848 1428.83 939.7 1425.31 940.397C1387.52 947.893 1377.19 929.74 1379.76 894.921C1381.36 873.425 1383.87 864.342 1407.23 861.362Z" fill="#1B458F"/>
<path d="M2211.58 1039.18C2224.97 1037.83 2233.47 1039.12 2246.08 1042.43C2244.9 1049.52 2243.78 1053.01 2241.03 1059.59C2219.99 1056.08 2212.28 1051.21 2210.28 1075.28C2208.06 1102.01 2215.49 1101.4 2239.16 1098.59C2240.98 1098.37 2241.91 1100.49 2242.75 1101.71C2244.12 1105.67 2245.24 1110.66 2246.27 1114.8C2210.05 1127.75 2185.9 1115.1 2189.68 1077.02C2191.72 1056.54 2188.18 1046.02 2211.58 1039.18Z" fill="#1B458F"/>
<path d="M1654.68 1039.14C1661.62 1038.46 1675.46 1037.99 1681.95 1040.38C1691.44 1043.87 1686.44 1053.14 1683.68 1059.6C1659.59 1055.51 1654.29 1052.02 1652.56 1078.83C1650.96 1103.76 1662.24 1100.57 1681.63 1098.57C1683.5 1098.38 1683.96 1099.64 1685.1 1100.92C1686.7 1105.31 1687.84 1110.11 1689.02 1114.65C1688.37 1114.9 1687.73 1115.13 1687.07 1115.36C1651.94 1127.61 1628.71 1114.06 1632.38 1077.41C1634.44 1056.86 1630.76 1045.69 1654.68 1039.14Z" fill="#1B458F"/>
<path d="M1953.16 1005.28C1955.95 1005.12 1961.59 1004.54 1962.62 1008.18C1966.38 1021.42 1959.61 1090.83 1965.04 1098.92C1968.18 1100.13 1971.28 1098.63 1974.75 1097.6C1977.03 1102.44 1980.27 1107.61 1979.26 1112.7C1976.46 1116.45 1976.76 1115.49 1971.86 1117.56C1967.14 1118.55 1961.68 1119.33 1956.88 1118.72C1952.86 1118.21 1948.49 1116.1 1946.3 1112.87C1944.7 1110.51 1942.96 1099.28 1943.03 1096.93C1943.39 1084.38 1941.34 1015.48 1943.57 1007.86C1946.39 1005.67 1949.49 1005.74 1953.16 1005.28Z" fill="#1B458F"/>
<path d="M1795.47 861.344C1799.61 861.067 1804.92 860.865 1808.24 863.361C1810.92 869.509 1808.09 873.568 1805.51 880.28C1795.87 879.445 1793.11 879.863 1783.89 882.937C1783.87 900.247 1784.63 919.247 1783.71 936.596C1783.54 939.764 1782.07 940.366 1780 942.014C1774.15 941.796 1769.3 940.982 1763.54 940.105C1763.43 929.725 1760.95 878.363 1765.36 872.651C1771.6 864.57 1786.14 862.397 1795.47 861.344Z" fill="#1B458F"/>
<path d="M2149.71 1039.27C2153.78 1038.94 2159.16 1037.99 2163.16 1038.96C2174.56 1041.72 2163.11 1088.25 2169.47 1098.83C2172.64 1100.12 2175.65 1098.69 2179.17 1097.7C2182.32 1104.29 2187.28 1110.68 2180.82 1116.14C2148.49 1125.51 2146.61 1111.12 2146.91 1082.53C2147.06 1068.98 2146.27 1054.87 2147.62 1041.38C2147.62 1041.38 2149.54 1039.45 2149.71 1039.27Z" fill="#1B458F"/>
<path d="M936.518 861.347C937.822 861.293 941.592 861.023 942.713 861.963C952.88 870.489 939.349 917.465 949.261 922.301C952.485 921.535 953.353 921.224 956.625 921.513C960.257 924.08 963.359 932.502 961.565 936.616C958.975 939.34 955.782 939.74 952.032 940.782C943.646 942.275 931.222 942.347 928.017 933.963C924.531 924.848 923.278 870.791 926.145 863.908C929.311 861.532 932.452 861.725 936.518 861.347Z" fill="#1B458F"/>
<path d="M1535.8 861.384C1539.16 861.216 1539.94 861.05 1543.01 862.304C1547.86 868.721 1544.5 908.253 1545.24 918.844C1548.95 923.29 1565.65 921.186 1560.8 936.514C1558.22 939.264 1554.95 939.703 1551.18 940.777C1542.79 942.283 1530.17 942.251 1527.04 933.847C1523.64 924.709 1522.38 870.871 1525.21 863.934C1528.33 861.516 1531.7 861.741 1535.8 861.384Z" fill="#1B458F"/>
<path d="M1427.69 1061.25C1441.63 1061.21 1456.09 1060.96 1469.98 1061.51C1470.31 1068.95 1470.35 1073.54 1468.2 1080.67C1454.14 1080.83 1440.09 1080.75 1426.04 1080.43C1425.59 1073.27 1425.53 1068.1 1427.69 1061.25Z" fill="#1B458F"/>
<path d="M2159.74 1005.42C2161.74 1005.2 2163 1005.63 2164.94 1006.06C2170.82 1010.67 2169.69 1021.9 2165.67 1027.69C2162.96 1029.78 2160.57 1029.26 2157 1029.22C2153.86 1028.89 2153.14 1028.63 2150.1 1027.67C2144.3 1022.51 2144.43 1013.14 2149.49 1007.8C2151.8 1005.36 2156.64 1005.6 2159.74 1005.42Z" fill="#1B458F"/>
<path d="M934.842 828.279C937.269 828.075 939.199 828.223 941.632 828.337C949.249 833.26 947.458 842.257 944.946 849.5C941.9 852.317 943.285 851.441 938.388 852.259L925.477 850.38C925.142 843.977 923.818 836.469 926.604 831.037C928.992 828.596 931.325 828.756 934.842 828.279Z" fill="#1B458F"/>
<path d="M1533.79 828.291C1536.24 828.079 1538.18 828.216 1540.64 828.32C1548.33 833.422 1546.56 842.156 1543.96 849.576C1540.94 852.345 1542.26 851.477 1537.33 852.248L1524.54 850.369C1524.36 844.593 1523.29 836.2 1525.47 831.406C1529.04 828.368 1528.55 829.233 1533.79 828.291Z" fill="#1B458F"/>
</svg>
