<svg xmlns="http://www.w3.org/2000/svg" viewBox="924 532 4732 1788"><path fill="#68478c" d="M2072.5 534.5c-1.6.8-4.2 1.4-5.7 1.5-2.6 0-11.6 1.9-26.8 5.7-3.6.8-9.2 1.9-12.5 2.4-3.3.4-8 1.5-10.4 2.3-2.4.9-5.3 1.6-6.4 1.6-2 0-6.4 1-26.2 5.7-3.8.9-9 2-11.5 2.4-2.5.3-7.6 1.4-11.5 2.3-3.8.9-11.3 2.6-16.5 3.7s-12.4 2.7-16 3.6c-3.6.8-9.4 2.1-13 2.8-15.1 3-18.9 3.8-25.5 5.6-3.8 1-8.1 1.9-9.4 1.9s-5.8.9-10 1.9c-4.2 1.1-12.1 2.9-17.6 4.1-5.5 1.1-12.9 2.8-16.5 3.6-3.6.9-9.4 2.2-13 2.9-15.1 3-18.9 3.8-25.5 5.6-3.8 1-8.1 1.9-9.4 1.9s-5.8.9-10 1.9c-4.2 1.1-12.1 2.9-17.6 4.1-5.5 1.1-12.9 2.8-16.5 3.7-3.6.8-7.8 1.7-9.5 2-3.3.4-17.1 3.4-27.5 6-3.6.8-9.2 1.9-12.5 2.4-3.2.5-8.2 1.6-11 2.3-2.7.8-9.5 2.4-15 3.5-5.5 1.2-12.9 2.9-16.5 3.7-3.6.9-8.7 2-11.5 2.4-6.6.9-14.7 3.1-16.2 4.3-2.1 1.6-1.9 226.5.2 227.3 1.5.6 11.4-1.5 27.2-5.7 4-1 8.1-1.9 9-1.9 1 0 5-.8 8.8-1.9 3.9-1 11.5-2.9 17-4.1s11.8-2.6 14-3.1c2.2-.6 6-1.5 8.5-2 2.5-.6 7.2-1.7 10.5-2.6 3.3-.8 8.3-1.8 11-2.3 2.8-.4 8.2-1.5 12-2.5 11.4-2.8 21.4-5.2 32-7.6 5.5-1.2 12.7-2.8 16-3.7 3.3-.8 8.1-1.8 10.7-2.2 2.6-.5 7.1-1.5 10-2.3 8.9-2.5 23.2-5.7 25.2-5.7 1.1 0 4.9-.9 8.5-1.9 3.6-1.1 11.1-2.9 16.6-4.1s11.8-2.6 14-3.1 7.2-1.6 11-2.4c3.9-.8 9.5-2.1 12.5-2.9s10-2.4 15.5-3.6c10.3-2.2 19.8-4.5 32-7.5 3.9-1 9.5-2.1 12.5-2.6 3-.4 7.5-1.5 9.9-2.4 2.4-.8 5.6-1.5 7.1-1.5s5.1-.8 8.1-1.8c3-1.1 7.7-2.2 10.6-2.6s7.1-1.3 9.4-2.1 5.2-1.5 6.5-1.5c1.4 0 5.7-.9 9.7-1.9 12-3.2 21-5.3 25.7-6.1 2.5-.4 7.7-1.5 11.5-2.5 3.9-.9 9.8-2.4 13.3-3.2 3.9-1 6.8-2.3 7.7-3.6 1.5-2.2 2.1-213.2.6-218.7-.8-3-3.4-3.4-7.6-1.5M1591 928.1c-10.7.4-23.1 1.3-27.5 1.9s-13.8 1.5-20.9 2-14.3 1.4-16 1.9c-1.7.6-7.5 1.5-12.8 2.1-5.3.5-10.7 1.4-12 1.9-1.3.4-4.5 1.1-7.3 1.5-6.2.8-21.6 4.1-31.2 6.7-4 1-8 1.9-9 1.9-.9 0-4.8.9-8.7 2.1-3.9 1.1-10 2.9-13.6 3.9s-8.7 2.6-11.5 3.5c-2.7.8-7 2.2-9.5 2.9-5 1.5-9.1 2.9-16.5 5.7-2.8 1.1-5.6 1.9-6.3 1.9s-3 .9-5.2 2-4.7 2-5.7 2-3.5.9-5.6 2c-2 1.1-4.2 2-4.8 2-.7 0-3 .9-5.3 1.9s-7 3.1-10.6 4.6c-10.1 4.2-53.6 25.2-59 28.5-.8.5-7.3 4.2-14.3 8.2-7.1 4-14 8.1-15.5 9-1.5 1-4.4 2.8-6.6 4-2.1 1.3-4.6 2.8-5.5 3.3-2.8 1.7-21.4 14.3-26.1 17.7-2.5 1.7-5.8 4.1-7.5 5.2-4.1 2.9-21.3 15.9-24.8 18.8-1.6 1.3-5.6 4.5-9 7.3-3.4 2.7-6.8 5.6-7.7 6.5-.9.8-3.8 3.3-6.5 5.5-17.7 14.5-57.5 54.2-72 72-2.2 2.7-4.7 5.6-5.5 6.5-2.1 2.2-11.1 13.1-13.4 16.4-1.1 1.5-3 3.9-4.3 5.4-2.3 2.7-17.5 23.3-22.2 30.2-1.3 1.9-4.3 6.3-6.7 9.7-2.4 3.5-4.4 6.5-4.4 6.8s-1.5 2.7-3.4 5.3c-1.8 2.7-4.1 6.2-5 7.8s-2.5 4.2-3.6 5.9c-1.1 1.6-2.5 4.1-3.2 5.5s-2.3 4-3.5 5.8-3.1 5.2-4.3 7.5-4.1 7.8-6.6 12.2c-6 11-17.2 33.9-24.4 50-1 2.2-2.7 6.1-3.9 8.6s-2.1 5-2.1 5.5c-.1.5-.9 2.7-2 4.9s-1.9 4.4-2 4.8c0 .5-.7 2.3-1.5 4-.8 1.8-2.1 5-2.8 7.2-.8 2.2-2.1 5.6-2.8 7.5s-2 5.7-2.9 8.5c-1 2.7-2.3 6.6-3 8.5s-2 6.2-3 9.5-2.8 9.1-4 13c-1.2 3.8-2.6 8.8-3.2 11-.5 2.2-1.8 6.9-2.8 10.5-3.2 11.8-9.5 40.1-10.5 48-.4 2.5-1.1 5.8-1.6 7.5-.5 1.6-1.5 7.7-2.3 13.5s-1.9 13.6-2.5 17.5c-.5 3.8-1.2 10.6-1.5 15s-1 11.1-1.5 15c-.9 6.4-1.6 19.4-2.6 49.5-.4 14.6 1.2 61.2 2.5 71.6.6 4.3 1.3 11 1.6 14.9.3 3.8 1.2 11.3 2.1 16.5.8 5.2 1.9 13.3 2.4 18s1.6 10.7 2.4 13.4 1.5 6.6 1.5 8.7c0 2 .9 6.6 2 10.1 1.1 3.4 2 7.4 2 8.8s.8 5.6 1.9 9.5c1 3.8 2.5 9.2 3.1 12 .7 2.7 2.1 7.9 3.1 11.5s2.3 8.5 3 11c1 4.2 2.1 7.5 6.3 19.5 1 2.7 2.1 6.6 2.5 8.5.5 1.9 1.5 5.1 2.3 7 .9 1.9 2 4.8 2.6 6.5 3.2 9.4 4 11.3 9.3 24.7 1.1 2.9 2.9 7 4 9 1 2 1.9 4.2 1.9 4.9 0 2.3 22.2 47.5 30.2 61.6 3.2 5.6 5.8 10.5 5.8 10.8 0 .7 4.6 8.3 11.6 18.9 2.2 3.4 4.4 6.9 4.7 7.7 1.8 3.6 17.8 26.9 27.7 40.2 7.6 10.2 29.4 37.5 34 42.3 2.6 2.8 5.4 6.1 6.2 7.3 5.6 7.9 46.1 48 60.3 59.6 2.7 2.2 5.8 4.9 6.9 6 2.2 2.2 30.7 24.9 38.3 30.5 10 7.5 38 26.7 40.8 28 .6.3 3.5 2.1 6.5 4.1s12 7.3 20 11.8 15.2 8.6 16 9.1c6.8 4.1 54.5 27 56.2 27 .7 0 2.7.9 4.3 2 1.7 1.1 3.9 2 5 2s3.4.9 5 2c1.7 1.1 3.9 2 5 2s2.9.6 4 1.4c1.1.7 3.6 1.8 5.5 2.4 5.5 1.7 16.3 5.7 18.7 7 1.2.7 3 1.2 4 1.2s4 .8 6.8 1.9c8.9 3.3 24.6 7.9 41.5 12.1 4.7 1.2 10.8 2.8 13.5 3.5 2.8.8 7.7 1.9 11 2.4 3.3.6 8.5 1.8 11.5 2.6s6.8 1.5 8.5 1.5 5.7.7 8.8 1.5c3.2.8 10.2 2 15.5 2.5 5.3.6 11.1 1.5 12.7 2 1.7.5 9.1 1.4 16.5 2 7.4.5 17.3 1.5 22 2.1 12.2 1.8 94.1 1.7 107.5 0 5.5-.7 13.4-1.5 17.5-1.8 4.1-.2 12-1.1 17.5-2 5.5-.8 13.8-1.9 18.5-2.4s10.7-1.6 13.4-2.4 6.6-1.5 8.6-1.5 5.9-.7 8.7-1.5 8.6-2.2 12.9-3c8.9-1.6 14-2.8 23.4-5.5 3.6-1 8.5-2.4 11-3 10.8-2.7 15.7-4.2 18.7-5.6 1.7-.8 3.8-1.4 4.7-1.4s3.3-.7 5.4-1.6c2-.9 5.7-2.2 8.2-2.9 6-1.7 10.6-3.4 15.8-5.6 2.3-1.1 5-1.9 6-1.9.9 0 3.4-.9 5.5-2 2-1.1 4.2-2 4.8-2 .7 0 3-.9 5.3-1.9s7-3.1 10.6-4.6c16.8-7 44.3-20.2 57.5-27.5 3.9-2.2 8.8-4.9 11-6 6.1-3.2 11.1-6.1 23.2-13.4 9.6-5.8 37-24.1 42.8-28.6 3.3-2.5 7-5.2 8.2-6 4.3-3 25.1-19 27.4-21.3 1.3-1.2 4.9-4.3 7.9-6.7 18.4-14.9 60.8-56.4 75-73.5 4.1-5 8.1-9.6 8.8-10.4 3-3.1 21.2-26.2 27.7-35.1 3.8-5.2 7.5-10.1 8.2-10.8s1.3-1.9 1.3-2.6c0-.8.6-1.9 1.4-2.5 1.7-1.4 12.5-17.5 22.8-34.1 1.9-3 3.8-6.2 4.2-7s1.8-3.3 3.1-5.5c1.4-2.2 3.2-5.4 4.1-7 .8-1.7 2.8-5.1 4.2-7.7 3.3-5.9 22.2-43.6 25-49.8 1.1-2.5 3.2-7.1 4.6-10.2s2.6-6.3 2.6-7 .9-2.7 2-4.3c1.1-1.7 2-3.9 2-5s.9-3.4 2-5c1.1-1.7 2-3.8 2-4.8 0-.9.9-3.4 2-5.4 1.1-2.1 2-4.6 2-5.5 0-1 .8-3.7 1.9-6 2.3-5.3 3.8-9.5 6.1-17.3 1-3.3 2.2-7.4 2.8-9 3.3-9.7 10.4-35.7 12.4-45.5.6-3 1.9-8.4 3-11.9 1-3.5 1.8-7.8 1.8-9.5 0-1.8.7-5.5 1.5-8.2 1.5-5.2 4-20.6 5.6-35.4.5-4.7 1.4-11 1.9-14 3-17 4.5-46.8 4.4-86.5 0-39.1-1.5-60.6-6.5-94.5-.5-3.6-1.6-11.2-2.4-16.9-.8-5.8-2.2-12.7-3-15.5-.8-2.7-1.5-6.3-1.5-7.9s-.9-6.4-2-10.6-3.3-13.2-5-20.1c-4.1-16.9-6.9-26.9-8-29.1-.6-1-1-2.7-1-3.9s-.8-4.2-1.8-6.8c-2.2-5.5-4.7-12.9-6.7-19.2-1.5-5.1-4.3-12.9-7.5-21-1.2-3-2.9-7.3-3.6-9.5-1.6-4.4-3.7-9.1-6.5-14.7-1.1-2-1.9-4.2-1.9-4.7 0-2-17.6-38.2-25.6-52.6-2.4-4.4-5.3-9.8-6.4-12s-4.1-7.2-6.5-11c-2.5-3.9-4.9-8-5.4-9.2-.6-1.2-2.6-4.5-4.6-7.2-1.9-2.8-3.5-5.3-3.5-5.5 0-.5-12.9-19.7-18-26.6-2.2-3-5.1-7.1-6.4-9s-4.5-6.3-7.2-9.7-6.3-8.2-8.1-10.5c-1.7-2.4-4-5.2-5-6.3s-6.3-7.4-11.7-13.9c-21.5-25.9-48.7-52.9-82.6-82-.8-.7-7.1-5.7-14-11.2-19-15.2-27.8-21.6-50-36.4-5.2-3.5-10.7-7.1-12.2-8.1-1.5-1.1-3-1.9-3.3-1.9s-2.7-1.6-5.4-3.5-6.5-4.1-8.3-5c-1.8-.8-4.6-2.4-6.3-3.5-1.6-1.1-4.3-2.7-6-3.6-1.6-.8-7-3.7-12-6.4-17.4-9.3-43.3-21.8-59.5-28.5-3.6-1.5-7.9-3.3-9.7-4.1-1.7-.8-3.5-1.4-4-1.4-.4 0-2.1-.7-3.6-1.5s-4.2-1.9-6-2.4c-1.8-.6-6.3-2.2-10.2-3.6-8-3-21.8-7.5-32-10.6-3.8-1.1-8.3-2.5-10-3.1-3.5-1.1-13.9-4-21-5.7-2.7-.7-7.2-1.9-10-2.6-2.7-.8-8.1-1.9-11.9-2.5s-7.7-1.5-8.6-2c-1-.5-4.4-1.2-7.6-1.6-3.3-.3-8.1-1.2-10.9-2-2.7-.7-9.5-1.8-15-2.4s-11.6-1.5-13.5-2c-3.4-.8-8.9-1.5-21.5-2.5-3.3-.3-9.7-1-14.3-1.6-8.7-1-54.3-3-65.2-2.7-3.6 0-15.3.5-26 .9m1935.2 157.1c-.9.9-1.2 95.9-1.2 421.5 0 419 0 420.3 2 422.3s3.3 2 82.3 2c61.1 0 80.6-.3 81.5-1.2s1.2-96.4 1.2-423.5V1084h-82.3c-62.7 0-82.6.3-83.5 1.2m2034.8 125c-31.2 9.8-50.8 35.6-51.3 67.8-.2 11.1 3.1 25.8 7.4 33 .5.8 1.4 2.6 2.1 4 5.9 12.4 20 23.6 39.3 31.1 9.3 3.7 38 3.5 47.5-.4 22.6-9.1 36.3-22.6 43.6-43.2 4.1-11.5 4.2-37.2.1-47.5-9.4-23.7-24.6-37.8-48.3-44.9-9.9-2.9-30.9-2.9-40.4.1m31.5 17.8c20.5 3.3 37.1 21.4 39.6 42.8 3.3 29-11.8 51.8-38.8 58.2-10.8 2.5-14.9 2.5-24.8-.3-11.1-3.1-15.9-5.9-23.6-13.6-19.8-19.8-19.9-53.5-.1-73.1 12.8-12.7 28.2-17.2 47.7-14m-35.7 15.6c-1.4 1.3-1 68.8.4 70.2.7.7 3.9 1.2 7.5 1.2 7.8 0 8.3-.8 8.3-12.4 0-9 1.1-11.6 5.1-11.6 3.1 0 14.2 12.7 17.9 20.4 1.4 3 1.8 3.1 8.2 3.4 13.8.6 14.2-7.4 1.1-20.7-3.9-4-4-6.8-.5-10.4 10.9-11.4 8.4-29.6-5.3-37.8-3.8-2.3-5-2.4-23-2.7-10.4-.2-19.3 0-19.7.4m32.2 16.7c2.6 1.3 3.7 5 2.6 9.1-1.3 5.1-12.6 7.6-16.6 3.6-2.5-2.5-2.8-10.1-.4-12.4 1.9-2 10.8-2.1 14.4-.3M3087.5 1320c-6.6.4-15.1 1.5-19 2.4-3.8.8-8.5 1.6-10.3 1.6s-4.8.6-6.6 1.4c-1.8.7-5.3 1.7-7.7 2.1-2.4.3-7 1.5-10.2 2.6-3.1 1-6.3 1.9-6.9 1.9-1.4 0-10.2 3.3-16.4 6.1-2.3 1.1-4.7 1.9-5.4 1.9-.6 0-2.4.6-3.8 1.4-1.5.8-7.4 3.8-13.1 6.6-8.9 4.4-15.6 8.3-24.5 14.2-3.3 2.3-15.1 11.1-15.6 11.7-3 3.7-17.3 16-18 15.6-.6-.4-1-11.6-1-28.6 0-17.4-.4-28.8-1-30-1.7-3.1-161.9-3-165 .1-2 2-2 3.3-2 430.4 0 359.9.2 428.5 1.4 429.5 1 .8 23.7 1 83.7.9l82.4-.3.3-160.8c.2-130.1.5-160.7 1.5-160.7.7 0 3.5 2.3 6.2 5.1 2.8 2.8 8.6 8 13 11.5s8.7 7 9.5 7.7c4.9 4.3 16.3 11 30 17.7 5.8 2.8 11.2 5.5 12.1 6s5.4 2.3 10 4c4.6 1.8 9.9 3.8 11.7 4.6s3.8 1.4 4.5 1.4 4.1.9 7.7 1.9c9.5 2.9 19.4 5.2 28.5 6.6 4.4.7 10.5 1.8 13.5 2.5 10.4 2.2 67.3 1.6 81.5-.9 21.3-3.8 34-6.6 38.7-8.5 2.1-.9 4.5-1.6 5.5-1.6s4.2-1 7.3-2.1c3-1.2 8-3.1 11-4.2 8.1-2.9 30.9-13.7 43.7-20.7 2.9-1.6 23.5-15.4 28.8-19.3 15.6-11.5 37.5-32.5 49.2-47.2 3.5-4.4 7.1-9 8.1-10.1 1.7-2.2 2.8-3.7 6-8.5.9-1.5 3-4.6 4.6-7 7.2-10.8 9.9-15.3 16.6-28.9 7.6-15.3 8.6-17.5 11.8-25.5 4.9-12.5 8.8-23.7 10.7-31.5.8-3 1.9-7.3 2.4-9.5 2.7-10.4 4.4-18.8 5.7-28 .8-5.5 1.8-12.5 2.3-15.5 1.2-7.1 1.3-75 .1-81.5-.5-2.8-1.6-10.2-2.4-16.5-1.5-11.7-3.6-21.9-6-30-.8-2.5-1.7-6.1-2.1-8-2.1-11.1-13.5-41.2-21.6-57-4.2-8.2-8.8-16.4-11.5-20.6-1.9-2.8-3.4-5.4-3.4-5.8 0-.3-1.9-3.3-4.2-6.5-2.4-3.3-5-6.9-5.8-8.1-.8-1.3-2.3-3.2-3.2-4.4-.9-1.1-4.1-5-6.9-8.6-5.8-7.3-29.2-30.9-35.4-35.8-27.8-21.9-39.8-29.3-69.8-43.1-4.9-2.3-9.4-4.1-10-4.1-.7 0-2.5-.7-4.2-1.6-1.6-.9-5-2.2-7.5-2.9s-5.8-1.8-7.5-2.3c-6.8-2.5-16.3-5.1-20.5-5.7-2.5-.4-5.3-1.1-6.2-1.6s-5.2-1.4-9.5-2c-4.3-.5-11-1.6-14.9-2.4-8.5-1.7-53.3-2.7-70.9-1.5m23.5 157.9c1.9.7 6.9 1.6 11 2.2s8.7 1.7 10.2 2.5 3.7 1.4 5 1.4 4 .9 6.1 2c2 1.1 4.2 2 4.8 2 3.5 0 24.3 11.8 35.4 20.1 8.3 6.2 19.9 17.4 25.2 24.5 20.7 27.4 30.7 54.6 32 87 .6 16-.9 41.1-2.7 44.4-.5 1-1.6 4.6-2.3 8.1-2.5 11-9.5 27.7-15.7 37.4-1.1 1.6-2.7 4.3-3.6 6-5.5 10-27.3 32.1-38.9 39.5-3.9 2.5-8 5.1-9 5.8-3.8 2.4-21 10.5-24 11.3-1.6.4-5 1.4-7.5 2.2-11.5 3.8-15.2 4.7-24 5.7-5.2.6-11.7 1.5-14.5 2.1-8.8 1.9-43.9-1-53.8-4.4-2.3-.8-6-1.9-8.2-2.5-9.2-2.4-26-9.5-34-14.4-18.3-11.2-33.2-24.5-44-39.3-17.6-24.1-26.7-49-29.7-81.9-1.5-15.4 1.6-42.7 6.2-55.6.7-1.9 2.1-6 3.2-9 12.7-36.2 44.4-70.1 78.8-84.5 3.6-1.4 7.9-3.3 9.5-4.1 1.7-.7 5.2-1.8 7.8-2.4s5.5-1.5 6.5-2c1.5-.9 10.5-2.7 24.7-5 6.8-1.2 41.2-.4 45.5.9M4857.5 1320c-9.5.6-28 4.2-31.4 5.9-.9.5-3.2 1.1-5.1 1.5-7.2 1.3-26.1 9.5-37.5 16.2-2.2 1.3-5.6 3.2-7.5 4.3-10.9 6.1-30.3 23.9-42.8 39.4-3.5 4.3-6.7 7.5-7.2 7.2-.6-.4-1-12.7-1-31.1 0-19.1-.4-31.3-1-32.5-1.7-3.1-161.9-3-165 .1-2 2-2 3.3-2 299s0 297 2 299 3.3 2 82.9 2c63.7 0 81.2-.3 81.8-1.3.4-.6 1-80.9 1.3-178.2.6-192.3.4-185.7 6.1-202.9 6.5-20 20-39.6 33.3-48.5 2.2-1.4 5.1-3.4 6.5-4.3 15.6-10.3 46.2-17.4 64.7-15 12.7 1.6 30.9 6.7 37.5 10.3 31.2 17.5 48.2 42.4 53.9 78.9.4 3 .9 84.9.9 182 .1 135.9.4 176.9 1.3 177.8s20.5 1.2 81.9 1.2c75.4 0 80.8-.1 82.8-1.8l2.1-1.7.3-181.5.3-181.5 2.6-9c8.5-28.6 19.1-44 40.3-58.7 11.6-8 26.4-12.9 47.5-15.9 18.6-2.7 42.9 2.9 64 14.6 11.2 6.2 31 28.2 35.6 39.5.4.8 1.5 3.3 2.5 5.5s2.1 5.3 2.5 7c.4 1.6 1.3 4.2 2 5.7 4.5 8.9 4.8 20.6 5.4 202.8.3 94.9.9 173.1 1.3 173.7.6 1 18.1 1.3 81.7 1.3 79.7 0 80.9 0 82-2 .7-1.4 1-66.4.8-215.7l-.3-213.8-2.3-9.5c-1.3-5.2-2.8-10.9-3.3-12.5-.6-1.7-1.5-4.8-2-7-2.6-11.5-15.1-36.7-27.1-54.9-6.6-9.9-21.2-26.5-31.4-35.6-12.7-11.5-29.1-24-31.4-24-.5 0-1.5-.6-2.2-1.3-7.2-6.8-44.4-23.1-62.3-27.2-3.3-.7-7.1-1.8-8.5-2.3s-5-1.3-8-1.7-8.4-1.4-12-2.3c-9.5-2.2-70.5-2.2-80 .1-3.6.8-9.2 1.8-12.5 2.2s-7.3 1.3-9 2c-1.6.6-4.8 1.5-7 1.9-4.5.8-15.5 4.2-20 6.2-1.6.7-5 2.1-7.5 3-9.2 3.3-11.7 4.3-19.5 8.4-19.6 10.3-39.9 25.3-55.5 41.2-10.5 10.6-12.2 11.2-15.3 5.8-4-6.7-26.7-27.4-41.3-37.6-4.7-3.3-23.9-14.1-26.6-14.9-1.2-.4-2.7-1.1-3.3-1.5-4.1-3.1-34.4-12.7-47.5-15-3.6-.7-8.3-1.6-10.5-2-5.6-1.2-48.9-1.9-61-1m-1011.3 10.6-2.2 1.5.1 196.2c.1 107.9.5 200.5 1 205.7 2.1 23.1 4.9 40.6 8 49.5.6 1.6 1.5 4.8 2 7 2.4 9.9 14.7 38.2 20.9 48 1.1 1.6 2.9 4.6 4 6.5 7.7 13.3 26.1 34.6 39.5 45.9 12.2 10.2 40.8 29.1 44.1 29.1.4 0 2.5.8 4.8 1.9 10.7 4.9 14.1 6.1 35.6 12.6 2.5.8 7 1.7 10 2 3 .4 8 1.3 11 2.2 9.6 2.7 61.4 2.3 76.6-.6 11.4-2.2 22.6-5 28.9-7.3 1.7-.5 5-1.6 7.5-2.3s5.9-2 7.5-2.9c1.7-.9 3.5-1.6 4-1.6 3.3-.1 33.2-17.1 39.1-22.3.8-.7 2.6-2.1 4.1-3.2 1.6-1.1 8.1-7.3 14.7-13.8 13.3-13.3 13.6-13.3 16.2-4 .7 2.6 2.1 7 3 9.8 1 2.7 2.5 7.2 3.5 10 .9 2.7 2.2 6.6 2.9 8.5s1.8 5.7 2.6 8.3c.7 2.7 2.4 6.7 3.6 9l2.3 4.2 92.2.3 92.2.2 1.2-2.1c.9-1.7.7-3.1-.9-6.8-2.5-6-4.1-10.5-5.8-16.5-.7-2.6-1.8-5.4-2.3-6-.6-.7-1.4-3-2-5.1-.5-2.2-2.2-7.2-3.6-11-1.5-3.9-3.3-9-4-11.5-.8-2.5-2.6-7.7-4-11.5-1.5-3.9-3.3-9-4-11.5-.8-2.5-2.6-7.7-4-11.5-1.5-3.9-3.3-9-4-11.5s-2-6.2-2.9-8.2c-1.4-3.4-1.6-26.7-1.6-244.7v-241l-2.2-1.5c-3-2.1-162.6-2.4-164.6-.4-.9.9-1.2 41.5-1.3 176.2 0 96.3-.4 177.3-.8 180.1-4.9 31.4-17 55.3-34.9 69.1-3.5 2.7-6.9 5.4-7.5 6-1.4 1.2-5.1 3.3-11.7 6.5-36.1 17.6-82.9 13.4-112.5-10.2-22.9-18.2-34.5-39.5-39.5-71.9-.5-3-.9-84-.9-180-.1-134.4-.4-174.9-1.3-175.8-2-2-161.6-1.7-164.6.4"/><path fill="#232323" d="M3528.5 1086.2c-.3.7-.4 190.3-.3 421.3l.3 420h162l.3-421.3.2-421.2h-81c-63.9 0-81.2.3-81.5 1.2m2037 125c-4.4 1.1-9.8 2.8-12.1 3.9-2.3 1-4.4 1.9-4.7 1.9-4.2 0-26.9 21.5-28.2 26.8-.4 1.5-1.2 3.3-1.8 4-8.8 10.6-8.4 50.4.6 63.2.9 1.3 1.7 2.8 1.7 3.2 0 .9 4.3 7.2 6.3 9.2.8.9 1.7 1.9 1.9 2.3.3.9 8.6 7.6 13.4 11 1.8 1.2 4.4 2.5 5.8 2.9 1.4.3 3 1.2 3.7 2 .6.8 2 1.4 3 1.4s4.1.9 6.9 2c7.5 3 30.6 2.9 39.9-.1 15.4-5 28.7-13.9 35.2-23.4 1.9-2.8 3.9-5.4 4.6-5.8s1.3-1.3 1.3-1.9.9-2.9 1.9-5.2c8.7-18.7 8.6-42.1-.3-60.6-3.9-8.1-7.8-13.4-14.6-19.8-10.9-10.2-17.8-13.6-38.5-18.2-6.4-1.5-17.3-.9-26 1.2m29.5 15.2c4.1 1 8.2 2.3 9 3s2.9 1.8 4.7 2.5c8.9 3.6 24.3 23.8 24.3 32.1 0 1.2.7 5.2 1.6 9 1.4 6.2 1.4 7.3 0 12.1-.9 2.9-1.6 6.3-1.6 7.6 0 8.3-13.3 26.2-24.3 32.6-11.6 6.8-33.1 9.7-41.2 5.5-1.6-.8-4.4-1.8-6.2-2.1-5.9-1.1-16.4-9.3-22.2-17.2-9.8-13.4-14.2-33.8-9.6-44.7.8-2.1 1.5-4.5 1.5-5.4 0-2.1 4.6-11.9 6.6-14.2 17.7-20.2 34.2-26.1 57.4-20.8m-37.1 18.7c-.5.3-.8 14.4-.7 33.5l.3 32.9 6.8.3c7.5.3 7.1.8 6.7-8.5-.5-12.9 2.7-17.6 9.3-14 3.5 1.9 15 15.8 16.7 20.1.9 2.6 1.2 2.7 7.7 2.4 5.6-.3 6.8-.6 7.1-2.1.6-2.8-.5-6.1-2.9-8.8-10.5-12-10.9-12.9-6-18.2 10.5-11.4 8.1-28.6-4.9-35.1-4.5-2.3-6.2-2.5-22-2.8-9.5-.2-17.6 0-18.1.3m30.2 12.9c6.6 3.4 7.7 11.1 2.3 16.1-3 2.8-15.1 3.6-17.6 1.1-2.2-2.2-1.7-16 .6-17.8 2.8-2 10-1.7 14.7.6m-2504.6 64c-2.2.4-8 1.3-13 2-4.9.6-11.2 1.7-14 2.5-2.7.8-6.8 1.7-9 2-2.2.4-6.6 1.5-9.8 2.6-3.1 1-6.5 1.9-7.4 1.9-1.8 0-9.9 2.9-16.9 6.1-2.3 1.1-4.6 1.9-5.3 1.9-.6 0-2.8.9-4.8 2-2.1 1.1-4.2 2-4.8 2-1.1 0-9.7 4.3-15.5 7.8-1.9 1.2-4.8 2.8-6.5 3.7-1.6.8-5 2.8-7.5 4.5-2.5 1.6-5.2 3.3-6 3.7-.8.3-1.7 1-2 1.3-.3.4-3.6 3.1-7.5 6.1-3.8 2.9-10.4 8.8-14.7 13.1-4.2 4.3-8.1 7.8-8.7 7.8-2.7 0-3.2-4.7-3.1-30.8.1-14.7.1-27.5 0-28.5 0-1.6-4.3-1.7-81.2-1.5l-81.3.3v858l81.3.3c64.6.2 81.2 0 81.2-1v-160.4c0-87.6.3-159.9.6-160.8 1.2-3 3.8-1.6 11.4 6.1 9.9 10.1 28.7 24.4 38 29 1.4.7 3.2 1.7 4 2.3.8.5 2.6 1.4 4 2 1.4.5 3.2 1.4 4 2 .8.5 2.6 1.4 4 2 1.4.5 3.2 1.4 4 1.8 5.5 3.1 10.1 5.2 11.1 5.2.7 0 3.1.8 5.3 1.8 6.1 2.7 13.4 5.2 19.6 6.6 3 .8 6.6 1.8 8 2.4 1.4.5 5 1.3 8 1.7s6.4 1.2 7.5 1.8c1 .5 6.7 1.6 12.5 2.3s13 1.7 16 2.3c7.4 1.3 50.9 1.3 59 0 3.6-.6 11.2-1.6 17-2.3 15.9-2 45.6-9.8 56.6-14.7 2.3-1.1 4.6-1.9 5.3-1.9.6 0 2.8-.9 4.8-2 2.1-1.1 4.5-2 5.4-2s2.2-.7 2.9-1.5 1.8-1.5 2.4-1.5 4-1.6 7.6-3.5 7.6-3.9 9-4.5c1.4-.5 3.2-1.5 4-2 .8-.6 2.6-1.6 4-2.2 1.4-.7 5-3 8-5 3-2.1 6-3.8 6.7-3.8s1.6-.6 2-1.3c.4-.6 2.8-2.5 5.3-4.2 4.9-3.3 23.3-17.7 26.6-20.9 1.2-1.2 5.2-5.1 9-8.7 11.2-10.8 31.2-34.5 34.2-40.7.9-1.7 1.9-3.2 2.3-3.2.5 0 2.4-2.8 4.4-6.3 2-3.4 5-8.5 6.7-11.2 4.6-7.5 15.8-30 15.8-31.7 0-.9.7-2.1 1.5-2.8s1.5-1.9 1.5-2.8.8-3.4 1.8-5.6c2.4-5.4 5.1-13.2 6.3-18.1.5-2.2 1.6-5.4 2.3-7 .8-1.7 1.7-5 2.1-7.4s1.3-5.8 2-7.5 1.6-6 2-9.5 1.2-7.8 1.7-9.5 1.6-8.7 2.5-15.6c.8-6.9 1.9-15.7 2.3-19.5 1.2-9.5 1.1-49.2-.1-58.5-.5-4.1-1.5-13.1-2.3-20-.7-6.9-1.8-13.6-2.3-15-.6-1.4-1.4-5.4-1.8-9s-1.3-7.9-2-9.7c-.8-1.8-1.7-5.4-2.1-8-.3-2.6-1.1-5.7-1.7-6.8s-1.6-4.3-2.3-7c-1.5-6-4.1-13.5-6.6-19.1-1-2.2-1.8-4.6-1.8-5.2s-1-3.1-2.1-5.4c-1.2-2.4-3-6.3-4.2-8.8-1.1-2.5-2.4-5.2-2.8-6-.5-.8-1.7-3.1-2.7-5-6.6-12.5-9.4-17.3-10.7-18.6-.8-.9-1.5-1.9-1.5-2.4s-1.4-2.9-3-5.2c-1.7-2.4-3.8-5.4-4.7-6.8s-5.1-6.7-9.2-11.8c-4.2-5.1-8.5-10.5-9.6-12-2.5-3.3-21-21.9-24.6-24.7-1.5-1.1-5.3-4.3-8.6-7-3.3-2.8-7-5.7-8.3-6.5-1.2-.8-3.4-2.4-4.8-3.5-2.3-1.7-15-10.1-24.9-16.3-1.7-1.1-4.2-2.3-5.5-2.7s-3-1.3-3.8-2c-.8-.8-2.7-1.6-4.2-2s-3.2-1.3-3.9-2.1c-.6-.8-1.8-1.4-2.6-1.4s-3.1-.9-5.1-2c-5-2.6-12.2-5.7-15.2-6.5-1.4-.3-3.8-1.2-5.5-1.9-5-2.2-12.7-4.7-17.5-5.7-2.5-.5-6.1-1.5-8-2.3-1.9-.7-6-1.7-9-2.1s-6.6-1.2-8-1.7c-1.4-.6-7.4-1.6-13.5-2.4-6-.7-13.2-1.8-16-2.3-5.9-1.2-58.2-1.2-64-.1m27.5 154c39.1 7.3 64 19.4 87.9 43 20.6 20.2 37.4 52 41.2 78 .6 3.6 1.7 9.8 2.5 13.8 1.5 8 1.9 30.3.5 33-.5.9-1.4 6.2-2 11.7s-1.7 11.8-2.5 14c-.7 2.2-1.8 5.8-2.4 8-2 8-7.4 20.2-15.1 34.4-8.3 15.2-34.2 41.1-49.3 49.2-10.1 5.4-21 10.8-23 11.4-1.2.4-4.5 1.5-7.3 2.5-12.5 4.5-21.5 6.4-42 9.1-9.9 1.3-31.1.5-40.2-1.5-3.7-.8-9-2-11.8-2.5-8.3-1.7-16.9-4.1-19.7-5.6-1.4-.8-3.2-1.5-4-1.5-.7 0-6-2.4-11.7-5.3-14.9-7.5-15.5-7.9-16.4-9.4-.4-.7-1.2-1.3-1.7-1.3-2.3 0-17.8-12.5-23.9-19.4-1.4-1.5-3.7-4-5.1-5.5-10.9-11.8-17.7-22.9-27.9-45.2-1.2-2.5-2.1-5.4-2.1-6.3s-.7-3-1.5-4.5c-.8-1.6-1.9-5.3-2.4-8.2-.5-3-1.7-8.8-2.6-12.9-2.2-9.9-1.7-50.4.7-56 .9-1.9 1.8-5.9 2.2-8.9.4-2.9 1.3-6.3 2-7.5.8-1.1 1.6-3.6 2-5.5 1.3-7.1 16.8-36.1 22.7-42.5.8-.8 2.3-2.7 3.4-4.2 2.9-4 14.3-15.4 19.4-19.4 2.4-1.9 5.1-4.2 6-5 2.9-2.6 9.7-7 10.8-7 .6 0 1.6-.7 2.3-1.5 1.1-1.4 8.2-5 24.6-12.6 2.3-1 4.7-1.9 5.4-1.9.8 0 4.1-.8 7.4-1.9 7.3-2.2 14.6-4.1 20.1-5.1 5.6-1 48-1.1 53.5 0m1736-152.9c-5.2 1.1-11.3 2.4-13.5 3-2.2.5-6.5 1.6-9.5 2.4-6.6 1.7-15.4 4.8-19.5 6.9-1.6.9-3.5 1.6-4 1.6-.6 0-3.5 1.3-6.5 3-3 1.6-6.6 3.6-8 4.3-1.4.6-3.8 2.1-5.5 3.1-4.2 2.7-10.8 7-12 7.8-3.2 2.2-19.7 17.3-23.5 21.5-7.9 8.7-12 13.4-12 14.1-.1.4-1.6 2.5-3.5 4.7-5.8 6.7-6 5.7-6.2-29.8-.2-17.2-.3-31.8-.3-32.5 0-1-16.6-1.2-81.2-1l-81.3.3v595l81.3.3c76.9.2 81.2.1 81.2-1.5 0-1 .1-81.7.3-179.3.2-160.3.4-178 1.8-183 .9-3 2-7.3 2.3-9.5.7-4.3 1.6-6.9 6.6-18.4 10-23.5 30.2-42.2 55-50.9 13.3-4.8 21.6-6.1 38-6.1 13.6 0 16.1.3 28 3.3 6.6 1.7 8.5 2.4 17.5 6.6 14.8 6.9 34.4 24.3 40.6 36.1 7.2 13.7 11.9 24.3 11.9 26.6 0 1.1.8 4 1.8 6.4 1.6 4.1 1.7 16.1 2.2 186.9l.5 182.5 80.9.3c58.9.1 81.2-.1 82.2-.9 1.2-1 1.4-29.6 1.4-174.3.1-172.6.4-188.7 3.6-198.8 7.1-22.5 13.5-33.8 25.9-46.3 6.3-6.3 19.9-16.5 22-16.5.5 0 1.6-.6 2.4-1.3 1.7-1.5 8.8-4.1 15.6-5.9 2.2-.6 5.8-1.7 8-2.5 5.2-1.9 32.6-2.9 41.5-1.5 8.1 1.4 20.7 4.7 22.3 6 .7.5 2.6 1.3 4.4 1.6 1.7.4 3.7 1.4 4.4 2.2.6.8 1.6 1.4 2.2 1.4 2.3 0 15.6 9.9 22.7 17 8.8 8.8 9.5 9.6 16.8 21.5 3.8 6.3 8.9 19.4 10.4 27 .6 2.7 1.7 7.7 2.6 11 1.5 5.4 1.7 23.9 1.9 181.5.2 96.5.3 176.3.3 177.2 0 1.7 4.5 1.8 81 1.8s81-.1 81-1.8c.4-145.8-.3-422.8-1.1-426.2-.6-2.5-1.7-7.9-2.4-12-.8-4.1-2.1-9.3-2.9-11.5s-1.5-4.7-1.6-5.5c0-3-5.4-15.9-12.6-30.2-6.5-12.8-7.7-15.1-9.2-16.9-1.6-1.9-6.2-8.9-6.2-9.4 0-.3-.8-1.3-1.7-2.4-1-1-3.8-4.4-6.3-7.6-5.7-7.3-25.1-26.7-32-32-2.9-2.2-6-4.7-6.9-5.5-2.3-2.1-14-10-14.8-10-.4 0-1.4-.6-2.2-1.4-.9-.7-4.5-2.9-8.1-4.8s-7.4-4-8.5-4.6-4.7-2.3-8-3.7-7.3-3.2-9-3.9c-6.1-2.7-14.1-5.5-17.5-6.1-1.9-.4-4-1.1-4.6-1.6s-3.8-1.4-7-2c-3.3-.5-7.7-1.6-9.9-2.4s-6.9-1.7-10.5-2c-3.6-.4-9.2-1.3-12.5-2.1-7.4-1.7-54.8-2-64-.3-3.3.6-10 1.6-15 2.4-9.4 1.4-20.9 3.9-26 5.6-1.6.6-5.2 1.7-8 2.4-5.2 1.4-11.8 3.7-17 6-1.6.7-5.7 2.5-9 4-3.3 1.4-6.7 3-7.5 3.5s-3.7 2.1-6.4 3.5c-19.4 10.2-39.4 25.8-57 44.7-4.8 5.1-6.6 4.3-16.9-7.2-4.6-5.2-10.9-11.5-13.8-14s-6.3-5.4-7.5-6.5-3.2-2.7-4.5-3.5c-1.2-.8-3.4-2.4-4.8-3.5-6.4-5-29.2-18.5-31.2-18.5-.6 0-2.8-.8-4.8-1.9-6.6-3.4-21.5-8.5-31-10.7-3.5-.8-6.8-1.7-7.3-2-.5-.4-5.1-1.2-10.1-2-5.1-.7-11.4-1.8-14.2-2.3-9.3-1.8-53.7-1.1-64.5 1m-999.9 10.3c-.8 1-1 52.3-.8 196.7.3 198.4.7 220.4 4.1 232.4.8 2.7 1.8 7.2 2.1 10 .6 4.6 3.1 13.7 5.7 21 .6 1.6 1.6 4.8 2.3 7 1.2 4.2 3.6 10 6 15 .8 1.6 1.9 4.1 2.5 5.5.5 1.4 1.4 3.2 2 4 .5.8 1.4 2.6 2 4 .5 1.4 2.1 4.3 3.5 6.5 1.3 2.2 3.5 5.7 4.7 7.9 3.7 6.3 4.2 7.1 5.6 8.6 1.1 1.4 4.3 5.6 9.4 12.5 2.6 3.5 25.3 26.1 28.9 28.8 1.3 1 4.7 3.4 7.4 5.5 9.1 6.8 17.6 12.2 20 12.8 1.3.3 2.9 1.2 3.6 2 .6.8 1.6 1.4 2.1 1.4.6 0 2.2.8 3.6 1.9 1.5 1 4 2.1 5.7 2.5 1.6.4 3.6 1.3 4.3 1.9 1.4 1.1 9 4 15.2 5.8 1.9.5 5.1 1.6 7 2.4 4.9 1.9 16.4 4.6 23.8 5.6 3.4.4 9.6 1.5 13.7 2.4 8.4 1.7 48.3 2.1 57 .5 2.8-.5 9.6-1.6 15.2-2.4s10.8-1.8 11.4-2.2c.7-.4 3.7-1.3 6.8-2 30.1-6.8 62.3-25.4 85.5-49.4 12.4-12.8 14.5-13.6 16.7-5.7.6 2.3 1.9 6.4 2.9 9.2 1 2.7 2.3 6.6 3 8.5s1.8 5.5 2.6 8c1.9 6.5 4.4 13.7 6.9 20l2.2 5.5 91.2.3c73.5.2 91.3 0 91.7-1.1.2-.7-.5-3.9-1.7-7.2-1.1-3.3-2.7-8-3.4-10.5s-1.9-6.1-2.8-8c-2.1-4.9-3.7-9.7-5.3-15.4-.7-2.6-1.8-5.4-2.3-6-.6-.7-1.4-3-2-5.1-1.3-5.3-4.1-13.4-5.7-16.6-.7-1.4-1.8-4.3-2.3-6.5-.5-2.1-2.2-7.1-3.6-10.9-1.5-3.9-3.3-9-4-11.5s-2.1-6.3-3.2-8.5c-1.7-3.8-1.8-13.5-2.1-245.1-.2-201-.4-241.4-1.6-242.3-.9-.8-23.6-1-82.2-.9l-80.9.3-.5 182c-.5 164.8-.7 182.4-2.1 186-.9 2.2-2 5.9-2.3 8.2-.4 2.3-1.4 4.9-2.1 6-.8 1-1.5 2.4-1.5 3.1-.1 4.9-11.9 23.6-20.7 32.8-9 9.4-28.9 22.4-34.3 22.4-.6 0-2.1.6-3.3 1.4s-4.7 1.9-7.7 2.5-8.4 1.8-12 2.6c-7.1 1.6-28.9 2-35.5.6-7.7-1.6-14.1-3.3-19.5-5.3-6.8-2.4-24-11-24-12 0-.4-1.4-1.5-3-2.3-4.5-2.3-16.6-14.1-20.2-19.6-1.7-2.7-3.4-4.9-3.7-4.9-1.7 0-14.1-27.2-14.1-30.8 0-1.1-.8-3.9-1.7-6.3-1.7-4.1-1.8-16-2.3-185.4l-.5-181-81.1-.3c-67.6-.2-81.3 0-82.3 1.2"/></svg>